<svg xmlns="http://www.w3.org/2000/svg" xmlns:xlink="http://www.w3.org/1999/xlink" viewBox="0 0 360 341">
  <defs>
    <path id="a" d="M0 0h360v342H0z"/>
    <path id="c" d="M0 0h843.1v349.36H0z"/>
    <path id="e" d="M0 53.692C171.808 17.904 313.554.01 425.239.01 541.8.01 682.493 18.566 847.316 55.677V287.18H.2L0 53.692z"/>
    <path id="g" d="M3.167 13.723c2.643 1.546 10.165 1.87 22.566.968V2.101C8.662-.283.126-.6.126 1.152c0 2.629-.924 10.251 3.04 12.572z"/>
  </defs>
  <g fill="none" fill-rule="evenodd" transform="translate(0 -1.5)">
    <mask id="b" fill="#fff">
      <use xlink:href="#a"/>
    </mask>
    <g mask="url(#b)">
      <g transform="translate(-257 -4)">
        <mask id="d" fill="#fff">
          <use xlink:href="#c"/>
        </mask>
        <g mask="url(#d)">
          <g transform="translate(-3.689 61.917)">
            <mask id="f" fill="#fff">
              <use xlink:href="#e"/>
            </mask>
            <use fill="#8BD66C" xlink:href="#e"/>
            <path fill="#96DD80" d="M394.338-2.285c57.366-4.971 120.087-2.494 188.164 7.431 68.076 9.926 157.58 18.587 268.513 25.982l-5.054 256.053H546.03c-28.218-98.39-52.779-166.35-73.681-203.876-20.903-37.527-46.906-66.057-78.012-85.59z" mask="url(#f)"/>
          </g>
          <path fill="#93BE43" d="M285.08 74.287c1.122.36 1.418.614 2.01 1.124.393.34.7.644.92.914.776-1.085 1.422-1.743 1.937-1.972.774-.344 3.694-.263 3.837-1.029.143-.765-.852-.87-1.755-.87a32.8 32.8 0 0 0-2.325.105c.277-.612.766-1.14 1.466-1.583 1.05-.664 1.942-1.079 1.378-1.787-.563-.707-1.972 0-2.6.708-.42.472-.96 1.054-1.623 1.744-.06-1.554-.275-2.79-.645-3.708-.554-1.376-1.179-.935-1.179-.467 0 .311.019 1.703.055 4.175-.514-.69-1.229-1.272-2.144-1.744-1.373-.708-2.227-.578-2.31 0-.083.579.678.39 1.828 1.08.766.46 1.24.987 1.422 1.582a12.014 12.014 0 0 0-1.422-.105c-.38 0-.989.035-1.828.105-.625.52-.625.939 0 1.255.937.473 1.855.114 2.977.473zM293.992 96.605c1.122.36 1.419.615 2.01 1.124.394.34.7.645.92.915.776-1.086 1.422-1.744 1.938-1.973.774-.344 3.694-.263 3.837-1.028.143-.766-.853-.871-1.755-.871a32.8 32.8 0 0 0-2.325.105c.277-.612.765-1.139 1.465-1.582 1.05-.665 1.942-1.08 1.38-1.787-.564-.708-1.973 0-2.602.708-.419.472-.96 1.053-1.622 1.744-.06-1.555-.276-2.791-.645-3.708-.554-1.376-1.179-.935-1.179-.468 0 .312.018 1.704.055 4.176-.514-.691-1.229-1.272-2.144-1.744-1.373-.708-2.228-.579-2.31 0-.083.578.678.389 1.827 1.079.767.46 1.24.987 1.422 1.582a12.014 12.014 0 0 0-1.422-.105c-.379 0-.988.035-1.827.105-.625.521-.625.94 0 1.255.937.473 1.855.114 2.977.473zM300.075 121.097c1.122.359 1.418.614 2.01 1.123.393.34.7.645.92.915.776-1.086 1.422-1.743 1.938-1.973.773-.344 3.693-.263 3.836-1.028.144-.766-.852-.87-1.755-.87a32.8 32.8 0 0 0-2.324.104c.276-.611.765-1.139 1.465-1.582 1.05-.665 1.942-1.08 1.379-1.787-.564-.708-1.972 0-2.601.708-.42.472-.96 1.053-1.623 1.744-.06-1.555-.275-2.79-.645-3.708-.553-1.376-1.178-.935-1.178-.468 0 .312.018 1.704.054 4.176-.514-.69-1.228-1.272-2.144-1.744-1.373-.708-2.227-.579-2.31 0-.083.578.678.389 1.828 1.079.766.46 1.24.988 1.422 1.582a12.014 12.014 0 0 0-1.422-.105c-.38 0-.988.035-1.828.105-.625.521-.625.94 0 1.255.937.474 1.855.114 2.978.474zM308.097 143.7c1.123.36 1.42.614 2.01 1.124.394.34.701.644.92.914.777-1.085 1.423-1.743 1.939-1.972.773-.344 3.693-.263 3.836-1.029.144-.765-.852-.87-1.755-.87a32.8 32.8 0 0 0-2.325.105c.277-.612.766-1.14 1.466-1.583 1.05-.664 1.942-1.079 1.378-1.787-.563-.707-1.971 0-2.6.708-.42.472-.96 1.053-1.623 1.744-.06-1.555-.275-2.79-.645-3.708-.554-1.376-1.179-.935-1.179-.467 0 .311.019 1.703.055 4.175-.514-.69-1.229-1.272-2.144-1.744-1.373-.708-2.227-.578-2.31 0-.083.579.678.389 1.828 1.08.766.46 1.24.987 1.422 1.582a12.014 12.014 0 0 0-1.422-.106c-.38 0-.989.035-1.828.106-.625.52-.625.939 0 1.254.937.474 1.855.114 2.977.474zM315.595 166.558c1.122.36 1.418.615 2.01 1.124.393.34.7.645.92.915.776-1.086 1.422-1.744 1.938-1.973.773-.344 3.693-.263 3.836-1.028.144-.766-.852-.871-1.755-.871a32.8 32.8 0 0 0-2.324.105c.276-.612.765-1.139 1.465-1.582 1.05-.665 1.942-1.08 1.378-1.787-.563-.708-1.971 0-2.6.708-.42.472-.96 1.053-1.623 1.744-.06-1.555-.275-2.791-.645-3.708-.554-1.376-1.179-.935-1.179-.468 0 .312.019 1.704.055 4.176-.514-.691-1.229-1.272-2.144-1.744-1.373-.708-2.227-.579-2.31 0-.083.578.678.388 1.828 1.079.766.46 1.24.987 1.422 1.582a12.014 12.014 0 0 0-1.422-.105c-.38 0-.989.035-1.828.105-.625.521-.625.94 0 1.255.937.473 1.855.114 2.978.473zM322.48 195.005c1.122.359 1.418.614 2.01 1.123.393.34.7.645.92.915.776-1.086 1.422-1.743 1.937-1.973.774-.344 3.694-.262 3.837-1.028.143-.766-.852-.87-1.755-.87a32.8 32.8 0 0 0-2.325.104c.277-.611.765-1.139 1.465-1.582 1.05-.665 1.942-1.079 1.38-1.787-.564-.708-1.973 0-2.602.708-.419.472-.96 1.053-1.622 1.744-.06-1.555-.275-2.79-.645-3.708-.554-1.376-1.179-.935-1.179-.468 0 .312.019 1.704.055 4.176-.514-.69-1.229-1.272-2.144-1.744-1.373-.708-2.228-.578-2.31 0-.083.578.678.389 1.828 1.079.766.46 1.24.988 1.421 1.582a12.014 12.014 0 0 0-1.421-.105c-.38 0-.989.035-1.828.105-.625.521-.625.94 0 1.255.937.474 1.855.114 2.977.474zM326.926 228.645c1.122.36 1.419.614 2.01 1.124.394.34.7.644.92.914.776-1.085 1.422-1.743 1.938-1.972.774-.344 3.693-.263 3.837-1.029.143-.765-.853-.87-1.756-.87a32.8 32.8 0 0 0-2.324.105c.277-.612.765-1.14 1.465-1.583 1.05-.664 1.942-1.079 1.379-1.787-.563-.707-1.972 0-2.601.708-.42.472-.96 1.054-1.622 1.744-.061-1.554-.276-2.79-.645-3.708-.554-1.376-1.18-.935-1.18-.467 0 .311.019 1.703.055 4.175-.514-.69-1.228-1.272-2.144-1.744-1.373-.708-2.227-.578-2.31 0-.082.579.678.39 1.828 1.08.767.46 1.24.987 1.422 1.582a12.014 12.014 0 0 0-1.422-.105c-.379 0-.988.035-1.828.105-.624.52-.624.939 0 1.255.937.473 1.856.114 2.978.473z"/>
          <path fill="#3F8A3C" d="M352.892 79.138c1.172 0 6.3-6.205 4.982-9.224-1.318-3.018-3.364-2.912-3.81 0a73.978 73.978 0 0 1-1.172 5.96c-.371-3.28-1.48-5.648-3.33-7.107-2.772-2.189-5.369.714-3.67 4.75 1.7 4.036 5.827 5.621 7 5.621z"/>
          <path fill="#86AA43" d="M345.44 71.673c-3.004 1.264-1.454 4.945 1.04 6.469 2.538 1.55 6.008.675 6.008.996-.759-6.635-3.108-9.123-7.048-7.465z"/>
          <path fill="#93BE43" d="M360.708 71.32c3.003 1.264 1.453 4.945-1.04 6.469-2.539 1.55-6.008.675-6.008.996.758-6.635 3.108-9.123 7.048-7.465z"/>
          <path fill="#3F8A3C" d="M371.861 119.47c1.173 0 6.3-6.206 4.983-9.225-1.318-3.018-3.365-2.911-3.81 0a73.978 73.978 0 0 1-1.173 5.96c-.37-3.279-1.48-5.648-3.328-7.107-2.773-2.188-5.37.714-3.67 4.75 1.699 4.036 5.826 5.622 6.998 5.622z"/>
          <path fill="#86AA43" d="M364.41 112.004c-3.004 1.264-1.454 4.945 1.04 6.469 2.538 1.55 6.007.675 6.007.997-.758-6.636-3.107-9.124-7.047-7.466z"/>
          <path fill="#93BE43" d="M379.677 111.651c3.004 1.264 1.454 4.945-1.04 6.469-2.538 1.55-6.007.675-6.007.997.758-6.636 3.107-9.124 7.047-7.466z"/>
          <path fill="#3F8A3C" d="M427.953 157.11c1.172 0 6.3-6.206 4.982-9.225-1.318-3.018-3.364-2.911-3.81 0a73.978 73.978 0 0 1-1.172 5.96c-.37-3.279-1.48-5.648-3.329-7.107-2.773-2.188-5.37.714-3.67 4.75 1.7 4.036 5.826 5.622 6.999 5.622z"/>
          <path fill="#86AA43" d="M420.501 149.644c-3.003 1.264-1.454 4.945 1.04 6.469 2.538 1.55 6.008.675 6.008.997-.759-6.635-3.108-9.124-7.048-7.466z"/>
          <path fill="#93BE43" d="M435.769 149.291c3.003 1.264 1.454 4.945-1.04 6.469-2.538 1.55-6.008.675-6.008.997.759-6.635 3.108-9.124 7.048-7.466z"/>
          <path fill="#3F8A3C" d="M338.664 121.063c1.173 0 6.3-6.206 4.983-9.224-1.318-3.019-3.365-2.912-3.81 0a73.978 73.978 0 0 1-1.173 5.959c-.37-3.279-1.48-5.648-3.328-7.107-2.773-2.188-5.37.714-3.67 4.75 1.699 4.036 5.826 5.622 6.998 5.622z"/>
          <path fill="#86AA43" d="M331.213 113.597c-3.004 1.264-1.454 4.945 1.04 6.47 2.538 1.55 6.007.675 6.007.996-.758-6.635-3.107-9.124-7.047-7.466z"/>
          <path fill="#93BE43" d="M346.48 113.244c3.004 1.264 1.454 4.945-1.04 6.47-2.538 1.55-6.007.674-6.007.996.758-6.635 3.107-9.124 7.047-7.466z"/>
          <path fill="#3F8A3C" d="M345.538 142.667c1.173 0 6.3-6.205 4.983-9.224-1.318-3.018-3.364-2.912-3.81 0a73.978 73.978 0 0 1-1.173 5.96c-.37-3.28-1.48-5.648-3.328-7.107-2.773-2.189-5.37.714-3.67 4.75 1.699 4.036 5.826 5.621 6.998 5.621z"/>
          <path fill="#86AA43" d="M338.087 135.202c-3.004 1.264-1.454 4.945 1.04 6.469 2.538 1.55 6.007.675 6.007.996-.758-6.635-3.107-9.123-7.047-7.465z"/>
          <path fill="#93BE43" d="M353.354 134.849c3.004 1.264 1.454 4.945-1.04 6.469-2.538 1.55-6.007.675-6.007.996.758-6.635 3.108-9.123 7.047-7.465z"/>
          <path fill="#3F8A3C" d="M351.595 164.931c1.172 0 6.3-6.205 4.982-9.224-1.318-3.018-3.364-2.912-3.81 0a73.978 73.978 0 0 1-1.172 5.96c-.37-3.28-1.48-5.648-3.329-7.107-2.773-2.189-5.37.714-3.67 4.75 1.699 4.036 5.826 5.621 6.999 5.621z"/>
          <path fill="#86AA43" d="M344.143 157.466c-3.004 1.264-1.454 4.945 1.04 6.469 2.538 1.55 6.008.675 6.008.996-.759-6.635-3.108-9.123-7.048-7.465z"/>
          <path fill="#93BE43" d="M359.41 157.113c3.004 1.264 1.454 4.945-1.04 6.469-2.538 1.55-6.007.675-6.007.996.759-6.635 3.108-9.123 7.048-7.465z"/>
          <path fill="#3F8A3C" d="M330.815 99.637c1.173 0 6.3-6.205 4.983-9.224-1.318-3.019-3.365-2.912-3.81 0a73.978 73.978 0 0 1-1.173 5.96c-.37-3.28-1.48-5.648-3.328-7.107-2.773-2.189-5.37.714-3.67 4.75 1.699 4.036 5.826 5.621 6.998 5.621z"/>
          <path fill="#86AA43" d="M323.364 92.172c-3.004 1.264-1.454 4.945 1.04 6.468 2.538 1.551 6.007.676 6.007.997-.758-6.635-3.107-9.124-7.047-7.465z"/>
          <path fill="#93BE43" d="M338.631 91.819c3.004 1.264 1.454 4.945-1.04 6.468-2.538 1.551-6.007.676-6.007.997.758-6.635 3.107-9.124 7.047-7.465z"/>
          <path fill="#3F8A3C" d="M438.698 184.212c1.172 0 6.3-6.206 4.982-9.225-1.318-3.018-3.364-2.911-3.81 0a73.978 73.978 0 0 1-1.172 5.96c-.37-3.279-1.48-5.648-3.329-7.107-2.773-2.188-5.37.714-3.67 4.75 1.7 4.036 5.826 5.622 6.999 5.622z"/>
          <path fill="#86AA43" d="M431.246 176.746c-3.003 1.264-1.454 4.945 1.04 6.469 2.538 1.55 6.008.675 6.008.997-.759-6.636-3.108-9.124-7.048-7.466z"/>
          <path fill="#93BE43" d="M446.514 176.393c3.003 1.264 1.454 4.945-1.04 6.469-2.538 1.55-6.008.675-6.008.997.759-6.636 3.108-9.124 7.048-7.466z"/>
          <path fill="#3F8A3C" d="M449.058 215.61c1.172 0 6.3-6.206 4.982-9.225-1.318-3.018-3.364-2.912-3.81 0a73.978 73.978 0 0 1-1.172 5.96c-.37-3.28-1.48-5.648-3.329-7.107-2.773-2.189-5.37.714-3.67 4.75 1.699 4.036 5.826 5.621 6.999 5.621z"/>
          <path fill="#86AA43" d="M441.606 208.144c-3.003 1.264-1.454 4.945 1.04 6.469 2.538 1.55 6.008.675 6.008.996-.759-6.635-3.108-9.123-7.048-7.465z"/>
          <path fill="#93BE43" d="M456.874 207.79c3.003 1.265 1.453 4.946-1.04 6.47-2.539 1.55-6.008.675-6.008.996.759-6.635 3.108-9.123 7.048-7.465z"/>
          <path fill="#3F8A3C" d="M364.508 225.441c1.173 0 6.3-6.205 4.983-9.224-1.318-3.019-3.365-2.912-3.81 0a73.978 73.978 0 0 1-1.173 5.96c-.37-3.28-1.48-5.648-3.328-7.107-2.773-2.189-5.37.714-3.67 4.75 1.699 4.036 5.826 5.621 6.998 5.621z"/>
          <path fill="#86AA43" d="M357.057 217.976c-3.004 1.264-1.454 4.945 1.04 6.468 2.538 1.551 6.007.676 6.007.997-.758-6.635-3.107-9.123-7.047-7.465z"/>
          <path fill="#93BE43" d="M372.324 217.623c3.004 1.264 1.454 4.945-1.04 6.468-2.538 1.551-6.007.676-6.007.997.758-6.635 3.107-9.123 7.047-7.465z"/>
          <path fill="#3F8A3C" d="M373.182 254.115c1.173 0 6.3-6.205 4.983-9.224-1.318-3.018-3.365-2.912-3.81 0a73.978 73.978 0 0 1-1.173 5.96c-.37-3.28-1.48-5.648-3.328-7.107-2.773-2.189-5.37.714-3.67 4.75 1.699 4.036 5.826 5.621 6.998 5.621z"/>
          <path fill="#86AA43" d="M365.73 246.65c-3.003 1.264-1.453 4.945 1.04 6.469 2.539 1.55 6.008.675 6.008.996-.758-6.635-3.107-9.123-7.047-7.465z"/>
          <path fill="#93BE43" d="M380.998 246.297c3.004 1.264 1.454 4.945-1.04 6.469-2.538 1.55-6.007.675-6.007.996.758-6.635 3.107-9.123 7.047-7.465z"/>
          <path fill="#3F8A3C" d="M411.682 248.32c1.173 0 6.3-6.207 4.983-9.225-1.318-3.019-3.364-2.912-3.81 0a73.978 73.978 0 0 1-1.173 5.959c-.37-3.279-1.48-5.647-3.328-7.106-2.773-2.189-5.37.714-3.67 4.75 1.699 4.035 5.826 5.621 6.998 5.621z"/>
          <path fill="#86AA43" d="M404.23 240.853c-3.003 1.265-1.453 4.945 1.04 6.47 2.54 1.55 6.008.675 6.008.996-.758-6.635-3.107-9.124-7.047-7.466z"/>
          <path fill="#93BE43" d="M419.498 240.5c3.004 1.265 1.454 4.945-1.04 6.47-2.538 1.55-6.007.675-6.007.996.758-6.635 3.108-9.124 7.047-7.466z"/>
          <path fill="#3F8A3C" d="M457.668 244.104c1.172 0 6.3-6.206 4.982-9.225-1.318-3.018-3.364-2.911-3.81 0a73.978 73.978 0 0 1-1.172 5.96c-.37-3.28-1.48-5.648-3.329-7.107-2.773-2.188-5.37.714-3.67 4.75 1.699 4.036 5.826 5.622 6.999 5.622z"/>
          <path fill="#86AA43" d="M450.216 236.638c-3.004 1.264-1.454 4.945 1.04 6.469 2.538 1.55 6.008.675 6.008.997-.759-6.636-3.108-9.124-7.048-7.466z"/>
          <path fill="#93BE43" d="M465.484 236.285c3.003 1.264 1.453 4.945-1.04 6.469-2.539 1.55-6.008.675-6.008.997.759-6.636 3.108-9.124 7.048-7.466z"/>
          <path fill="#66A050" d="M360.974 97.35c-1.84-.227-3.07-.492-3.69-.795-2.63-1.287-3.025-3.12-1.399-4.327 1.528-1.135 3.172-.901 4.214 1.188.305.612.597 1.924.875 3.934zm0 0c.277-2.01.569-3.322.874-3.934 1.042-2.089 2.686-2.323 4.214-1.188 1.626 1.208 1.232 3.04-1.4 4.327-.618.303-1.848.568-3.688.795zM389.106 90.283c-1.84-.226-3.07-.491-3.69-.794-2.63-1.288-3.024-3.12-1.398-4.328 1.528-1.134 3.172-.9 4.213 1.188.306.613.597 1.924.875 3.934zm0 0c.278-2.01.57-3.321.875-3.934 1.042-2.089 2.685-2.322 4.213-1.188 1.626 1.208 1.232 3.04-1.399 4.328-.619.303-1.849.568-3.689.794zM406.712 109.351c-1.84-.226-3.07-.491-3.69-.794-2.63-1.288-3.024-3.12-1.398-4.328 1.528-1.135 3.172-.9 4.213 1.188.306.613.597 1.924.875 3.934zm0 0c.278-2.01.57-3.321.875-3.934 1.042-2.089 2.685-2.323 4.213-1.188 1.626 1.208 1.232 3.04-1.399 4.328-.619.303-1.848.568-3.689.794zM383.05 76.056c-1.84-.227-3.07-.491-3.69-.794-2.63-1.288-3.025-3.12-1.398-4.328 1.528-1.135 3.171-.901 4.213 1.188.306.612.597 1.924.875 3.934zm0 0c.278-2.01.569-3.322.874-3.934 1.042-2.089 2.686-2.323 4.214-1.188 1.626 1.208 1.232 3.04-1.399 4.328-.619.303-1.849.567-3.69.794zM322.185 78.727c-2.242-.276-3.74-.598-4.494-.967-3.205-1.57-3.685-3.8-1.704-5.272 1.861-1.382 3.863-1.097 5.133 1.447.372.746.727 2.344 1.065 4.792zm0 0c.338-2.448.693-4.046 1.065-4.792 1.27-2.544 3.272-2.83 5.133-1.447 1.98 1.471 1.5 3.703-1.704 5.272-.754.369-2.252.691-4.494.967zM402.02 220.576c-2.242-.276-3.74-.598-4.494-.967-3.205-1.57-3.685-3.8-1.705-5.272 1.862-1.382 3.864-1.097 5.133 1.447.372.746.727 2.344 1.066 4.792zm0 0c.338-2.448.693-4.046 1.065-4.792 1.27-2.544 3.271-2.83 5.133-1.447 1.98 1.471 1.5 3.703-1.705 5.272-.754.369-2.252.691-4.493.967zM418.85 127.724c-1.848-.227-3.083-.493-3.705-.797-2.642-1.294-3.038-3.134-1.405-4.347 1.535-1.14 3.186-.905 4.232 1.194.307.615.6 1.932.879 3.95zm0 0c.28-2.018.572-3.335.879-3.95 1.046-2.099 2.697-2.333 4.232-1.194 1.633 1.213 1.237 3.053-1.405 4.347-.622.304-1.857.57-3.705.797zM381.729 141.08c-2.242-.276-3.74-.599-4.494-.968-3.205-1.569-3.685-3.8-1.704-5.271 1.861-1.383 3.863-1.098 5.133 1.447.372.746.727 2.343 1.065 4.792zm0 0c.338-2.449.693-4.046 1.065-4.792 1.27-2.545 3.272-2.83 5.133-1.447 1.98 1.47 1.5 3.702-1.704 5.27-.754.37-2.252.693-4.494.969zM385.797 160.067c-2.242-.277-3.74-.6-4.494-.968-3.204-1.569-3.685-3.8-1.704-5.271 1.861-1.383 3.864-1.098 5.133 1.447.372.746.727 2.343 1.065 4.792zm0 0c.338-2.45.693-4.046 1.065-4.792 1.27-2.545 3.272-2.83 5.133-1.447 1.981 1.47 1.5 3.702-1.704 5.27-.754.37-2.252.692-4.494.969z"/>
          <g>
            <path fill="#91AF42" d="M265.901 61.292c-1.117-.622-1.675-1.45-1.675-2.482 0-1.032.558-2.055 1.675-3.066 1.182 1.042 1.773 2.064 1.773 3.066 0 1.002-.59 1.83-1.773 2.482zm.332 3.852c-.087-1.276.302-2.194 1.168-2.757.866-.562 2.028-.65 3.485-.265-.23 1.56-.766 2.612-1.606 3.158-.84.545-1.856.5-3.047-.136zm-.328 0c-1.19.636-2.206.681-3.047.136-.84-.546-1.376-1.599-1.606-3.158 1.457-.386 2.618-.297 3.484.265.867.563 1.256 1.481 1.169 2.757zm.328 5.24c-.087-1.275.302-2.194 1.168-2.756.866-.562 2.028-.65 3.485-.265-.23 1.56-.766 2.612-1.606 3.157-.84.546-1.856.5-3.047-.135zm-.328 0c-1.19.637-2.206.682-3.047.136-.84-.545-1.376-1.598-1.606-3.157 1.457-.386 2.618-.297 3.484.265.867.562 1.256 1.481 1.169 2.757zm.132 4.991c-.087-1.275.302-2.194 1.168-2.757.866-.562 2.028-.65 3.485-.265-.23 1.56-.766 2.612-1.606 3.158-.84.546-1.856.5-3.047-.136zm-.328 0c-1.19.636-2.206.682-3.047.136-.84-.546-1.376-1.598-1.606-3.158 1.457-.385 2.619-.297 3.485.265.866.563 1.255 1.482 1.168 2.757zm.328 5.438c-.087-1.275.302-2.194 1.168-2.756.866-.563 2.028-.65 3.485-.265-.23 1.559-.766 2.611-1.606 3.157-.84.546-1.856.5-3.047-.136zm-.328 0c-1.19.637-2.206.682-3.047.136-.84-.546-1.376-1.598-1.606-3.157 1.457-.386 2.619-.298 3.485.265.866.562 1.255 1.481 1.168 2.756zm.328 5.074c-.087-1.275.302-2.194 1.168-2.756.866-.563 2.028-.651 3.485-.265-.23 1.559-.766 2.611-1.606 3.157-.84.546-1.856.5-3.047-.136zm-.328 0c-1.19.637-2.206.682-3.047.136-.84-.546-1.376-1.598-1.606-3.157 1.457-.386 2.619-.298 3.485.265.866.562 1.255 1.481 1.168 2.756z"/>
            <path fill="#1C3F21" fill-rule="nonzero" d="M265.687 61.292c0-.146.223-.264.5-.264.276 0 .5.118.5.264V86.8c0 .145-.224.263-.5.263-.277 0-.5-.118-.5-.263V61.292z"/>
          </g>
          <g>
            <path fill="#91AF42" d="M275.39 91.894c-1.117-.622-1.675-1.45-1.675-2.482 0-1.032.558-2.055 1.675-3.066 1.182 1.042 1.773 2.064 1.773 3.066 0 1.002-.59 1.83-1.773 2.482zm.332 3.852c-.087-1.276.302-2.194 1.168-2.757.866-.562 2.028-.65 3.485-.265-.23 1.56-.766 2.612-1.606 3.157-.84.546-1.856.501-3.047-.135zm-.328 0c-1.19.636-2.206.681-3.047.135-.84-.545-1.376-1.598-1.606-3.157 1.457-.386 2.618-.297 3.485.265.866.563 1.255 1.481 1.168 2.757zm.328 5.24c-.087-1.275.302-2.194 1.168-2.756.866-.562 2.028-.65 3.485-.265-.23 1.56-.766 2.612-1.606 3.157-.84.546-1.856.5-3.047-.135zm-.328 0c-1.19.637-2.206.682-3.047.136-.84-.545-1.376-1.598-1.606-3.157 1.457-.386 2.618-.297 3.485.265.866.562 1.255 1.481 1.168 2.757zm.132 4.991c-.087-1.275.302-2.194 1.168-2.757.866-.562 2.028-.65 3.485-.265-.23 1.56-.766 2.612-1.606 3.158-.84.546-1.856.5-3.047-.136zm-.328 0c-1.19.636-2.206.682-3.047.136-.84-.546-1.376-1.598-1.606-3.158 1.457-.385 2.619-.297 3.485.265.866.563 1.255 1.482 1.168 2.757zm.328 5.438c-.087-1.275.302-2.194 1.168-2.756.866-.563 2.028-.65 3.485-.265-.23 1.559-.766 2.611-1.606 3.157-.84.546-1.856.5-3.047-.136zm-.328 0c-1.19.637-2.206.682-3.047.136-.84-.546-1.376-1.598-1.606-3.157 1.457-.386 2.619-.298 3.485.265.866.562 1.255 1.481 1.168 2.756zm.328 5.074c-.087-1.275.302-2.194 1.168-2.756.866-.563 2.028-.651 3.485-.265-.23 1.559-.766 2.611-1.606 3.157-.84.546-1.856.5-3.047-.136zm-.328 0c-1.19.637-2.206.682-3.047.136-.84-.546-1.376-1.598-1.606-3.157 1.457-.386 2.619-.298 3.485.265.866.562 1.255 1.48 1.168 2.756z"/>
            <path fill="#1C3F21" fill-rule="nonzero" d="M275.176 91.894c0-.146.223-.264.5-.264.276 0 .5.118.5.264v25.508c0 .145-.224.263-.5.263-.277 0-.5-.118-.5-.263V91.894z"/>
          </g>
          <g>
            <path fill="#91AF42" d="M286.478 126.161c-1.117-.622-1.675-1.449-1.675-2.481 0-1.033.558-2.055 1.675-3.067 1.183 1.042 1.774 2.065 1.774 3.067 0 1.002-.591 1.829-1.774 2.481zm.332 3.852c-.087-1.275.303-2.194 1.169-2.757.866-.562 2.027-.65 3.484-.265-.23 1.56-.766 2.612-1.606 3.158-.84.546-1.856.5-3.047-.136zm-.328 0c-1.19.636-2.206.682-3.047.136-.84-.546-1.375-1.598-1.606-3.158 1.457-.385 2.619-.297 3.485.265.866.563 1.255 1.482 1.168 2.757zm.328 5.24c-.087-1.274.303-2.193 1.169-2.756.866-.562 2.027-.65 3.484-.265-.23 1.56-.766 2.612-1.606 3.158-.84.545-1.856.5-3.047-.136zm-.328 0c-1.19.637-2.206.682-3.047.137-.84-.546-1.375-1.599-1.606-3.158 1.457-.385 2.619-.297 3.485.265.866.563 1.255 1.482 1.168 2.757zm.132 4.991c-.087-1.275.303-2.194 1.169-2.756.866-.563 2.027-.651 3.484-.265-.23 1.559-.766 2.611-1.606 3.157-.84.546-1.856.5-3.047-.136zm-.328 0c-1.19.637-2.206.682-3.047.136-.84-.546-1.375-1.598-1.606-3.157 1.457-.386 2.619-.298 3.485.265.866.562 1.255 1.481 1.168 2.756zm.328 5.439c-.087-1.276.303-2.194 1.169-2.757.866-.562 2.027-.65 3.484-.265-.23 1.56-.766 2.612-1.606 3.158-.84.545-1.856.5-3.047-.136zm-.328 0c-1.19.636-2.206.681-3.047.136-.84-.546-1.375-1.599-1.606-3.158 1.457-.386 2.619-.297 3.485.265.866.563 1.255 1.481 1.168 2.757zm.328 5.074c-.087-1.276.303-2.195 1.169-2.757.866-.562 2.027-.65 3.484-.265-.23 1.56-.766 2.612-1.606 3.157-.84.546-1.856.5-3.047-.135zm-.328 0c-1.19.636-2.206.681-3.047.135-.84-.545-1.375-1.598-1.606-3.157 1.457-.386 2.619-.297 3.485.265.866.562 1.255 1.481 1.168 2.757z"/>
            <path fill="#1C3F21" fill-rule="nonzero" d="M286.264 126.161c0-.146.224-.264.5-.264s.5.118.5.264v25.508c0 .146-.224.264-.5.264s-.5-.118-.5-.264v-25.508z"/>
          </g>
          <g>
            <path fill="#91AF42" d="M263.27 171.235c-1.116-.622-1.675-1.45-1.675-2.482 0-1.032.559-2.055 1.676-3.066 1.182 1.042 1.773 2.064 1.773 3.066 0 1.002-.591 1.83-1.773 2.482zm.332 3.852c-.087-1.276.303-2.195 1.169-2.757.866-.562 2.027-.65 3.484-.265-.23 1.56-.765 2.612-1.606 3.157-.84.546-1.856.501-3.047-.135zm-.328 0c-1.19.636-2.206.681-3.046.135-.84-.545-1.376-1.598-1.607-3.157 1.457-.386 2.619-.297 3.485.265.866.562 1.255 1.481 1.168 2.757zm.328 5.24c-.087-1.275.303-2.194 1.169-2.756.866-.563 2.027-.65 3.484-.265-.23 1.559-.765 2.612-1.606 3.157-.84.546-1.856.5-3.047-.135zm-.328 0c-1.19.637-2.206.682-3.046.136-.84-.545-1.376-1.598-1.607-3.157 1.457-.386 2.619-.298 3.485.265.866.562 1.255 1.481 1.168 2.757zm.132 4.991c-.087-1.275.303-2.194 1.169-2.757.866-.562 2.027-.65 3.484-.265-.23 1.56-.765 2.612-1.606 3.158-.84.546-1.856.5-3.047-.136zm-.328 0c-1.19.636-2.206.682-3.046.136-.84-.546-1.376-1.599-1.606-3.158 1.456-.385 2.618-.297 3.484.265.866.563 1.256 1.482 1.168 2.757zm.328 5.438c-.087-1.275.303-2.194 1.169-2.756.866-.563 2.027-.651 3.484-.265-.23 1.559-.765 2.611-1.606 3.157-.84.546-1.856.5-3.047-.136zm-.328 0c-1.19.637-2.206.682-3.046.136-.84-.546-1.376-1.598-1.606-3.157 1.456-.386 2.618-.298 3.484.265.866.562 1.256 1.481 1.168 2.756zm.328 5.074c-.087-1.275.303-2.194 1.169-2.756.866-.563 2.027-.651 3.484-.265-.23 1.559-.765 2.611-1.606 3.157-.84.546-1.856.5-3.047-.136zm-.328 0c-1.19.637-2.206.682-3.046.136-.84-.546-1.376-1.598-1.606-3.157 1.456-.386 2.618-.298 3.484.265.866.562 1.256 1.48 1.168 2.756z"/>
            <path fill="#1C3F21" fill-rule="nonzero" d="M263.056 171.235c0-.146.224-.264.5-.264s.5.118.5.264v25.508c0 .145-.224.263-.5.263s-.5-.118-.5-.263v-25.508z"/>
          </g>
          <g>
            <path fill="#91AF42" d="M291.462 171.235c-1.117-.622-1.676-1.45-1.676-2.482 0-1.032.559-2.055 1.676-3.066 1.182 1.042 1.773 2.064 1.773 3.066 0 1.002-.591 1.83-1.773 2.482zm.331 3.852c-.087-1.276.303-2.195 1.169-2.757.866-.562 2.027-.65 3.484-.265-.23 1.56-.765 2.612-1.606 3.157-.84.546-1.856.501-3.047-.135zm-.327 0c-1.191.636-2.207.681-3.047.135-.84-.545-1.376-1.598-1.606-3.157 1.457-.386 2.618-.297 3.484.265.866.562 1.256 1.481 1.169 2.757zm.327 5.24c-.087-1.275.303-2.194 1.169-2.756.866-.563 2.027-.65 3.484-.265-.23 1.559-.765 2.612-1.606 3.157-.84.546-1.856.5-3.047-.135zm-.327 0c-1.191.637-2.207.682-3.047.136-.84-.545-1.376-1.598-1.606-3.157 1.457-.386 2.618-.298 3.484.265.866.562 1.256 1.481 1.169 2.757zm.132 4.991c-.087-1.275.302-2.194 1.168-2.757.866-.562 2.028-.65 3.485-.265-.23 1.56-.766 2.612-1.607 3.158-.84.546-1.856.5-3.046-.136zm-.328 0c-1.191.636-2.207.682-3.047.136-.84-.546-1.376-1.599-1.606-3.158 1.457-.385 2.618-.297 3.484.265.866.563 1.256 1.482 1.169 2.757zm.328 5.438c-.087-1.275.302-2.194 1.168-2.756.866-.563 2.028-.651 3.485-.265-.23 1.559-.766 2.611-1.607 3.157-.84.546-1.856.5-3.046-.136zm-.328 0c-1.191.637-2.207.682-3.047.136-.84-.546-1.376-1.598-1.606-3.157 1.457-.386 2.618-.298 3.484.265.866.562 1.256 1.481 1.169 2.756zm.328 5.074c-.087-1.275.302-2.194 1.168-2.756.866-.563 2.028-.651 3.485-.265-.23 1.559-.766 2.611-1.607 3.157-.84.546-1.856.5-3.046-.136zm-.328 0c-1.191.637-2.207.682-3.047.136-.84-.546-1.376-1.598-1.606-3.157 1.457-.386 2.618-.298 3.484.265.866.562 1.256 1.48 1.169 2.756z"/>
            <path fill="#1C3F21" fill-rule="nonzero" d="M291.247 171.235c0-.146.224-.264.5-.264s.5.118.5.264v25.508c0 .145-.224.263-.5.263s-.5-.118-.5-.263v-25.508z"/>
          </g>
          <g>
            <path fill="#91AF42" d="M271.294 222.395c-1.117-.621-1.676-1.449-1.676-2.481 0-1.033.559-2.055 1.676-3.067 1.182 1.043 1.773 2.065 1.773 3.067 0 1.002-.591 1.829-1.773 2.481zm.331 3.852c-.087-1.275.303-2.194 1.169-2.756.866-.563 2.027-.651 3.484-.265-.23 1.559-.766 2.611-1.606 3.157-.84.546-1.856.5-3.047-.136zm-.328 0c-1.19.637-2.206.682-3.047.136-.84-.546-1.375-1.598-1.606-3.157 1.457-.386 2.619-.298 3.485.265.866.562 1.255 1.48 1.168 2.756zm.328 5.241c-.087-1.275.303-2.194 1.169-2.757.866-.562 2.027-.65 3.484-.265-.23 1.56-.766 2.612-1.606 3.158-.84.546-1.856.5-3.047-.136zm-.328 0c-1.19.636-2.206.682-3.047.136-.84-.546-1.375-1.598-1.606-3.158 1.457-.385 2.619-.297 3.485.265.866.563 1.255 1.482 1.168 2.757zm.132 4.99c-.087-1.275.303-2.194 1.169-2.756.866-.562 2.027-.65 3.484-.265-.23 1.56-.765 2.612-1.606 3.157-.84.546-1.856.5-3.047-.135zm-.328 0c-1.19.637-2.206.682-3.046.136-.84-.545-1.376-1.598-1.607-3.157 1.457-.386 2.619-.297 3.485.265.866.562 1.255 1.481 1.168 2.757zm.328 5.439c-.087-1.275.303-2.194 1.169-2.757.866-.562 2.027-.65 3.484-.265-.23 1.56-.765 2.612-1.606 3.158-.84.546-1.856.5-3.047-.136zm-.328 0c-1.19.636-2.206.682-3.046.136-.84-.546-1.376-1.599-1.607-3.158 1.457-.385 2.619-.297 3.485.265.866.563 1.255 1.482 1.168 2.757zm.328 5.074c-.087-1.276.303-2.194 1.169-2.757.866-.562 2.027-.65 3.484-.265-.23 1.56-.765 2.612-1.606 3.158-.84.545-1.856.5-3.047-.136zm-.328 0c-1.19.636-2.206.681-3.046.136-.84-.546-1.376-1.599-1.607-3.158 1.457-.386 2.619-.297 3.485.265.866.563 1.255 1.481 1.168 2.757z"/>
            <path fill="#1C3F21" fill-rule="nonzero" d="M271.079 222.395c0-.145.224-.263.5-.263s.5.118.5.263v25.508c0 .146-.224.264-.5.264s-.5-.118-.5-.264v-25.508z"/>
          </g>
          <g>
            <path fill="#91AF42" d="M299.485 222.395c-1.117-.621-1.676-1.449-1.676-2.481 0-1.033.559-2.055 1.676-3.067 1.182 1.043 1.773 2.065 1.773 3.067 0 1.002-.591 1.829-1.773 2.481zm.331 3.852c-.087-1.275.303-2.194 1.169-2.756.866-.563 2.027-.651 3.484-.265-.23 1.559-.765 2.611-1.606 3.157-.84.546-1.856.5-3.047-.136zm-.328 0c-1.19.637-2.206.682-3.046.136-.84-.546-1.376-1.598-1.606-3.157 1.456-.386 2.618-.298 3.484.265.866.562 1.256 1.48 1.168 2.756zm.328 5.241c-.087-1.275.303-2.194 1.169-2.757.866-.562 2.027-.65 3.484-.265-.23 1.56-.765 2.612-1.606 3.158-.84.546-1.856.5-3.047-.136zm-.328 0c-1.19.636-2.206.682-3.046.136-.84-.546-1.376-1.598-1.606-3.158 1.456-.385 2.618-.297 3.484.265.866.563 1.256 1.482 1.168 2.757zm.132 4.99c-.087-1.275.303-2.194 1.169-2.756.866-.562 2.027-.65 3.484-.265-.23 1.56-.765 2.612-1.606 3.157-.84.546-1.856.5-3.047-.135zm-.327 0c-1.191.637-2.207.682-3.047.136-.84-.545-1.376-1.598-1.606-3.157 1.457-.386 2.618-.297 3.484.265.866.562 1.256 1.481 1.169 2.757zm.327 5.439c-.087-1.275.303-2.194 1.169-2.757.866-.562 2.027-.65 3.484-.265-.23 1.56-.765 2.612-1.606 3.158-.84.546-1.856.5-3.047-.136zm-.327 0c-1.191.636-2.207.682-3.047.136-.84-.546-1.376-1.599-1.606-3.158 1.457-.385 2.618-.297 3.484.265.866.563 1.256 1.482 1.169 2.757zm.327 5.074c-.087-1.276.303-2.194 1.169-2.757.866-.562 2.027-.65 3.484-.265-.23 1.56-.765 2.612-1.606 3.158-.84.545-1.856.5-3.047-.136zm-.327 0c-1.191.636-2.207.681-3.047.136-.84-.546-1.376-1.599-1.606-3.158 1.457-.386 2.618-.297 3.484.265.866.563 1.256 1.481 1.169 2.757z"/>
            <path fill="#1C3F21" fill-rule="nonzero" d="M299.27 222.395c0-.145.224-.263.5-.263s.5.118.5.263v25.508c0 .146-.224.264-.5.264s-.5-.118-.5-.264v-25.508z"/>
          </g>
          <g fill="#91AF42">
            <path d="M254.813 128.891c-1.117-.622-1.676-1.449-1.676-2.481 0-1.033.559-2.055 1.676-3.067 1.182 1.042 1.773 2.065 1.773 3.067 0 1.002-.59 1.829-1.773 2.481zm.332 3.852c-.087-1.275.302-2.194 1.168-2.756.866-.563 2.028-.651 3.485-.266-.23 1.56-.766 2.612-1.607 3.158-.84.546-1.856.5-3.046-.136zm-.328 0c-1.191.636-2.207.682-3.047.136-.84-.546-1.376-1.598-1.606-3.158 1.457-.385 2.618-.297 3.484.266.866.562 1.256 1.48 1.169 2.756zm.328 5.241c-.087-1.275.302-2.194 1.168-2.757.866-.562 2.028-.65 3.485-.265-.23 1.56-.766 2.612-1.607 3.158-.84.546-1.856.5-3.046-.136zm-.328 0c-1.191.636-2.207.682-3.047.136-.84-.546-1.376-1.599-1.606-3.158 1.457-.385 2.618-.297 3.484.265.866.563 1.256 1.482 1.169 2.757zm.132 4.99c-.087-1.275.302-2.194 1.168-2.756.866-.563 2.028-.65 3.485-.265-.23 1.559-.766 2.611-1.606 3.157-.84.546-1.857.5-3.047-.136zm-.328 0c-1.191.637-2.207.682-3.047.136-.84-.546-1.376-1.598-1.606-3.157 1.457-.386 2.618-.298 3.484.265.866.562 1.256 1.481 1.169 2.756zm.328 5.439c-.087-1.275.302-2.194 1.168-2.757.866-.562 2.028-.65 3.485-.265-.23 1.56-.766 2.612-1.606 3.158-.84.545-1.857.5-3.047-.136zm-.328 0c-1.191.636-2.207.681-3.047.136-.84-.546-1.376-1.599-1.606-3.158 1.457-.386 2.618-.297 3.484.265.866.563 1.256 1.482 1.169 2.757zm.328 5.074c-.087-1.276.302-2.195 1.168-2.757.866-.562 2.028-.65 3.485-.265-.23 1.56-.766 2.612-1.606 3.157-.84.546-1.857.501-3.047-.135zm-.328 0c-1.191.636-2.207.681-3.047.135-.84-.545-1.376-1.598-1.606-3.157 1.457-.386 2.618-.297 3.484.265.866.562 1.256 1.481 1.169 2.757z"/>
          </g>
          <g transform="translate(449.44 30.564)">
            <path fill="#38895B" d="M25.92 32.8c-3.348 0-2.705-2.198-5.226-2.198-2.522 0-5.472 4.397-9.633 2.198-4.16-2.198-2.365-5.88-4.16-6.93-1.794-1.048-5.002.303-6.378-4.457-1.375-4.76-.079-7.87 4.37-9.18 4.448-1.31.026-4.004 3.466-6.388 3.44-2.383 5.3.942 7.389-.791C17.838 3.321 17.166 0 22.578 0s4.575 2.921 7.903 2.921c3.328 0 5.839-2.923 9.302 0 3.464 2.924.957 5.101 4.776 6.736 3.819 1.635 7.873 4.882 5.97 10.094-1.902 5.211-5.91 2.99-7.282 5.211-1.372 2.221-.107 5.64-5.09 6.739-4.983 1.099-5.598-2.199-7.676-1.1-2.08 1.1-1.213 2.199-4.561 2.199z"/>
            <path fill="#193215" fill-rule="nonzero" d="M16.4 24.256c-.761-.768-1.303-1.772-1.657-2.953-.426-1.417-.537-2.882-.479-4.128.005-.1.01-.172.013-.214l1.246.106a4.968 4.968 0 0 0-.01.167c-.052 1.116.05 2.451.427 3.71.153.509.344.973.575 1.387 1.968-1.873 3.202-3.544 3.705-5.002.564-1.635.868-3.79.909-6.464l.625.01c-.042 2.734-.355 4.953-.943 6.658-.548 1.59-1.867 3.365-3.953 5.335.257.352.552.655.887.905.863.644 1.836 1.1 3.768 1.845l.41.158c.753.29 1.404.555 1.971.81-.387-1.801-.422-4.97-.15-9.59l.623.037c-.298 5.074-.195 8.414.236 9.888.745.374 1.316.742 1.767 1.154 2.083-1.5 3.478-2.682 4.171-3.525.273-.331.532-.68.78-1.043.624-.917 1.14-1.876 1.65-2.998.01-.024.777-1.791.94-2.075.714-1.253 1.112-4.732 1.132-10.309l1.25.005c-.017 4.85-.307 8.16-.905 10.002 1.807-.128 3.312-.59 4.519-1.38 1.44-.941 2.573-2.408 3.4-4.409l.577.24c-.872 2.11-2.083 3.678-3.635 4.693-1.368.895-3.072 1.393-5.109 1.498-.046.1-.094.193-.144.28-.122.214-.842 1.872-.887 1.973-.538 1.181-1.085 2.2-1.754 3.183-.117.171-.236.34-.358.504 2.038.14 4.349.114 6.932-.078 2.902-.216 5.163-1.684 6.808-4.429l.536.322c-1.746 2.914-4.187 4.499-7.298 4.73-2.788.207-5.267.223-7.437.048l-.031.038c-.77.935-2.21 2.16-4.336 3.694.09.145.172.297.25.456 1.003 2.07 1.37 6.939 1.148 14.732l-1.25-.035c.216-7.577-.142-12.335-1.023-14.15-.6-1.236-1.788-1.93-4.822-3.1l-.412-.158c-1.635-.631-2.63-1.07-3.47-1.6-2.156-.484-4.09-1.063-5.8-1.735-2.092-.822-3.815-3.455-5.213-7.883l.596-.188c1.346 4.264 2.976 6.755 4.845 7.49 1.322.518 2.782.982 4.38 1.388z"/>
            <circle cx="12.816" cy="11.253" r="1.563" fill="#E4C66B"/>
            <circle cx="26.426" cy="6.562" r="1.563" fill="#E4C66B"/>
            <circle cx="29.552" cy="15.145" r="1.563" fill="#E4C66B"/>
            <circle cx="37.823" cy="27.739" r="1.563" fill="#E4C66B"/>
            <circle cx="2.813" cy="19.693" r="1.563" fill="#E4C66B"/>
          </g>
          <g transform="translate(468.143 62.356)">
            <path fill="#45A862" d="M25.92 32.8c-3.348 0-2.705-2.198-5.226-2.198-2.522 0-5.472 4.397-9.633 2.198-4.16-2.198-2.365-5.88-4.16-6.93-1.794-1.048-5.002.303-6.378-4.457-1.375-4.76-.079-7.87 4.37-9.18 4.448-1.31.026-4.004 3.466-6.388 3.44-2.383 5.3.942 7.389-.791C17.838 3.321 17.166 0 22.578 0s4.575 2.921 7.903 2.921c3.328 0 5.839-2.923 9.302 0 3.464 2.924.957 5.101 4.776 6.736 3.819 1.635 7.873 4.882 5.97 10.094-1.902 5.211-5.91 2.99-7.282 5.211-1.372 2.221-.107 5.64-5.09 6.739-4.983 1.099-5.598-2.199-7.676-1.1-2.08 1.1-1.213 2.199-4.561 2.199z"/>
            <path fill="#193215" fill-rule="nonzero" d="M16.4 24.256c-.761-.768-1.303-1.772-1.657-2.953-.426-1.417-.537-2.882-.479-4.128.005-.1.01-.172.013-.214l1.246.106a4.968 4.968 0 0 0-.01.167c-.052 1.116.05 2.451.427 3.71.153.509.344.973.575 1.387 1.968-1.873 3.202-3.544 3.705-5.002.564-1.635.868-3.79.909-6.464l.625.01c-.042 2.734-.355 4.953-.943 6.658-.548 1.59-1.867 3.365-3.953 5.335.257.352.552.655.887.905.863.644 1.836 1.1 3.768 1.845l.41.158c.753.29 1.404.555 1.971.81-.387-1.801-.422-4.97-.15-9.59l.623.037c-.298 5.074-.195 8.414.236 9.888.745.374 1.316.742 1.767 1.154 2.083-1.5 3.478-2.682 4.171-3.525.273-.331.532-.68.78-1.043.624-.917 1.14-1.876 1.65-2.998.01-.024.777-1.791.94-2.075.714-1.253 1.112-4.732 1.132-10.309l1.25.005c-.017 4.85-.307 8.16-.905 10.002 1.807-.128 3.312-.59 4.519-1.38 1.44-.941 2.573-2.408 3.4-4.409l.577.24c-.872 2.11-2.083 3.678-3.635 4.693-1.368.895-3.072 1.393-5.109 1.498-.046.1-.094.193-.144.28-.122.214-.842 1.872-.887 1.973-.538 1.181-1.085 2.2-1.754 3.183-.117.171-.236.34-.358.504 2.038.14 4.349.114 6.932-.078 2.902-.216 5.163-1.684 6.808-4.429l.536.322c-1.746 2.914-4.187 4.499-7.298 4.73-2.788.207-5.267.223-7.437.048l-.031.038c-.77.935-2.21 2.16-4.336 3.694.09.145.172.297.25.456 1.003 2.07 1.37 6.939 1.148 14.732l-1.25-.035c.216-7.577-.142-12.335-1.023-14.15-.6-1.236-1.788-1.93-4.822-3.1l-.412-.158c-1.635-.631-2.63-1.07-3.47-1.6-2.156-.484-4.09-1.063-5.8-1.735-2.092-.822-3.815-3.455-5.213-7.883l.596-.188c1.346 4.264 2.976 6.755 4.845 7.49 1.322.518 2.782.982 4.38 1.388z"/>
            <circle cx="13.598" cy="12.035" r="2.344" fill="#C6DD40"/>
            <circle cx="42.928" cy="13.598" r="1.563" fill="#C6DD40"/>
            <circle cx="14.379" cy="29.302" r="1.563" fill="#C6DD40"/>
            <circle cx="36.077" cy="24.613" r="1.563" fill="#C6DD40"/>
            <circle cx="26.426" cy="21.487" r="1.563" fill="#C6DD40"/>
          </g>
          <g transform="translate(484.218 112.274)">
            <path fill="#45A862" d="M25.92 32.8c-3.348 0-2.705-2.198-5.226-2.198-2.522 0-5.472 4.397-9.633 2.198-4.16-2.198-2.365-5.88-4.16-6.93-1.794-1.048-5.002.303-6.378-4.457-1.375-4.76-.079-7.87 4.37-9.18 4.448-1.31.026-4.004 3.466-6.388 3.44-2.383 5.3.942 7.389-.791C17.838 3.321 17.166 0 22.578 0s4.575 2.921 7.903 2.921c3.328 0 5.839-2.923 9.302 0 3.464 2.924.957 5.101 4.776 6.736 3.819 1.635 7.873 4.882 5.97 10.094-1.902 5.211-5.91 2.99-7.282 5.211-1.372 2.221-.107 5.64-5.09 6.739-4.983 1.099-5.598-2.199-7.676-1.1-2.08 1.1-1.213 2.199-4.561 2.199z"/>
            <path fill="#193215" fill-rule="nonzero" d="M16.4 24.256c-.761-.768-1.303-1.772-1.657-2.953-.426-1.417-.537-2.882-.479-4.128.005-.1.01-.172.013-.214l1.246.106a4.968 4.968 0 0 0-.01.167c-.052 1.116.05 2.451.427 3.71.153.509.344.973.575 1.387 1.968-1.873 3.202-3.544 3.705-5.002.564-1.635.868-3.79.909-6.464l.625.01c-.042 2.734-.355 4.953-.943 6.658-.548 1.59-1.867 3.365-3.953 5.335.257.352.552.655.887.905.863.644 1.836 1.1 3.768 1.845l.41.158c.753.29 1.404.555 1.971.81-.387-1.801-.422-4.97-.15-9.59l.623.037c-.298 5.074-.195 8.414.236 9.888.745.374 1.316.742 1.767 1.154 2.083-1.5 3.478-2.682 4.171-3.525.273-.331.532-.68.78-1.043.624-.917 1.14-1.876 1.65-2.998.01-.024.777-1.791.94-2.075.714-1.253 1.112-4.732 1.132-10.309l1.25.005c-.017 4.85-.307 8.16-.905 10.002 1.807-.128 3.312-.59 4.519-1.38 1.44-.941 2.573-2.408 3.4-4.409l.577.24c-.872 2.11-2.083 3.678-3.635 4.693-1.368.895-3.072 1.393-5.109 1.498-.046.1-.094.193-.144.28-.122.214-.842 1.872-.887 1.973-.538 1.181-1.085 2.2-1.754 3.183-.117.171-.236.34-.358.504 2.038.14 4.349.114 6.932-.078 2.902-.216 5.163-1.684 6.808-4.429l.536.322c-1.746 2.914-4.187 4.499-7.298 4.73-2.788.207-5.267.223-7.437.048l-.031.038c-.77.935-2.21 2.16-4.336 3.694.09.145.172.297.25.456 1.003 2.07 1.37 6.939 1.148 14.732l-1.25-.035c.216-7.577-.142-12.335-1.023-14.15-.6-1.236-1.788-1.93-4.822-3.1l-.412-.158c-1.635-.631-2.63-1.07-3.47-1.6-2.156-.484-4.09-1.063-5.8-1.735-2.092-.822-3.815-3.455-5.213-7.883l.596-.188c1.346 4.264 2.976 6.755 4.845 7.49 1.322.518 2.782.982 4.38 1.388z"/>
            <circle cx="13.598" cy="12.035" r="2.344" fill="#C6DD40"/>
            <circle cx="42.928" cy="13.598" r="1.563" fill="#C6DD40"/>
            <circle cx="14.379" cy="29.302" r="1.563" fill="#C6DD40"/>
            <circle cx="36.077" cy="24.613" r="1.563" fill="#C6DD40"/>
            <circle cx="26.426" cy="21.487" r="1.563" fill="#C6DD40"/>
          </g>
          <g transform="translate(501.305 157.254)">
            <path fill="#49925B" d="M25.92 32.8c-3.348 0-2.705-2.198-5.226-2.198-2.522 0-5.472 4.397-9.633 2.198-4.16-2.198-2.365-5.88-4.16-6.93-1.794-1.048-5.002.303-6.378-4.457-1.375-4.76-.079-7.87 4.37-9.18 4.448-1.31.026-4.004 3.466-6.388 3.44-2.383 5.3.942 7.389-.791C17.838 3.321 17.166 0 22.578 0s4.575 2.921 7.903 2.921c3.328 0 5.839-2.923 9.302 0 3.464 2.924.957 5.101 4.776 6.736 3.819 1.635 7.873 4.882 5.97 10.094-1.902 5.211-5.91 2.99-7.282 5.211-1.372 2.221-.107 5.64-5.09 6.739-4.983 1.099-5.598-2.199-7.676-1.1-2.08 1.1-1.213 2.199-4.561 2.199z"/>
            <path fill="#193215" fill-rule="nonzero" d="M16.4 24.256c-.761-.768-1.303-1.772-1.657-2.953-.426-1.417-.537-2.882-.479-4.128.005-.1.01-.172.013-.214l1.246.106a4.968 4.968 0 0 0-.01.167c-.052 1.116.05 2.451.427 3.71.153.509.344.973.575 1.387 1.968-1.873 3.202-3.544 3.705-5.002.564-1.635.868-3.79.909-6.464l.625.01c-.042 2.734-.355 4.953-.943 6.658-.548 1.59-1.867 3.365-3.953 5.335.257.352.552.655.887.905.863.644 1.836 1.1 3.768 1.845l.41.158c.753.29 1.404.555 1.971.81-.387-1.801-.422-4.97-.15-9.59l.623.037c-.298 5.074-.195 8.414.236 9.888.745.374 1.316.742 1.767 1.154 2.083-1.5 3.478-2.682 4.171-3.525.273-.331.532-.68.78-1.043.624-.917 1.14-1.876 1.65-2.998.01-.024.777-1.791.94-2.075.714-1.253 1.112-4.732 1.132-10.309l1.25.005c-.017 4.85-.307 8.16-.905 10.002 1.807-.128 3.312-.59 4.519-1.38 1.44-.941 2.573-2.408 3.4-4.409l.577.24c-.872 2.11-2.083 3.678-3.635 4.693-1.368.895-3.072 1.393-5.109 1.498-.046.1-.094.193-.144.28-.122.214-.842 1.872-.887 1.973-.538 1.181-1.085 2.2-1.754 3.183-.117.171-.236.34-.358.504 2.038.14 4.349.114 6.932-.078 2.902-.216 5.163-1.684 6.808-4.429l.536.322c-1.746 2.914-4.187 4.499-7.298 4.73-2.788.207-5.267.223-7.437.048l-.031.038c-.77.935-2.21 2.16-4.336 3.694.09.145.172.297.25.456 1.003 2.07 1.37 6.939 1.148 14.732l-1.25-.035c.216-7.577-.142-12.335-1.023-14.15-.6-1.236-1.788-1.93-4.822-3.1l-.412-.158c-1.635-.631-2.63-1.07-3.47-1.6-2.156-.484-4.09-1.063-5.8-1.735-2.092-.822-3.815-3.455-5.213-7.883l.596-.188c1.346 4.264 2.976 6.755 4.845 7.49 1.322.518 2.782.982 4.38 1.388z"/>
            <circle cx="12.816" cy="11.253" r="1.563" fill="#E4C66B"/>
            <circle cx="27.989" cy="15.145" r="1.563" fill="#E4C66B"/>
            <circle cx="39.386" cy="8.127" r="1.563" fill="#E4C66B"/>
            <circle cx="37.823" cy="27.739" r="1.563" fill="#E4C66B"/>
            <circle cx="2.813" cy="19.693" r="1.563" fill="#E4C66B"/>
          </g>
          <g transform="translate(599.09 70.826)">
            <path fill="#49925B" d="M25.92 32.8c-3.348 0-2.705-2.198-5.226-2.198-2.522 0-5.472 4.397-9.633 2.198-4.16-2.198-2.365-5.88-4.16-6.93-1.794-1.048-5.002.303-6.378-4.457-1.375-4.76-.079-7.87 4.37-9.18 4.448-1.31.026-4.004 3.466-6.388 3.44-2.383 5.3.942 7.389-.791C17.838 3.321 17.166 0 22.578 0s4.575 2.921 7.903 2.921c3.328 0 5.839-2.923 9.302 0 3.464 2.924.957 5.101 4.776 6.736 3.819 1.635 7.873 4.882 5.97 10.094-1.902 5.211-5.91 2.99-7.282 5.211-1.372 2.221-.107 5.64-5.09 6.739-4.983 1.099-5.598-2.199-7.676-1.1-2.08 1.1-1.213 2.199-4.561 2.199z"/>
            <path fill="#193215" fill-rule="nonzero" d="M16.4 24.256c-.761-.768-1.303-1.772-1.657-2.953-.426-1.417-.537-2.882-.479-4.128.005-.1.01-.172.013-.214l1.246.106a4.968 4.968 0 0 0-.01.167c-.052 1.116.05 2.451.427 3.71.153.509.344.973.575 1.387 1.968-1.873 3.202-3.544 3.705-5.002.564-1.635.868-3.79.909-6.464l.625.01c-.042 2.734-.355 4.953-.943 6.658-.548 1.59-1.867 3.365-3.953 5.335.257.352.552.655.887.905.863.644 1.836 1.1 3.768 1.845l.41.158c.753.29 1.404.555 1.971.81-.387-1.801-.422-4.97-.15-9.59l.623.037c-.298 5.074-.195 8.414.236 9.888.745.374 1.316.742 1.767 1.154 2.083-1.5 3.478-2.682 4.171-3.525.273-.331.532-.68.78-1.043.624-.917 1.14-1.876 1.65-2.998.01-.024.777-1.791.94-2.075.714-1.253 1.112-4.732 1.132-10.309l1.25.005c-.017 4.85-.307 8.16-.905 10.002 1.807-.128 3.312-.59 4.519-1.38 1.44-.941 2.573-2.408 3.4-4.409l.577.24c-.872 2.11-2.083 3.678-3.635 4.693-1.368.895-3.072 1.393-5.109 1.498-.046.1-.094.193-.144.28-.122.214-.842 1.872-.887 1.973-.538 1.181-1.085 2.2-1.754 3.183-.117.171-.236.34-.358.504 2.038.14 4.349.114 6.932-.078 2.902-.216 5.163-1.684 6.808-4.429l.536.322c-1.746 2.914-4.187 4.499-7.298 4.73-2.788.207-5.267.223-7.437.048l-.031.038c-.77.935-2.21 2.16-4.336 3.694.09.145.172.297.25.456 1.003 2.07 1.37 6.939 1.148 14.732l-1.25-.035c.216-7.577-.142-12.335-1.023-14.15-.6-1.236-1.788-1.93-4.822-3.1l-.412-.158c-1.635-.631-2.63-1.07-3.47-1.6-2.156-.484-4.09-1.063-5.8-1.735-2.092-.822-3.815-3.455-5.213-7.883l.596-.188c1.346 4.264 2.976 6.755 4.845 7.49 1.322.518 2.782.982 4.38 1.388z"/>
            <circle cx="12.816" cy="11.253" r="1.563" fill="#E4C66B"/>
            <circle cx="2.813" cy="19.693" r="1.563" fill="#E4C66B"/>
          </g>
          <g transform="translate(545.897 110.221)">
            <path fill="#4FAB6E" d="M25.92 32.8c-3.348 0-2.705-2.198-5.226-2.198-2.522 0-5.472 4.397-9.633 2.198-4.16-2.198-2.365-5.88-4.16-6.93-1.794-1.048-5.002.303-6.378-4.457-1.375-4.76-.079-7.87 4.37-9.18 4.448-1.31.026-4.004 3.466-6.388 3.44-2.383 5.3.942 7.389-.791C17.838 3.321 17.166 0 22.578 0s4.575 2.921 7.903 2.921c3.328 0 5.839-2.923 9.302 0 3.464 2.924.957 5.101 4.776 6.736 3.819 1.635 7.873 4.882 5.97 10.094-1.902 5.211-5.91 2.99-7.282 5.211-1.372 2.221-.107 5.64-5.09 6.739-4.983 1.099-5.598-2.199-7.676-1.1-2.08 1.1-1.213 2.199-4.561 2.199z"/>
            <path fill="#193215" fill-rule="nonzero" d="M16.4 24.256c-.761-.768-1.303-1.772-1.657-2.953-.426-1.417-.537-2.882-.479-4.128.005-.1.01-.172.013-.214l1.246.106a4.968 4.968 0 0 0-.01.167c-.052 1.116.05 2.451.427 3.71.153.509.344.973.575 1.387 1.968-1.873 3.202-3.544 3.705-5.002.564-1.635.868-3.79.909-6.464l.625.01c-.042 2.734-.355 4.953-.943 6.658-.548 1.59-1.867 3.365-3.953 5.335.257.352.552.655.887.905.863.644 1.836 1.1 3.768 1.845l.41.158c.753.29 1.404.555 1.971.81-.387-1.801-.422-4.97-.15-9.59l.623.037c-.298 5.074-.195 8.414.236 9.888.745.374 1.316.742 1.767 1.154 2.083-1.5 3.478-2.682 4.171-3.525.273-.331.532-.68.78-1.043.624-.917 1.14-1.876 1.65-2.998.01-.024.777-1.791.94-2.075.714-1.253 1.112-4.732 1.132-10.309l1.25.005c-.017 4.85-.307 8.16-.905 10.002 1.807-.128 3.312-.59 4.519-1.38 1.44-.941 2.573-2.408 3.4-4.409l.577.24c-.872 2.11-2.083 3.678-3.635 4.693-1.368.895-3.072 1.393-5.109 1.498-.046.1-.094.193-.144.28-.122.214-.842 1.872-.887 1.973-.538 1.181-1.085 2.2-1.754 3.183-.117.171-.236.34-.358.504 2.038.14 4.349.114 6.932-.078 2.902-.216 5.163-1.684 6.808-4.429l.536.322c-1.746 2.914-4.187 4.499-7.298 4.73-2.788.207-5.267.223-7.437.048l-.031.038c-.77.935-2.21 2.16-4.336 3.694.09.145.172.297.25.456 1.003 2.07 1.37 6.939 1.148 14.732l-1.25-.035c.216-7.577-.142-12.335-1.023-14.15-.6-1.236-1.788-1.93-4.822-3.1l-.412-.158c-1.635-.631-2.63-1.07-3.47-1.6-2.156-.484-4.09-1.063-5.8-1.735-2.092-.822-3.815-3.455-5.213-7.883l.596-.188c1.346 4.264 2.976 6.755 4.845 7.49 1.322.518 2.782.982 4.38 1.388z"/>
            <circle cx="12.816" cy="11.253" r="1.563" fill="#E9AE3D"/>
            <circle cx="27.989" cy="15.145" r="1.563" fill="#E9AE3D"/>
            <circle cx="39.386" cy="8.127" r="1.563" fill="#E9AE3D"/>
            <circle cx="37.823" cy="27.739" r="1.563" fill="#E9AE3D"/>
            <circle cx="2.813" cy="19.693" r="1.563" fill="#E9AE3D"/>
          </g>
          <path fill="#7DC575" d="M593.287 100.885a3.722 3.722 0 0 1 3.723 3.722v.54h-7.445v-.54a3.722 3.722 0 0 1 3.722-3.722zM610.36 143.53a3.722 3.722 0 0 1 3.722 3.722v.541h-7.445v-.54a3.722 3.722 0 0 1 3.722-3.723zM583.286 95.112a3.722 3.722 0 0 1 3.722 3.723v.54h-7.444v-.54a3.722 3.722 0 0 1 3.722-3.723z"/>
          <path fill="#7DC575" d="M583.286 95.112a3.722 3.722 0 0 1 3.722 3.723v.54h-7.444v-.54a3.722 3.722 0 0 1 3.722-3.723z"/>
          <g transform="translate(526.861 208.292)">
            <path fill="#4FAB6E" d="M25.92 32.8c-3.348 0-2.705-2.198-5.226-2.198-2.522 0-5.472 4.397-9.633 2.198-4.16-2.198-2.365-5.88-4.16-6.93-1.794-1.048-5.002.303-6.378-4.457-1.375-4.76-.079-7.87 4.37-9.18 4.448-1.31.026-4.004 3.466-6.388 3.44-2.383 5.3.942 7.389-.791C17.838 3.321 17.166 0 22.578 0s4.575 2.921 7.903 2.921c3.328 0 5.839-2.923 9.302 0 3.464 2.924.957 5.101 4.776 6.736 3.819 1.635 7.873 4.882 5.97 10.094-1.902 5.211-5.91 2.99-7.282 5.211-1.372 2.221-.107 5.64-5.09 6.739-4.983 1.099-5.598-2.199-7.676-1.1-2.08 1.1-1.213 2.199-4.561 2.199z"/>
            <path fill="#193215" fill-rule="nonzero" d="M16.4 24.256c-.761-.768-1.303-1.772-1.657-2.953-.426-1.417-.537-2.882-.479-4.128.005-.1.01-.172.013-.214l1.246.106a4.968 4.968 0 0 0-.01.167c-.052 1.116.05 2.451.427 3.71.153.509.344.973.575 1.387 1.968-1.873 3.202-3.544 3.705-5.002.564-1.635.868-3.79.909-6.464l.625.01c-.042 2.734-.355 4.953-.943 6.658-.548 1.59-1.867 3.365-3.953 5.335.257.352.552.655.887.905.863.644 1.836 1.1 3.768 1.845l.41.158c.753.29 1.404.555 1.971.81-.387-1.801-.422-4.97-.15-9.59l.623.037c-.298 5.074-.195 8.414.236 9.888.745.374 1.316.742 1.767 1.154 2.083-1.5 3.478-2.682 4.171-3.525.273-.331.532-.68.78-1.043.624-.917 1.14-1.876 1.65-2.998.01-.024.777-1.791.94-2.075.714-1.253 1.112-4.732 1.132-10.309l1.25.005c-.017 4.85-.307 8.16-.905 10.002 1.807-.128 3.312-.59 4.519-1.38 1.44-.941 2.573-2.408 3.4-4.409l.577.24c-.872 2.11-2.083 3.678-3.635 4.693-1.368.895-3.072 1.393-5.109 1.498-.046.1-.094.193-.144.28-.122.214-.842 1.872-.887 1.973-.538 1.181-1.085 2.2-1.754 3.183-.117.171-.236.34-.358.504 2.038.14 4.349.114 6.932-.078 2.902-.216 5.163-1.684 6.808-4.429l.536.322c-1.746 2.914-4.187 4.499-7.298 4.73-2.788.207-5.267.223-7.437.048l-.031.038c-.77.935-2.21 2.16-4.336 3.694.09.145.172.297.25.456 1.003 2.07 1.37 6.939 1.148 14.732l-1.25-.035c.216-7.577-.142-12.335-1.023-14.15-.6-1.236-1.788-1.93-4.822-3.1l-.412-.158c-1.635-.631-2.63-1.07-3.47-1.6-2.156-.484-4.09-1.063-5.8-1.735-2.092-.822-3.815-3.455-5.213-7.883l.596-.188c1.346 4.264 2.976 6.755 4.845 7.49 1.322.518 2.782.982 4.38 1.388z"/>
            <circle cx="12.816" cy="11.253" r="1.563" fill="#E4C66B"/>
            <circle cx="27.989" cy="15.145" r="1.563" fill="#E4C66B"/>
            <circle cx="39.386" cy="8.127" r="1.563" fill="#E4C66B"/>
            <circle cx="37.823" cy="27.739" r="1.563" fill="#E4C66B"/>
            <circle cx="2.813" cy="19.693" r="1.563" fill="#E4C66B"/>
          </g>
          <g transform="translate(568.746 152.78)">
            <path fill="#45A862" d="M25.92 32.8c-3.348 0-2.705-2.198-5.226-2.198-2.522 0-5.472 4.397-9.633 2.198-4.16-2.198-2.365-5.88-4.16-6.93-1.794-1.048-5.002.303-6.378-4.457-1.375-4.76-.079-7.87 4.37-9.18 4.448-1.31.026-4.004 3.466-6.388 3.44-2.383 5.3.942 7.389-.791C17.838 3.321 17.166 0 22.578 0s4.575 2.921 7.903 2.921c3.328 0 5.839-2.923 9.302 0 3.464 2.924.957 5.101 4.776 6.736 3.819 1.635 7.873 4.882 5.97 10.094-1.902 5.211-5.91 2.99-7.282 5.211-1.372 2.221-.107 5.64-5.09 6.739-4.983 1.099-5.598-2.199-7.676-1.1-2.08 1.1-1.213 2.199-4.561 2.199z"/>
            <path fill="#193215" fill-rule="nonzero" d="M16.4 24.256c-.761-.768-1.303-1.772-1.657-2.953-.426-1.417-.537-2.882-.479-4.128.005-.1.01-.172.013-.214l1.246.106a4.968 4.968 0 0 0-.01.167c-.052 1.116.05 2.451.427 3.71.153.509.344.973.575 1.387 1.968-1.873 3.202-3.544 3.705-5.002.564-1.635.868-3.79.909-6.464l.625.01c-.042 2.734-.355 4.953-.943 6.658-.548 1.59-1.867 3.365-3.953 5.335.257.352.552.655.887.905.863.644 1.836 1.1 3.768 1.845l.41.158c.753.29 1.404.555 1.971.81-.387-1.801-.422-4.97-.15-9.59l.623.037c-.298 5.074-.195 8.414.236 9.888.745.374 1.316.742 1.767 1.154 2.083-1.5 3.478-2.682 4.171-3.525.273-.331.532-.68.78-1.043.624-.917 1.14-1.876 1.65-2.998.01-.024.777-1.791.94-2.075.714-1.253 1.112-4.732 1.132-10.309l1.25.005c-.017 4.85-.307 8.16-.905 10.002 1.807-.128 3.312-.59 4.519-1.38 1.44-.941 2.573-2.408 3.4-4.409l.577.24c-.872 2.11-2.083 3.678-3.635 4.693-1.368.895-3.072 1.393-5.109 1.498-.046.1-.094.193-.144.28-.122.214-.842 1.872-.887 1.973-.538 1.181-1.085 2.2-1.754 3.183-.117.171-.236.34-.358.504 2.038.14 4.349.114 6.932-.078 2.902-.216 5.163-1.684 6.808-4.429l.536.322c-1.746 2.914-4.187 4.499-7.298 4.73-2.788.207-5.267.223-7.437.048l-.031.038c-.77.935-2.21 2.16-4.336 3.694.09.145.172.297.25.456 1.003 2.07 1.37 6.939 1.148 14.732l-1.25-.035c.216-7.577-.142-12.335-1.023-14.15-.6-1.236-1.788-1.93-4.822-3.1l-.412-.158c-1.635-.631-2.63-1.07-3.47-1.6-2.156-.484-4.09-1.063-5.8-1.735-2.092-.822-3.815-3.455-5.213-7.883l.596-.188c1.346 4.264 2.976 6.755 4.845 7.49 1.322.518 2.782.982 4.38 1.388z"/>
            <circle cx="13.598" cy="12.035" r="2.344" fill="#C6DD40"/>
            <circle cx="42.928" cy="13.598" r="1.563" fill="#C6DD40"/>
            <circle cx="14.379" cy="29.302" r="1.563" fill="#C6DD40"/>
            <circle cx="36.077" cy="24.613" r="1.563" fill="#C6DD40"/>
            <circle cx="26.426" cy="21.487" r="1.563" fill="#C6DD40"/>
          </g>
          <g>
            <path fill="#50B268" d="M535.385 71.139c-.317-3.164.7-6.613 5.046-7.477 4.346-.865 8.277.78 10.688-2.71 2.411-3.49 3.184-9.049 10.856-9.049 7.673 0 9.43 6.83 12.372 9.067 2.94 2.238 6.452 2.692 9.723 2.692 3.272 0 6.389 4.98 5.646 7.477-.742 2.497-.373 6.612-6.762 6.612-6.39 0-7.75.455-9.982 4.113-2.231 3.658-6.37 6.726-9.649 6.726-3.28 0-6.377-.883-10.059-5.86-3.682-4.979-6.865-4.979-11.42-4.979-4.556 0-6.142-3.448-6.46-6.612z"/>
            <path fill="#142B10" fill-rule="nonzero" d="M561.936 82.89v-9.514c-1.639-.217-2.952-.94-3.922-2.168-1.07-1.355-1.748-3.126-2.038-5.31l.638-.084c.275 2.075.912 3.738 1.905 4.995.846 1.072 1.98 1.71 3.417 1.918v-18.24h1.286v9.829c.946-1.19 1.96-1.798 3.046-1.798h3.192v.643h-3.192c-1.04 0-2.059.74-3.046 2.257v14.507c3.478-.069 5.584-1.03 6.42-2.823 1.923-4.125 4.435-6.84 7.686-7.486 2.359-.469 4.824-.382 7.39.256l-.311 1.248c-2.386-.593-4.66-.673-6.828-.243-2.756.547-5.004 2.978-6.771 6.768-1.084 2.324-3.646 3.491-7.586 3.566v21.735h-1.286V84.217c-1.97-.474-3.659-1.272-5.061-2.396-1.005-.804-1.383-1.516-1.79-2.942-.443-1.557-.736-2.184-1.683-3.166-1.07-1.11-2.159-1.298-4.78-1.136l-.077.005c-1.835.114-2.646.098-3.635-.188-2.106-.608-3.487-2.052-4.09-4.262l1.24-.34c.488 1.785 1.539 2.884 3.207 3.366.797.23 1.514.245 3.198.14l.077-.005c2.977-.184 4.368.056 5.787 1.528 1.125 1.167 1.497 1.963 1.994 3.705.34 1.193.603 1.688 1.356 2.291 1.179.944 2.596 1.636 4.257 2.074z"/>
            <path fill="#AFFF97" d="M557 88.46c1.136 0 2.07-.92 2.07-2.056 0-.495-.59-.905-.883-1.55-.381-.834-.559-1.858-1.2-1.858-.702 0-.857.928-1.224 1.859-.228.576-.82 1.114-.82 1.549 0 1.136.921 2.057 2.057 2.057zM569.786 68.433c1.136 0 2.07-.92 2.07-2.057 0-.495-.59-.904-.884-1.549-.381-.834-.559-1.859-1.2-1.859-.701 0-.857.929-1.224 1.86-.228.575-.82 1.114-.82 1.548 0 1.136.922 2.057 2.058 2.057zM556.62 63.136a2.278 2.278 0 0 0 2.28-2.265c0-.545-.65-.996-.974-1.706-.42-.919-.615-2.048-1.32-2.048-.774 0-.945 1.023-1.35 2.048-.25.635-.902 1.228-.902 1.706a2.266 2.266 0 0 0 2.266 2.265z"/>
            <path fill="#1A7F4A" d="M557.848 58.319c.618.225 1.259.205 1.923-.06-.338-.63-.817-1.058-1.435-1.283-.927-.337-1.788-.31-1.923.06-.135.371.507.945 1.435 1.283z"/>
            <g>
              <path fill="#AEF67E" d="M547.41 71.888a2.036 2.036 0 0 0 2.037-2.025c0-.487-.58-.89-.87-1.524-.375-.822-.55-1.83-1.18-1.83-.691 0-.844.914-1.206 1.83-.224.567-.806 1.097-.806 1.524 0 1.119.906 2.025 2.024 2.025z"/>
              <path fill="#1A7F4A" d="M545.916 67.82c-.553.2-1.126.183-1.72-.054.303-.564.73-.946 1.283-1.147.828-.301 1.598-.277 1.718.054.121.332-.453.845-1.281 1.147zM567.57 75.102c-.552.2-1.125.183-1.719-.054.303-.563.73-.946 1.282-1.147.829-.301 1.598-.277 1.719.054.12.332-.453.845-1.282 1.147zM579.903 66.687c-.566-.162-1.018-.513-1.36-1.054.576-.278 1.146-.336 1.712-.174.847.243 1.456.715 1.358 1.054-.097.34-.863.417-1.71.174zM539.135 75.023c-.565-.162-1.018-.513-1.358-1.054.575-.278 1.145-.336 1.71-.174.848.243 1.456.715 1.36 1.054-.098.34-.864.417-1.712.174zM566.277 85.064c-.565-.162-1.018-.514-1.358-1.054.575-.278 1.145-.336 1.71-.174.848.243 1.457.715 1.36 1.054-.098.339-.864.417-1.712.174z"/>
            </g>
            <g>
              <path fill="#AEF67E" d="M583.513 76.059a2.036 2.036 0 0 0 2.038-2.025c0-.487-.58-.89-.87-1.525-.375-.821-.55-1.83-1.18-1.83-.691 0-.844.914-1.206 1.83-.224.567-.806 1.097-.806 1.525 0 1.118.906 2.025 2.024 2.025z"/>
              <path fill="#1A7F4A" d="M582.613 71.963c-.552.201-1.125.183-1.719-.054.303-.563.73-.945 1.282-1.146.829-.302 1.598-.278 1.719.054.12.331-.453.845-1.282 1.146z"/>
            </g>
          </g>
          <g>
            <path fill="#50B268" d="M587.062 223.16c-.317-3.164.7-6.612 5.046-7.477 4.346-.864 8.278.78 10.689-2.71 2.41-3.49 3.183-9.048 10.856-9.048s9.43 6.83 12.37 9.067c2.942 2.237 6.453 2.691 9.725 2.691 3.271 0 6.388 4.98 5.646 7.477-.742 2.498-.374 6.613-6.763 6.613-6.39 0-7.75.455-9.981 4.113-2.232 3.657-6.37 6.725-9.65 6.725-3.279 0-6.376-.882-10.058-5.86-3.682-4.978-6.866-4.978-11.421-4.978-4.556 0-6.142-3.449-6.459-6.613z"/>
            <path fill="#142B10" fill-rule="nonzero" d="M613.613 234.912v-9.514c-1.639-.217-2.952-.941-3.922-2.169-1.07-1.354-1.748-3.126-2.038-5.309l.638-.084c.275 2.075.912 3.738 1.905 4.994.847 1.072 1.98 1.71 3.417 1.918v-18.24h1.287v9.829c.946-1.19 1.959-1.797 3.045-1.797h3.193v.643h-3.193c-1.04 0-2.059.74-3.045 2.257v14.506c3.477-.068 5.583-1.03 6.42-2.823 1.922-4.125 4.434-6.84 7.686-7.486 2.358-.468 4.823-.381 7.389.256l-.31 1.249c-2.387-.594-4.661-.673-6.829-.243-2.756.547-5.004 2.977-6.77 6.768-1.084 2.324-3.647 3.49-7.586 3.565v21.735h-1.287V236.24c-1.97-.475-3.659-1.273-5.061-2.396-1.005-.805-1.382-1.516-1.789-2.942-.444-1.558-.737-2.185-1.683-3.166-1.071-1.111-2.16-1.298-4.781-1.136l-.077.005c-1.835.113-2.645.097-3.635-.189-2.106-.608-3.487-2.051-4.09-4.262l1.24-.339c.488 1.785 1.54 2.884 3.207 3.366.798.23 1.514.244 3.198.14l.077-.005c2.977-.184 4.368.055 5.787 1.527 1.125 1.168 1.497 1.963 1.994 3.706.34 1.193.603 1.687 1.356 2.29 1.179.945 2.596 1.637 4.257 2.074z"/>
            <path fill="#AFFF97" d="M608.678 240.482c1.136 0 2.07-.92 2.07-2.057 0-.495-.59-.904-.884-1.549-.381-.834-.559-1.859-1.2-1.859-.701 0-.857.929-1.224 1.86-.228.575-.82 1.114-.82 1.548 0 1.136.922 2.057 2.058 2.057zM608.297 215.158a2.278 2.278 0 0 0 2.28-2.266c0-.545-.65-.996-.973-1.705-.42-.92-.616-2.048-1.322-2.048-.772 0-.944 1.023-1.348 2.048-.25.634-.902 1.227-.902 1.705a2.266 2.266 0 0 0 2.265 2.266z"/>
            <path fill="#1A7F4A" d="M609.525 210.34c.618.225 1.259.205 1.923-.06-.338-.63-.816-1.058-1.434-1.283-.928-.337-1.789-.31-1.924.06-.134.372.508.946 1.435 1.283z"/>
            <g>
              <path fill="#AEF67E" d="M599.087 223.91a2.036 2.036 0 0 0 2.037-2.025c0-.487-.58-.89-.87-1.525-.375-.821-.55-1.83-1.18-1.83-.691 0-.844.914-1.206 1.83-.224.567-.806 1.097-.806 1.525 0 1.118.906 2.025 2.025 2.025z"/>
              <path fill="#1A7F4A" d="M597.593 219.841c-.553.201-1.126.183-1.719-.054.302-.563.73-.945 1.282-1.146.829-.302 1.598-.278 1.719.054.12.331-.454.844-1.282 1.146zM590.812 227.045c-.565-.162-1.018-.514-1.358-1.054.575-.278 1.145-.336 1.71-.174.848.243 1.457.715 1.36 1.054-.098.339-.864.417-1.712.174zM617.955 237.085c-.565-.162-1.018-.513-1.359-1.054.575-.278 1.146-.336 1.71-.174.848.244 1.457.715 1.36 1.054-.098.34-.864.417-1.711.174z"/>
            </g>
          </g>
          <g>
            <path fill="#38895B" d="M526.301 54.48c-4.627.493-8.462-.816-11.505-3.925-4.565-4.665-3.197-7.605-3.197-13.847 0-6.241-5.443-8.673-3.89-13.397 1.552-4.724 5.983-4.656 9.157-8.997 3.174-4.34 2.91-8.071 9.435-8.071s7.568 3.971 12.06 8.071c4.49 4.1 7.021 5.255 7.021 10.677 0 5.421-5.06 7.954-2.53 11.717 2.53 3.764.401 13.697-4.492 15.813-3.262 1.41-7.281 2.064-12.059 1.96z"/>
            <path fill="#193215" fill-rule="nonzero" d="M527.1 48.575c3.968-.557 6.358-1.953 7.26-4.14.189-.456.74-1.816.832-2.04.277-.672.478-1.126.678-1.521.7-1.383 1.448-2.085 2.934-2.732l.554 1.274c-1.19.518-1.695.993-2.248 2.085-.18.356-.369.782-.634 1.424-.09.219-.641 1.58-.831 2.04-1.139 2.758-4.019 4.412-8.544 5.012v26.327h-1.39v-31.3c-1.647-.16-3.511-.635-5.594-1.424-2.414-.915-4.063-3.13-4.952-6.604l.673-.172c.837 3.273 2.347 5.301 4.525 6.126 2 .758 3.784 1.216 5.349 1.376V33.51c-2.114-.18-4.221-.696-6.322-1.547-2.433-.987-3.967-2.919-4.568-5.722l1.359-.291c.506 2.366 1.738 3.917 3.731 4.725 1.934.785 3.867 1.264 5.8 1.44V18.536h1.389v9.462c3.688-.923 6.119-1.992 7.265-3.158 1.187-1.208 1.71-3.283 1.514-6.258l1.386-.092c.22 3.333-.398 5.786-1.91 7.323-1.405 1.43-4.148 2.618-8.255 3.616v8.301l3.507-2.993.45.528-3.957 3.378v9.932z"/>
          </g>
          <g transform="translate(353.81 134.5)">
            <path fill="#CFAA7B" d="M29.31 9.993l1.106 24.375h3.854l6.16-18.308c-1.155-3.285-2.429-5.307-3.82-6.067-1.392-.759-3.825-.759-7.3 0z"/>
            <path fill="#6E8566" d="M39.02 13.824c.175.83.34 3.522.494 8.072l-11.028-.366c.98-6.762 2.945-10.358 5.892-10.79 4.422-.645 4.378 1.838 4.642 3.084z"/>
            <path fill="#0D453C" d="M39.807 20.247c-1.547 4.96-2.32 8.579-2.32 10.856 0 2.278 2.444 11.029 7.333 26.253h1.517L44.82 30.339h1.517c.922 6.33 2.036 10.999 3.343 14.005 1.307 3.006 2.935 7.343 4.885 13.012h1.523c-1.743-13.776-2.615-22.154-2.615-25.133 0-2.98.364-6.971 1.092-11.976H39.807z"/>
            <path fill="#09242D" d="M40.43 46.67h5.76l1.162 15.039H40.43a9.507 9.507 0 0 1 3.009-2.238c1.164-.555 1.689-.908 1.575-1.06L40.43 46.67zM50.043 46.67h5.759l1.163 15.039h-6.922a9.507 9.507 0 0 1 3.009-2.238c1.164-.555 1.689-.908 1.575-1.06L50.043 46.67z"/>
            <g transform="translate(28.953 6.101)">
              <mask id="h" fill="#fff">
                <use xlink:href="#g"/>
              </mask>
              <use fill="#0D453C" xlink:href="#g"/>
              <path fill="#0D453C" d="M.82 9.972l9.755 5.217h17.759l-2.268-16.56L7.202-.135c-.423 1.533-.635 2.512-.635 2.935 0 .634 1.726 4.462-1.796 4.813C2.422 7.847.843 7.249.033 5.819c-.105 1.118-.105 1.953 0 2.506.105.554.367 1.103.786 1.647z" mask="url(#h)"/>
            </g>
            <path fill="#CFAA7B" d="M40.604 5.036c-4.659 1.053-4.659 3.803-2.944 6.552 1.144 1.832 6.158 2.749 15.041 2.749v6.204h3.56c2.105-6.406 2.397-10.468.878-12.189-2.28-2.58-11.877-4.368-16.535-3.316z"/>
            <path fill="#6E8566" d="M39.29 4.866c.828-.19 3.515-.402 8.062-.635l-.173 11.033C40.401 14.4 36.771 12.5 36.29 9.56c-.724-4.409 1.76-4.409 3.001-4.694z"/>
            <g transform="translate(24.208)">
              <circle cx="6.208" cy="6.14" r="3.854" fill="#EACAB7"/>
              <path fill="#CFB076" fill-rule="nonzero" d="M6.208 10.45a4.31 4.31 0 1 1 0-8.621 4.31 4.31 0 0 1 0 8.622zm0-.914a3.397 3.397 0 1 0 0-6.793 3.397 3.397 0 0 0 0 6.793z"/>
              <path fill="#CFB076" d="M9.59 15.483a4.489 4.489 0 0 0 0-8.978c-.945 0-1.797.614-2.52 1.114-1.173.81-1.968 1.842-1.968 3.375 0 2.48 2.01 4.49 4.489 4.49z"/>
              <path fill="#4F4F4F" d="M2.512 8.448a4.275 4.275 0 1 1 7.003-4.904L2.512 8.449z"/>
              <path fill="#616161" d="M1.987 6.436l5.91-3.986A1.112 1.112 0 0 1 9.14 4.294L3.23 8.28a1.112 1.112 0 1 1-1.243-1.844z"/>
            </g>
            <path fill="#615747" fill-rule="nonzero" d="M12.08 48.292a.549.549 0 0 1-.568-.939l59.486-35.98a.549.549 0 1 1 .568.938L12.08 48.292z"/>
            <circle cx="54.245" cy="21.896" r="2.72" fill="#CFAA7B"/>
            <circle cx="32.15" cy="35.422" r="2.72" fill="#CFAA7B"/>
            <path fill="#898989" fill-rule="nonzero" d="M15.067 46.533l.001.048.076 2.307c.024.733.035 1.099.035 1.182 0 .226-.074.325-.22.464-.052.049-.116.1-.197.16-.142.105-.345.242-.614.413-.525.335-1.307.807-2.348 1.417-2.075 1.216-5.185 2.986-9.33 5.31a.549.549 0 0 1-.537-.957c4.14-2.32 7.245-4.088 9.312-5.3a78.838 78.838 0 0 0 2.313-1.395c.227-.144.4-.26.518-.345l-.029-.914-.057-1.743-11.436 6.872c-.393.252-.694.203-.904-.146-.21-.349-.112-.64.292-.871l12.004-7.213a452.128 452.128 0 0 1-.07-2.324l-.095.045c-.561.268-1.416.738-2.56 1.407C8.92 46.298 5.46 48.445.845 51.39a.549.549 0 1 1-.59-.924c4.625-2.953 8.096-5.106 10.414-6.463 1.167-.683 2.045-1.165 2.639-1.45.317-.152.56-.251.745-.3a.91.91 0 0 1 .39-.033.598.598 0 0 1 .517.597c0 .232.022 1.015.064 2.358l4.113-2.471-.174 1.489-3.895 2.34z"/>
          </g>
          <path fill="#4F4F4F" d="M344.347 193.271a9.485 9.485 0 1 1 18.924 0h-18.924z"/>
          <path fill="#66A050" d="M353.886 183.59c-1.848-.228-3.083-.494-3.705-.799-2.642-1.293-3.038-3.133-1.405-4.346 1.535-1.14 3.186-.905 4.232 1.193.307.615.6 1.932.878 3.951zm0 0c.28-2.02.572-3.337.879-3.952 1.046-2.098 2.697-2.332 4.232-1.193 1.633 1.213 1.237 3.053-1.406 4.346-.621.305-1.856.57-3.705.798z"/>
          <g>
            <path fill="#C1AA76" d="M393.829 66.924l-2.15.535a.375.375 0 1 1-.181-.727l3.106-.775a1.125 1.125 0 1 1-.288 2.004l-.993.248a.375.375 0 0 1-.181-.728l.715-.178a1.123 1.123 0 0 1-.028-.38z"/>
            <path fill="#C2AA76" d="M417.145 48.644a2.904 2.904 0 1 0-1.776.606v1.32h3.214l-1.438-1.926z"/>
            <path fill="#4F4F4F" d="M418.273 46.347v-.057a2.904 2.904 0 1 0-5.807.057h5.807z"/>
            <path fill="#4F727C" d="M419.881 65.176c-6.512.206-10.24.681-11.186 1.425-1.418 1.116-2.303 2.488-2.303 4.521 0 1.355-.163 6.111-.488 14.267h1.921c1.962-2.564 3.2-4.526 3.712-5.888.513-1.361.513-2.686 0-3.973h6.16v8.9c0 .961.424 2.162 3.777 2.162 2.236 0 6.593-.204 13.073-.613v-2.77c-3.81-.67-6.577-1.004-8.304-1.004h-3.526c2.093-4.45 3.139-7.815 3.139-10.095 0-2.28-.347-4.309-1.04-6.084l-4.935-.848z"/>
            <path fill="#3E3E3E" d="M411.145 81.1a19.52 19.52 0 0 0 1.32-2.921l-6.41-1.383c-.093 2.61-.143 4.35-.151 5.219-.018 2.013.09 2.977 0 2.98-1.258.042-1.851.179-2.319.402-.67.322-1.215.933-1.634 1.836h6.096v-1.752c1.456-1.814 2.488-3.274 3.098-4.38z"/>
            <path fill="#F26F57" d="M408.047 87.233h-6.096v1h6.096z"/>
            <path fill="#03A678" d="M408.047 87.233h-6.096v1h6.096zM436.796 83.06v6.096h.546v-6.095z"/>
            <path fill="#3E3E3E" d="M434.558 83.06c-2.234-.552-3.777-.901-4.63-1.045-2.666-.453-4.123-.425-4.122-.338v5.556c5.862-1.007 8.805-1.403 8.826-1.189.069.671.178 1.164.328 1.478.321.671.933 1.216 1.836 1.634v-6.095h-2.238z"/>
            <path fill="#765342" d="M418.584 50.57c3.636 3.414 5.772 6.186 6.411 8.317.639 2.131.9 5.907.784 11.328-2.533-1.314-4.452-2.208-5.758-2.68-1.307-.472-3.033-.897-5.18-1.273v-6.205c-2.827 2.243-5.665 3.837-8.516 4.784-2.85.947-6.406 1.845-10.666 2.694v-1.273c6.86-2.59 11.563-5.312 14.106-8.169 2.544-2.856 4.383-5.364 5.517-7.522h3.302z"/>
            <path fill="#4F4F4F" d="M419.955 44.443c1.002 0 1.95 1.01 1.95 1.764s-.66.703 0 1.763 1.367.315 1.949 1.367c.581 1.053-.616 1.053 0 2.16.615 1.107 1.31.193 1.949 1.349.638 1.155-.608 1.155 0 2.178s1.562.402 1.949 1.101c.386.699-.617 4.984-3.564 4.984-.921 0-1.72-.188-2.398-.562-.768-.425-1.43-.97-1.835-1.996s.453-1.481 0-2.651c-.453-1.17-1.675-1.638-2.03-2.638-.356-1 .378-1.413 0-2.691-.38-1.278-1.441-2.15-1.444-2.73-.02-3.408 2.473-3.398 3.474-3.398z"/>
          </g>
        </g>
        <path fill="#50B265" d="M542.14 102.533h7.573s.327-2.848-1.242-2.848c-1.57 0-1.639.235-1.639-1.253s-2.169-1.367-2.581-.5c-.412.867-1.134.702-1.42.5-.53-.377-.265-1.475-1.414-1.475-1.38 0-.658 1.924-1.44 2.326-.781.402-1.238-.253-2.115 0-.876.253-1.247.86-2.022 1.674-.776.814-1.968.12-2.35.508-.38.386-.435 1.068 1.01 1.068h7.64z" mask="url(#d)"/>
      </g>
    </g>
  </g>
</svg>
