<svg xmlns="http://www.w3.org/2000/svg" xmlns:xlink="http://www.w3.org/1999/xlink" viewBox="0 0 360 235">
  <defs>
    <path id="a" d="M.5 0h360v239H.5z"/>
    <path id="c" d="M8.054 0c.857 1.453 1.368 2.475 1.533 3.067.371 1.337-.023 2.368.173 3.092.315 1.164 1.415 2.226 1.664 3.186.33 1.267-.215 2.357 0 3.27.25 1.061 1.162 2.11 1.387 3.144.238 1.095-.21 2.175 0 3.24.224 1.132.996 2.247 1.188 3.346.206 1.174-.17 2.33 0 3.465.152 1.013.661 2.041.793 3.084.132 1.041-.112 2.097 0 3.168.112 1.065.63 2.144.723 3.238.092 1.084-.24 2.182-.167 3.294.06.905.548 1.931.6 3.176.04.98-.354 2.111-.319 3.3.023.764.286 1.855.318 3.273.015.63-.04 1.723-.166 3.277H.326C.111 50.063.003 48.968 0 48.334c-.006-1.415.3-2.51.308-3.287C.32 43.865-.01 42.773.02 41.77c.037-1.21.437-2.292.5-3.243.073-1.083-.249-2.177-.15-3.282.096-1.062.612-2.134.732-3.217.116-1.039-.138-2.087 0-3.145.134-1.016.66-2.04.814-3.073.178-1.185-.198-2.36 0-3.522.197-1.15.968-2.288 1.185-3.415.214-1.112-.234-2.213 0-3.304.23-1.073 1.144-2.135 1.394-3.187.228-.957-.34-2.053 0-3.29.265-.965 1.415-2.016 1.749-3.151.208-.71-.394-1.656 0-2.942.174-.57.778-1.57 1.81-2.999z"/>
    <path id="e" d="M7.27 0c2.535 8.565 4.324 16.33 5.366 23.297 1.043 6.967 1.58 14.732 1.609 23.297H.295c-.3-7.14.179-14.906 1.435-23.297C2.986 14.907 4.832 7.141 7.27 0z"/>
    <path id="g" d="M7.27 0c2.535 8.565 4.324 16.33 5.366 23.297 1.043 6.967 1.58 14.732 1.609 23.297H.295c-.3-7.14.179-14.906 1.435-23.297C2.986 14.907 4.832 7.141 7.27 0z"/>
    <path id="i" d="M7.27 0c2.535 8.565 4.324 16.33 5.366 23.297 1.043 6.967 1.58 14.732 1.609 23.297H.295c-.3-7.14.179-14.906 1.435-23.297C2.986 14.907 4.832 7.141 7.27 0z"/>
    <path id="k" d="M0 14.06C66.848 4.788 125.268.15 175.26.15c28.497 0 154.836 16.682 270.486 16.482C560.052 16.435 575.668 4.158 637.5 4.226c39.458.044 87.768 3.322 144.93 9.835v176.317H0V14.061z"/>
    <path id="m" d="M8.893 0c.947 1.605 1.512 2.733 1.693 3.387.41 1.476-.025 2.615.192 3.414.348 1.285 1.561 2.458 1.837 3.518.364 1.4-.237 2.603 0 3.61.276 1.173 1.282 2.33 1.531 3.473.263 1.209-.232 2.401 0 3.577.248 1.25 1.1 2.482 1.313 3.695.227 1.297-.188 2.572 0 3.826.167 1.119.73 2.254.875 3.406.146 1.15-.124 2.316 0 3.499.124 1.175.696 2.367.798 3.575.102 1.196-.265 2.409-.184 3.637.066 1 .605 2.133.662 3.508.045 1.08-.39 2.33-.351 3.643.025.844.315 2.049.35 3.614.016.697-.045 1.903-.182 3.619H.36C.123 55.282.003 54.073 0 53.372c-.006-1.562.332-2.772.34-3.63.013-1.304-.35-2.51-.317-3.617.04-1.338.482-2.531.552-3.582.08-1.196-.276-2.404-.166-3.624.106-1.173.675-2.357.808-3.552.128-1.148-.153-2.305 0-3.473.148-1.122.728-2.253.9-3.394.195-1.309-.22-2.605 0-3.89.216-1.268 1.067-2.525 1.307-3.77.237-1.228-.259-2.444 0-3.648.255-1.184 1.264-2.358 1.54-3.52.251-1.056-.375-2.267 0-3.633.293-1.065 1.562-2.225 1.93-3.48.23-.783-.434-1.828 0-3.248.193-.63.86-1.733 2-3.311z"/>
    <linearGradient id="o" x1="14.385%" x2="72.438%" y1="40.454%" y2="21.042%">
      <stop offset="0%" stop-color="#9298A6"/>
      <stop offset="100%" stop-color="#8C92A1"/>
    </linearGradient>
    <path id="p" d="M5.813 3.041c2.962 0 5.373-.548 5.373-1.253 0-.704-2.411-1.299-5.373-1.299C2.852.489.49 1.132.49 1.837c0 .705 2.363 1.204 5.324 1.204z"/>
    <path id="r" d="M8.14 1c.866 1.468 1.382 2.502 1.548 3.1.376 1.351-.023 2.393.176 3.125.318 1.176 1.43 2.249 1.681 3.219.333 1.28-.217 2.382 0 3.305.253 1.072 1.174 2.131 1.402 3.177.24 1.107-.213 2.198 0 3.274.226 1.144 1.006 2.272 1.2 3.382.209 1.186-.171 2.354 0 3.501.154 1.024.668 2.063.802 3.118.133 1.051-.114 2.119 0 3.201.113 1.076.637 2.167.73 3.273.094 1.094-.242 2.204-.168 3.328.06.914.553 1.952.605 3.21.041.99-.357 2.133-.321 3.335.023.772.29 1.874.321 3.307.015.638-.041 1.742-.167 3.312H.329c-.216-1.573-.326-2.68-.33-3.32-.005-1.43.305-2.538.312-3.323.012-1.194-.32-2.297-.29-3.31.036-1.225.44-2.317.505-3.278.073-1.095-.252-2.2-.151-3.318.096-1.073.617-2.157.74-3.25.116-1.05-.141-2.11 0-3.18.134-1.026.665-2.06.822-3.105.179-1.197-.201-2.384 0-3.56.198-1.16.977-2.311 1.197-3.45.216-1.124-.237-2.237 0-3.339.233-1.084 1.156-2.158 1.409-3.221.23-.967-.343-2.075 0-3.325.268-.975 1.43-2.037 1.767-3.184.21-.718-.398-1.674 0-2.973.176-.577.786-1.587 1.83-3.031z"/>
    <path id="t" d="M8.14 1c.866 1.468 1.382 2.502 1.548 3.1.376 1.351-.023 2.393.176 3.125.318 1.176 1.43 2.249 1.681 3.219.333 1.28-.217 2.382 0 3.305.253 1.072 1.174 2.131 1.402 3.177.24 1.107-.213 2.198 0 3.274.226 1.144 1.006 2.272 1.2 3.382.209 1.186-.171 2.354 0 3.501.154 1.024.668 2.063.802 3.118.133 1.051-.114 2.119 0 3.201.113 1.076.637 2.167.73 3.273.094 1.094-.242 2.204-.168 3.328.06.914.553 1.952.605 3.21.041.99-.357 2.133-.321 3.335.023.772.29 1.874.321 3.307.015.638-.041 1.742-.167 3.312H.329c-.216-1.573-.326-2.68-.33-3.32-.005-1.43.305-2.538.312-3.323.012-1.194-.32-2.297-.29-3.31.036-1.225.44-2.317.505-3.278.073-1.095-.252-2.2-.151-3.318.096-1.073.617-2.157.74-3.25.116-1.05-.141-2.11 0-3.18.134-1.026.665-2.06.822-3.105.179-1.197-.201-2.384 0-3.56.198-1.16.977-2.311 1.197-3.45.216-1.124-.237-2.237 0-3.339.233-1.084 1.156-2.158 1.409-3.221.23-.967-.343-2.075 0-3.325.268-.975 1.43-2.037 1.767-3.184.21-.718-.398-1.674 0-2.973.176-.577.786-1.587 1.83-3.031z"/>
    <path id="v" d="M0 0h255.757v27.196H0z"/>
    <path id="x" d="M7.723 9.981c-.736.017-1.206.113-1.408.288-1.865 1.615-2.396 3.305-2.657 3.853-.46.965-3.105 1.73-3.13-.588-.025-2.318-.774-5.107.814-6.06 1.291-.777 3.402-4.346 4.84-5.87C6.554.888 7.212.364 8.712.19c1.936-.225 5.886.797 8.235.938 5.35.324 10.303-.938 13.076.31 1.733.78 2.202 4.058 1.406 9.835l.014-.005v2.733c0 1.025-.42 3.166-1.256 6.422h-2.134c1.422-1.87 2.134-3.45 2.134-4.742 0-1.09-.507-2.024-1.519-2.802-.396.062-.78.12-1.153.175V14c0 1.025-.419 3.166-1.256 6.422h-2.134c1.423-1.87 2.134-3.45 2.134-4.742 0-.872-.324-1.644-.973-2.317-2.074.268-3.64.402-4.698.402-2.124 0-3.906-.832-5.533-1.479v1.06c0 1.026-.419 3.186-1.256 6.48h-2.134c1.13-1.862 1.695-3.439 1.695-4.73 0-1.098.326-2.458-.54-3.505-.254-.049-.499-.087-.733-.116v1.928c0 1.025-.419 3.166-1.256 6.422H8.697c1.423-1.87 2.134-3.45 2.134-4.742 0-1.215-.824-2.292-2.083-3.37a.551.551 0 0 1-.116-.168c-.15-.241-.499-.813-.909-1.565z"/>
    <path id="z" d="M7.723 9.981c-.736.017-1.206.113-1.408.288-1.865 1.615-2.396 3.305-2.657 3.853-.46.965-3.105 1.73-3.13-.588-.025-2.318-.774-5.107.814-6.06 1.291-.777 3.402-4.346 4.84-5.87C6.554.888 7.212.364 8.712.19c1.936-.225 5.886.797 8.235.938 5.35.324 10.303-.938 13.076.31 1.733.78 2.202 4.058 1.406 9.835l.014-.005v2.733c0 1.025-.42 3.166-1.256 6.422h-2.134c1.422-1.87 2.134-3.45 2.134-4.742 0-1.09-.507-2.024-1.519-2.802-.396.062-.78.12-1.153.175V14c0 1.025-.419 3.166-1.256 6.422h-2.134c1.423-1.87 2.134-3.45 2.134-4.742 0-.872-.324-1.644-.973-2.317-2.074.268-3.64.402-4.698.402-2.124 0-3.906-.832-5.533-1.479v1.06c0 1.026-.419 3.186-1.256 6.48h-2.134c1.13-1.862 1.695-3.439 1.695-4.73 0-1.098.326-2.458-.54-3.505-.254-.049-.499-.087-.733-.116v1.928c0 1.025-.419 3.166-1.256 6.422H8.697c1.423-1.87 2.134-3.45 2.134-4.742 0-1.215-.824-2.292-2.083-3.37a.551.551 0 0 1-.116-.168c-.15-.241-.499-.813-.909-1.565z"/>
    <path id="B" d="M5.174 6.655l-.012.007c-1.244-.364-2.141-.364-2.69 0-.825.546-3.285-.106-2.2-1.955C1.354 2.858 2.088.292 3.801.292c1.712 0 2.269 2.272 3.485 2.566l.372.088c.123-.023.254-.042.393-.058 1.79-.208 5.44.736 7.612.867 4.945.299 9.524-.867 12.087.286 1.602.72 2.035 3.751 1.3 9.09l.012-.004v2.526c0 .948-.387 2.927-1.161 5.937H25.93c1.315-1.729 1.972-3.19 1.972-4.384 0-1.007-.468-1.87-1.403-2.59-1.153.179-2.195.328-3.126.449.599.621.899 1.335.899 2.141 0 1.194-.658 2.655-1.973 4.384h1.973c.774-3.01 1.16-4.989 1.16-5.937v-1.422H22.3c.428.257.785.534 1.074.834-1.918.247-3.365.37-4.343.37-1.963 0-3.61-.768-5.114-1.366v.98c0 .948-.387 2.944-1.161 5.989h-1.973c1.045-1.72 1.567-3.178 1.567-4.372 0-1.015.302-2.271-.499-3.239-.235-.045-.461-.08-.678-.108v1.782c0 .948-.387 2.927-1.16 5.937H8.038c1.315-1.729 1.972-3.19 1.972-4.384 0-1.123-.761-2.118-1.925-3.115a.51.51 0 0 1-.107-.154c-.431-.694-2.625-4.324-2.805-6.73z"/>
    <path id="D" d="M7.723 9.981c-.736.017-1.206.113-1.408.288-1.865 1.615-2.396 3.305-2.657 3.853-.46.965-3.105 1.73-3.13-.588-.025-2.318-.774-5.107.814-6.06 1.291-.777 3.402-4.346 4.84-5.87C6.554.888 7.212.364 8.712.19c1.936-.225 5.886.797 8.235.938 5.35.324 10.303-.938 13.076.31 1.733.78 2.202 4.058 1.406 9.835l.014-.005v2.733c0 1.025-.42 3.166-1.256 6.422h-2.134c1.422-1.87 2.134-3.45 2.134-4.742 0-1.09-.507-2.024-1.519-2.802-.396.062-.78.12-1.153.175V14c0 1.025-.419 3.166-1.256 6.422h-2.134c1.423-1.87 2.134-3.45 2.134-4.742 0-.872-.324-1.644-.973-2.317-2.074.268-3.64.402-4.698.402-2.124 0-3.906-.832-5.533-1.479v1.06c0 1.026-.419 3.186-1.256 6.48h-2.134c1.13-1.862 1.695-3.439 1.695-4.73 0-1.098.326-2.458-.54-3.505-.254-.049-.499-.087-.733-.116v1.928c0 1.025-.419 3.166-1.256 6.422H8.697c1.423-1.87 2.134-3.45 2.134-4.742 0-1.215-.824-2.292-2.083-3.37a.551.551 0 0 1-.116-.168c-.15-.241-.499-.813-.909-1.565z"/>
    <path id="F" d="M9.118 11.783c-.87.02-1.424.134-1.663.34-2.202 1.907-2.829 3.902-3.137 4.549-.543 1.14-3.665 2.043-3.694-.694-.03-2.737-.915-6.029.96-7.155 1.525-.916 4.017-5.13 5.714-6.929.44-.846 1.217-1.464 2.987-1.67 2.286-.265 6.949.94 9.722 1.108 6.316.382 12.164-1.108 15.438.365 2.046.92 2.599 4.791 1.659 11.612l.016-.006v3.226c0 1.21-.494 3.738-1.483 7.582h-2.519c1.68-2.207 2.52-4.074 2.52-5.599 0-1.286-.598-2.389-1.793-3.307-.468.072-.922.141-1.362.206v1.118c0 1.21-.494 3.738-1.482 7.582h-2.52c1.68-2.207 2.52-4.074 2.52-5.599 0-1.03-.383-1.94-1.149-2.735-2.448.316-4.297.474-5.547.474-2.506 0-4.61-.981-6.532-1.745v1.251c0 1.211-.494 3.76-1.482 7.65h-2.52c1.335-2.198 2.002-4.06 2.002-5.584 0-1.297.385-2.901-.637-4.138-.3-.057-.59-.102-.867-.137v2.276c0 1.211-.494 3.739-1.482 7.583h-2.52c1.68-2.208 2.52-4.075 2.52-5.6 0-1.434-.973-2.705-2.46-3.978a.65.65 0 0 1-.136-.198c-.178-.285-.589-.96-1.073-1.848z"/>
    <path id="H" d="M9.949 12.857c-.95.022-1.554.146-1.814.371-2.403 2.08-3.087 4.257-3.423 4.962-.593 1.244-4 2.23-4.032-.756-.032-2.987-.997-6.579 1.049-7.808 1.663-1 4.382-5.597 6.234-7.56C8.442 1.145 9.29.47 11.221.246c2.495-.29 7.582 1.026 10.608 1.209 6.892.416 13.272-1.21 16.844.398 2.232 1.004 2.836 5.227 1.81 12.669l.018-.006v3.52c0 1.32-.539 4.078-1.617 8.273h-2.749c1.832-2.41 2.749-4.446 2.749-6.11 0-1.403-.652-2.606-1.956-3.608-.511.079-1.006.154-1.486.225v1.22c0 1.32-.54 4.078-1.618 8.273h-2.748c1.832-2.41 2.748-4.446 2.748-6.11 0-1.123-.417-2.117-1.252-2.984-2.672.345-4.69.518-6.053.518-2.735 0-5.03-1.071-7.127-1.905v1.365c0 1.322-.539 4.104-1.617 8.347h-2.749c1.456-2.398 2.183-4.43 2.183-6.093 0-1.414.42-3.165-.695-4.514a14.65 14.65 0 0 0-.945-.15v2.483c0 1.322-.54 4.08-1.618 8.274h-2.748c1.832-2.41 2.748-4.446 2.748-6.11 0-1.565-1.06-2.952-2.683-4.34a.71.71 0 0 1-.149-.216 42.12 42.12 0 0 1-1.17-2.016z"/>
  </defs>
  <g fill="none" fill-rule="evenodd" transform="translate(-.5 -4)">
    <mask id="b" fill="#fff">
      <use xlink:href="#a"/>
    </mask>
    <g mask="url(#b)">
      <g transform="translate(214.78 11.45)">
        <mask id="d" fill="#fff">
          <use xlink:href="#c"/>
        </mask>
        <use fill="#699A68" xlink:href="#c"/>
        <g mask="url(#d)">
          <path fill="#3A514E" fill-rule="nonzero" d="M7.506.432a.5.5 0 0 1 1.003 0v52.484a.5.5 0 0 1-1.003 0V.432z"/>
          <path stroke="#3A514E" stroke-linecap="square" d="M8.006 51.281l8.87-6.678-8.87 6.678-8.87-6.678 8.87 6.678zm0 0L8 51.286l.006-.005.006.005-.006-.005zm0-8.21l8.87-6.678-8.87 6.677-8.87-6.677 8.87 6.677zm0 0l.006.004-.006-.005-.006.005.006-.005zm0-8.212l-8.87-6.677 8.87 6.677 8.87-6.677-8.87 6.677zm0 0l.006.005-.006-.005-.006.005.006-.005zm0-8.21l8.87-6.678-8.87 6.678-8.87-6.678 8.87 6.678zm0 0L8 26.653l.006-.004.006.004-.006-.004zm0-8.211l8.87-6.678-8.87 6.678-8.87-6.678 8.87 6.678zm0 0l.006.004-.006-.004-.006.004.006-.004zm0-8.211l-8.87-6.678 8.87 6.678 8.87-6.678-8.87 6.678zm0 0L8 10.23l.006-.004.006.004-.006-.004z"/>
        </g>
      </g>
      <path fill="#40645D" d="M213.686 23.892c2.119 7.158 3.614 13.648 4.485 19.47.872 5.823 1.32 12.313 1.345 19.472h-11.66c-.25-5.968.15-12.459 1.2-19.471 1.05-7.013 2.593-13.503 4.63-19.471z"/>
      <path fill="#4F775D" d="M200.531 14.384c2.636 8.906 4.496 16.981 5.58 24.225 1.085 7.244 1.642 15.319 1.673 24.225h-14.506c-.311-7.425.186-15.5 1.492-24.225 1.307-8.725 3.227-16.8 5.761-24.225z"/>
      <path fill="#1E3B39" d="M206.357 19.254c2.371 8.01 4.044 15.274 5.02 21.79.975 6.516 1.477 13.779 1.504 21.79h-13.048c-.28-6.679.168-13.942 1.343-21.79 1.175-7.848 2.902-15.111 5.181-21.79zM191.307 27.625c2.371 6.472 4.044 12.34 5.02 17.604.975 5.264 1.477 11.133 1.504 17.605h-13.048c-.28-5.396.168-11.264 1.343-17.605 1.174-6.34 2.902-12.208 5.181-17.604z"/>
      <path fill="#4F8577" d="M196.718 37.826c1.957 4.597 3.338 8.765 4.143 12.504.805 3.74 1.218 7.907 1.241 12.504h-10.768c-.231-3.833.138-8 1.107-12.504.97-4.503 2.395-8.671 4.277-12.504zM181.314 37.826c1.957 4.597 3.337 8.765 4.142 12.504.805 3.74 1.22 7.907 1.242 12.504H175.93c-.232-3.833.138-8 1.107-12.504.97-4.503 2.395-8.671 4.277-12.504z"/>
      <path fill="#40645D" d="M264.754 26.459c2.118 7.158 3.613 13.649 4.485 19.471.872 5.822 1.32 12.313 1.344 19.471h-11.659c-.25-5.968.15-12.458 1.2-19.47 1.05-7.014 2.593-13.504 4.63-19.472z"/>
      <path fill="#40645D" d="M251.599 16.951c2.636 8.906 4.496 16.981 5.58 24.225 1.085 7.244 1.642 15.32 1.673 24.225h-14.506c-.311-7.425.186-15.5 1.492-24.225 1.306-8.724 3.227-16.8 5.76-24.225z"/>
      <path fill="#5F845D" d="M257.425 21.821c2.371 8.011 4.044 15.274 5.02 21.79.975 6.516 1.477 13.78 1.504 21.79h-13.048c-.28-6.679.168-13.942 1.343-21.79 1.174-7.848 2.902-15.11 5.181-21.79z"/>
      <path fill="#1E3B39" d="M242.375 30.192c2.371 6.472 4.044 12.34 5.02 17.605.975 5.264 1.476 11.132 1.504 17.604h-13.048c-.28-5.396.168-11.264 1.342-17.604 1.175-6.34 2.902-12.21 5.182-17.605z"/>
      <path fill="#4F8577" d="M247.786 40.394c1.956 4.597 3.337 8.765 4.142 12.503.805 3.74 1.22 7.907 1.242 12.504h-10.769c-.23-3.832.139-8 1.108-12.504.97-4.503 2.395-8.67 4.277-12.503zM232.382 40.394c1.956 4.597 3.337 8.765 4.142 12.503.805 3.74 1.22 7.907 1.242 12.504h-10.769c-.23-3.832.139-8 1.108-12.504.97-4.503 2.395-8.67 4.277-12.503z"/>
      <path fill="#40645D" d="M346.984 31.838c2.118 7.159 3.614 13.649 4.485 19.471.872 5.823 1.32 12.313 1.345 19.471h-11.66c-.25-5.968.15-12.458 1.2-19.47 1.05-7.013 2.593-13.504 4.63-19.472z"/>
      <path fill="#4F775D" d="M333.829 22.33c2.636 8.907 4.496 16.982 5.58 24.226 1.085 7.243 1.642 15.318 1.673 24.224h-14.506c-.311-7.425.186-15.5 1.492-24.224 1.306-8.725 3.227-16.8 5.761-24.225z"/>
      <path fill="#5F845D" d="M339.655 27.2c2.371 8.011 4.044 15.275 5.02 21.79.975 6.516 1.477 13.78 1.504 21.79h-13.048c-.28-6.678.168-13.942 1.343-21.79 1.174-7.847 2.902-15.11 5.181-21.79z"/>
      <path fill="#1E3B39" d="M324.605 22.33c2.371 8.907 4.044 16.982 5.02 24.226.975 7.243 1.477 15.318 1.504 24.224h-13.048c-.28-7.425.168-15.5 1.343-24.224 1.174-8.725 2.902-16.8 5.181-24.225z"/>
      <path fill="#4F8577" d="M330.016 45.773c1.957 4.597 3.337 8.765 4.142 12.504.805 3.739 1.22 7.907 1.242 12.503h-10.768c-.232-3.832.138-8 1.107-12.503.97-4.504 2.395-8.672 4.277-12.504zM314.612 45.773c1.956 4.597 3.337 8.765 4.142 12.504.805 3.739 1.22 7.907 1.242 12.503h-10.769c-.23-3.832.139-8 1.108-12.503.97-4.504 2.395-8.672 4.277-12.504z"/>
      <path fill="#40645D" d="M19.58 19.98c2.119 7.158 3.614 13.648 4.485 19.47.872 5.823 1.32 12.313 1.345 19.472H13.75c-.25-5.968.15-12.459 1.2-19.471 1.05-7.013 2.593-13.503 4.63-19.472z"/>
      <path fill="#4F775D" d="M6.425 10.472c2.636 8.906 4.496 16.98 5.58 24.225 1.085 7.244 1.643 15.319 1.673 24.225H-.828c-.31-7.425.187-15.5 1.493-24.225 1.306-8.725 3.226-16.8 5.76-24.225z"/>
      <path fill="#5F845D" d="M12.252 15.342c2.37 8.01 4.044 15.274 5.02 21.79.975 6.515 1.476 13.779 1.504 21.79H5.728c-.28-6.68.167-13.943 1.342-21.79 1.175-7.848 2.902-15.111 5.182-21.79z"/>
      <path fill="#1E3B39" d="M-2.798 10.472c2.37 8.906 4.044 16.98 5.019 24.225.975 7.244 1.477 15.319 1.505 24.225H-9.322c-.28-7.425.167-15.5 1.342-24.225 1.175-8.725 2.902-16.8 5.182-24.225z"/>
      <path fill="#4F8577" d="M2.612 33.914C4.57 38.511 5.95 42.68 6.755 46.418c.805 3.739 1.219 7.907 1.241 12.504H-2.772c-.231-3.833.138-8 1.108-12.504.97-4.503 2.395-8.671 4.276-12.504z"/>
      <g>
        <path fill="#40645D" d="M63.592 14.111c2.118 7.159 3.614 13.649 4.485 19.471.872 5.823 1.32 12.313 1.345 19.471h-11.66c-.25-5.968.15-12.458 1.2-19.47 1.05-7.013 2.593-13.504 4.63-19.472z"/>
        <path fill="#4F775D" d="M50.437 4.604c2.636 8.906 4.496 16.98 5.58 24.225 1.085 7.243 1.642 15.318 1.673 24.224H43.184c-.311-7.425.186-15.5 1.492-24.224 1.306-8.725 3.227-16.8 5.761-24.225z"/>
        <path fill="#1E3B39" d="M56.263 9.473c2.371 8.011 4.044 15.275 5.02 21.79.975 6.516 1.477 13.78 1.504 21.79H49.74c-.28-6.678.168-13.942 1.343-21.79 1.175-7.847 2.902-15.11 5.181-21.79zM41.213 17.844c2.371 6.472 4.044 12.34 5.02 17.605.975 5.264 1.477 11.132 1.504 17.604H34.69c-.28-5.396.168-11.264 1.343-17.604 1.174-6.34 2.902-12.209 5.181-17.605z"/>
        <path fill="#4F8577" d="M46.624 28.046c1.957 4.597 3.337 8.765 4.142 12.504.805 3.739 1.22 7.907 1.242 12.503H41.24c-.232-3.832.138-8 1.107-12.503.97-4.504 2.395-8.671 4.277-12.504zM31.22 28.046c1.956 4.597 3.337 8.765 4.142 12.504.805 3.739 1.22 7.907 1.242 12.503H25.835c-.23-3.832.139-8 1.108-12.503.97-4.504 2.395-8.671 4.277-12.504z"/>
      </g>
      <g transform="translate(282.883 17.93)">
        <mask id="f" fill="#fff">
          <use xlink:href="#e"/>
        </mask>
        <use fill="#4F8577" xlink:href="#e"/>
        <g mask="url(#f)">
          <path fill="#3A514E" fill-rule="nonzero" d="M6.727.39a.5.5 0 0 1 1.002 0v47.374a.5.5 0 0 1-1.002 0V.39z"/>
          <path stroke="#3A514E" stroke-linecap="square" d="M7.227 46.289l8.006-6.028-8.006 6.028L-.78 40.26l8.007 6.028zm0 0l-.006.004.006-.004.005.004-.005-.004zm0-7.412l8.006-6.028-8.006 6.028-8.007-6.028 8.007 6.028zm0 0l-.006.004.006-.004.005.004-.005-.004zm0-7.411l8.006-6.028-8.006 6.028-8.007-6.028 8.007 6.028zm0 0l-.006.004.006-.004.005.004-.005-.004zm0-7.412l8.006-6.028-8.006 6.028-8.007-6.028 8.007 6.028zm0 0l-.006.004.006-.004.005.004-.005-.004zm0-7.411l8.006-6.028-8.006 6.028-8.007-6.028 8.007 6.028zm0 0l-.006.004.006-.004.005.004-.005-.004zm0-7.412l8.006-6.028-8.006 6.028L-.78 3.203l8.007 6.028zm0 0l-.006.004.006-.004.005.004-.005-.004z"/>
        </g>
      </g>
      <g transform="translate(177.126 17.432)">
        <mask id="h" fill="#fff">
          <use xlink:href="#g"/>
        </mask>
        <use fill="#4F8577" xlink:href="#g"/>
        <g mask="url(#h)">
          <path fill="#3A514E" fill-rule="nonzero" d="M6.783.223a.5.5 0 0 1 1.003 0v47.374a.5.5 0 0 1-1.003 0V.223z"/>
          <path stroke="#3A514E" stroke-linecap="square" d="M7.283 46.122l8.007-6.028-8.007 6.028-8.006-6.028 8.006 6.028zm0 0l-.005.004.005-.004.006.004-.006-.004zm0-7.412l8.007-6.028-8.007 6.028-8.006-6.028 8.006 6.028zm0 0l-.005.004.005-.004.006.004-.006-.004zm0-7.411L-.723 25.27l8.006 6.028 8.007-6.028-8.007 6.028zm0 0l.006.004-.006-.004-.005.004.005-.004zm0-7.412l8.007-6.028-8.007 6.028-8.006-6.028 8.006 6.028zm0 0l-.005.004.005-.004.006.004-.006-.004zm0-7.411l8.007-6.028-8.007 6.028-8.006-6.028 8.006 6.028zm0 0l.006.004-.006-.004-.005.004.005-.004zm0-7.412l8.007-6.028-8.007 6.028-8.006-6.028 8.006 6.028zm0 0l-.005.004.005-.004.006.004-.006-.004z"/>
        </g>
      </g>
      <g transform="translate(58.783 12.428)">
        <mask id="j" fill="#fff">
          <use xlink:href="#i"/>
        </mask>
        <use fill="#4F8577" xlink:href="#i"/>
        <g mask="url(#j)">
          <path fill="#3A514E" fill-rule="nonzero" d="M6.727.39a.5.5 0 0 1 1.002 0v47.374a.5.5 0 0 1-1.002 0V.39z"/>
          <path stroke="#3A514E" stroke-linecap="square" d="M7.227 46.289l8.006-6.028-8.006 6.028L-.78 40.26l8.007 6.028zm0 0l-.006.004.006-.004.005.004-.005-.004zm0-7.412l8.006-6.028-8.006 6.028-8.007-6.028 8.007 6.028zm0 0l-.006.004.006-.004.005.004-.005-.004zm0-7.411l8.006-6.028-8.006 6.028-8.007-6.028 8.007 6.028zm0 0l-.006.004.006-.004.005.004-.005-.004zm0-7.412l8.006-6.028-8.006 6.028-8.007-6.028 8.007 6.028zm0 0l-.006.004.006-.004.005.004-.005-.004zm0-7.411L-.78 10.615l8.007 6.028 8.006-6.028-8.006 6.028zm0 0l-.006.004.006-.004.005.004-.005-.004zm0-7.412L-.78 3.203l8.007 6.028 8.006-6.028-8.006 6.028zm0 0l.005.004-.005-.004-.006.004.006-.004z"/>
        </g>
      </g>
      <g>
        <path fill="#7BA97B" d="M151.208 26.482c0-2.937 1.851-5.383 6.336-5.383 4.484 0 6.336 2.2 6.336 5.383 0 3.181-2.311 3.181-2.311 5.872 0 2.69 2.712 2.69 2.31 5.872-.4 3.182-1.481 2.937-1.481 5.873 0 2.936 1.482 3.07 1.482 5.872s-1.697 4.588-6.336 4.588c-4.64 0-6.336-1.619-6.336-4.588 0-2.969 1.851-2.936 1.851-5.872s-1.851-2.936-1.851-5.873c0-2.936 1.851-3.795 1.851-5.872s-1.851-2.936-1.851-5.872z"/>
        <path fill="#2B3B3F" fill-rule="nonzero" d="M158.083 50.38v9.902h-1.003v-13.16c-.565-.07-.958-.188-1.187-.366-.298-.232-.512-.708-.67-1.436l-.049-.226.453-.099.05.227c.136.63.312 1.02.5 1.167.146.113.45.205.903.265v-7.805c-.576-.069-.975-.188-1.207-.368-.298-.231-.513-.708-.67-1.435l-.05-.227.454-.098.049.226c.136.63.312 1.021.501 1.168.148.114.458.207.923.267v-7.807c-.576-.07-.975-.188-1.207-.368-.298-.232-.513-.708-.67-1.436l-.05-.226.454-.099.049.227c.136.63.312 1.02.501 1.167.148.115.458.207.923.267v-3.316h1.003v8.683c.647-.056 1.068-.162 1.247-.302.189-.147.365-.538.501-1.167l.05-.227.453.098-.05.227c-.157.727-.372 1.204-.67 1.435-.273.213-.778.34-1.531.4v6.756c.647-.056 1.068-.162 1.247-.302.189-.146.365-.538.501-1.167l.05-.227.453.098-.05.227c-.157.727-.372 1.204-.67 1.435-.273.213-.778.34-1.531.401v6.755c.647-.056 1.068-.162 1.247-.302.189-.146.365-.538.501-1.167l.05-.227.453.099-.05.226c-.157.727-.372 1.204-.67 1.436-.273.212-.778.339-1.531.4z"/>
      </g>
      <g>
        <path fill="#7BA97B" d="M17.87 16.155c0-3.1 1.954-5.683 6.69-5.683 4.734 0 6.69 2.323 6.69 5.683s-2.441 3.36-2.441 6.2c0 2.841 2.864 2.841 2.44 6.2-.424 3.36-1.565 3.1-1.565 6.2s1.565 3.242 1.565 6.201c0 2.959-1.791 4.844-6.69 4.844-4.898 0-6.69-1.709-6.69-4.844 0-3.135 1.955-3.1 1.955-6.2s-1.955-3.1-1.955-6.2 1.955-4.008 1.955-6.201c0-2.193-1.955-3.1-1.955-6.2z"/>
        <path fill="#2B3B3F" fill-rule="nonzero" d="M25.073 41.391v10.452H24.07V37.947c-.597-.073-1.011-.198-1.253-.386-.315-.245-.542-.748-.708-1.516l-.052-.239.479-.104.051.24c.144.664.33 1.077.53 1.232.153.12.474.216.953.28v-8.24c-.609-.074-1.03-.2-1.275-.39-.314-.244-.54-.747-.707-1.515l-.052-.24.478-.103.052.24c.144.664.33 1.077.53 1.232.155.12.483.218.974.282v-8.243c-.609-.074-1.03-.199-1.275-.39-.314-.244-.54-.747-.707-1.515l-.052-.239.478-.104.052.24c.144.664.33 1.077.53 1.232.155.121.483.219.974.282v-3.502h1.003v9.173c.714-.058 1.178-.172 1.372-.323.2-.155.386-.568.53-1.233l.051-.24.479.105-.052.239c-.166.768-.393 1.27-.708 1.515-.295.23-.846.365-1.672.428v7.132c.714-.057 1.178-.172 1.372-.323.2-.155.386-.568.53-1.233l.051-.239.479.104-.052.239c-.166.768-.393 1.271-.708 1.515-.295.23-.846.365-1.672.428V40.9c.714-.057 1.178-.172 1.372-.323.2-.155.386-.568.53-1.232l.051-.24.479.104-.052.24c-.166.767-.393 1.27-.708 1.515-.295.229-.846.364-1.672.427z"/>
      </g>
      <g>
        <path fill="#4F8577" d="M77.205 15.579a9.596 9.596 0 0 1 8.484-5.107 9.595 9.595 0 0 1 8.433 5.012 6.311 6.311 0 0 1 6.108 6.308c0 3.486-2.825 3.313-6.31 3.313-1.278 0-2.467.023-3.46-.12-1.406.15-3.035.121-4.771.121-2.073 0-3.993.04-5.562-.228-1.094.26-2.5.227-4.035.227-3.486 0-6.312.173-6.312-3.313a6.311 6.311 0 0 1 7.425-6.213z"/>
        <path fill="#5A9586" d="M95.554 25.544a2.214 2.214 0 0 1 2.704 2.159c0 1.223-.991.954-2.214.954-.542 0-1.038.053-1.423.005-.583.055-1.316-.018-2.112-.018-1.903 0-3.445.417-3.445-1.486a3.445 3.445 0 0 1 6.49-1.614z"/>
        <path fill="#559181" d="M76.728 32.446a2.214 2.214 0 0 0-2.704 2.159c0 1.222.99.954 2.213.954.542 0 1.038.053 1.423.005.583.054 1.316-.019 2.112-.019 1.903 0 3.445.417 3.445-1.485a3.445 3.445 0 0 0-6.49-1.614z"/>
        <path fill="#B1B596" fill-rule="nonzero" d="M84.83 22.958l-7.202-4.678.488-.752 3.938 2.559v-1.32h1.003v1.854h-.18l1.953 1.269V19h2.06v12.455l5.237-3.403h-.155v-1.854h1.002v1.304l1.25-.812.487.752-7.82 5.08v20.906H84.83v-14.63l-7.202-4.68.488-.75 1.25.811v-1.304h1.002v1.855h-.156l4.618 3V22.957z"/>
      </g>
      <g>
        <path fill="#4F8577" d="M142.86 26.556a7.939 7.939 0 0 0-7.02-4.225 7.938 7.938 0 0 0-6.977 4.146 5.222 5.222 0 0 0-5.054 5.22c0 2.883 2.338 2.74 5.222 2.74 1.056 0 2.04.02 2.862-.098 1.162.122 2.51.1 3.947.1 1.715 0 3.303.032 4.601-.19.905.216 2.07.188 3.339.188 2.884 0 5.221.143 5.221-2.74a5.221 5.221 0 0 0-6.142-5.141z"/>
        <path fill="#5A9586" d="M127.678 34.8a1.831 1.831 0 0 0-2.237 1.786c0 1.012.82.79 1.831.79.449 0 .86.044 1.178.004.482.045 1.089-.015 1.747-.015 1.574 0 2.85.345 2.85-1.23a2.85 2.85 0 0 0-5.369-1.335z"/>
        <path fill="#559181" d="M143.254 40.51a1.831 1.831 0 0 1 2.237 1.786c0 1.012-.82.79-1.831.79-.449 0-.86.044-1.178.004-.482.045-1.089-.016-1.747-.016-1.574 0-2.85.346-2.85-1.228a2.85 2.85 0 0 1 5.369-1.336z"/>
        <path fill="#B1B596" fill-rule="nonzero" d="M136.55 32.661l5.959-3.87-.404-.622-3.258 2.116v-1.092h-1.003v1.534h.323l-1.616 1.05v-2.39h-1.705V39.69l-4.333-2.815h.302v-1.534h-1.003v1.079l-1.033-.671-.404.621 6.47 4.204V57.87h1.706V45.766l5.958-3.871-.404-.622-1.033.671v-1.078h-1.003V42.4h.302l-3.82 2.482v-12.22z"/>
      </g>
      <g>
        <path fill="#40645D" d="M297.397 35.738c2.119 7.158 3.614 13.649 4.485 19.471.872 5.823 1.32 12.313 1.345 19.471h-11.66c-.25-5.968.15-12.458 1.2-19.47 1.05-7.013 2.593-13.504 4.63-19.472z"/>
        <path fill="#4F775D" d="M284.242 28.335c2.636 8.906 4.496 16.981 5.58 24.225 1.085 7.244 1.642 15.319 1.673 24.225H276.99c-.311-7.425.186-15.5 1.492-24.225 1.307-8.725 3.227-16.8 5.761-24.225z"/>
        <path fill="#4F8577" d="M311.268 30.549c2.636 8.906 4.496 16.98 5.58 24.225 1.085 7.244 1.642 15.319 1.673 24.225h-14.506c-.311-7.426.186-15.5 1.492-24.225 1.306-8.725 3.227-16.8 5.761-24.225z"/>
        <path fill="#5F845D" d="M273.402 32.984c2.371 8.01 4.044 15.274 5.02 21.79.975 6.516 1.477 13.779 1.504 21.79h-13.048c-.28-6.68.168-13.942 1.343-21.79 1.174-7.848 2.902-15.111 5.181-21.79z"/>
        <path fill="#1E3B39" d="M286.531 41.354c2.37 6.473 4.044 12.34 5.02 17.605.975 5.264 1.476 11.133 1.504 17.605h-13.048c-.28-5.396.168-11.265 1.342-17.605 1.175-6.34 2.902-12.209 5.182-17.605zM303.966 41.576c2.37 6.472 4.044 12.34 5.02 17.604.974 5.265 1.476 11.133 1.504 17.605h-13.048c-.28-5.396.167-11.264 1.342-17.605 1.175-6.34 2.902-12.208 5.182-17.604z"/>
        <path fill="#4F8577" d="M293.088 51.556c1.957 4.597 3.338 8.765 4.143 12.504.805 3.739 1.219 7.907 1.242 12.504h-10.769c-.231-3.833.138-8 1.108-12.504.97-4.503 2.395-8.671 4.276-12.504zM278.813 49.673c1.957 4.597 3.337 8.765 4.143 12.504.805 3.738 1.218 7.906 1.241 12.503H273.43c-.231-3.832.138-8 1.107-12.503.97-4.504 2.395-8.672 4.277-12.504z"/>
      </g>
      <g transform="translate(-129 47.851)">
        <mask id="l" fill="#fff">
          <use xlink:href="#k"/>
        </mask>
        <use fill="#4CA36B" xlink:href="#k"/>
        <path fill="#3DAF67" d="M0-3.098L206.836-.456c12.09 11.881 24.739 25.853 37.946 41.916 13.208 16.063 39.01 65.84 77.406 149.33L0 190.378V-3.098z" mask="url(#l)"/>
        <path fill="#6ABE66" d="M0 57.714c34.074-3.47 73.463-5.744 118.168-6.824 44.704-1.08 88.954-1.215 132.75-.406 2.848 4.015 10.871 16.784 24.07 38.308 6.778 11.053 15.05 26.563 23.902 44.196 5.59 11.136 14.753 30.403 27.49 57.802L0 190.378V57.714z" mask="url(#l)"/>
      </g>
      <path fill="#95E795" d="M152.776 86.14c-1.207-.148-2.013-.322-2.419-.52-1.724-.845-1.983-2.046-.917-2.838 1.002-.744 2.08-.59 2.763.78.2.4.39 1.26.573 2.578zm0 0c.182-1.318.373-2.177.573-2.579.683-1.37 1.761-1.523 2.763-.779 1.066.792.807 1.993-.917 2.837-.406.2-1.212.373-2.42.521zM206.77 97.602c-1.207-.149-2.013-.322-2.419-.521-1.725-.844-1.983-2.045-.917-2.837 1.002-.744 2.08-.59 2.762.779.2.401.392 1.26.574 2.579zm0 0c.182-1.318.373-2.178.573-2.58.683-1.369 1.76-1.522 2.763-.778 1.066.792.807 1.993-.918 2.837-.406.199-1.212.372-2.418.52zM69.78 67.35c-1.206-.15-2.012-.323-2.418-.521-1.725-.845-1.984-2.046-.917-2.837 1.001-.745 2.079-.591 2.762.778.2.402.391 1.261.573 2.58zm0 0c.182-1.319.374-2.178.574-2.58.683-1.37 1.76-1.523 2.762-.778 1.066.791.808 1.992-.917 2.837-.406.198-1.212.372-2.419.52z"/>
      <g>
        <g transform="translate(184.5 23.921)">
          <mask id="n" fill="#fff">
            <use xlink:href="#m"/>
          </mask>
          <use fill="#699A68" xlink:href="#m"/>
          <g mask="url(#n)">
            <path fill="#3A514E" fill-rule="nonzero" d="M8.34.477a.5.5 0 0 1 1.003 0v63.44a.5.5 0 0 1-1.002 0V.477z"/>
            <path stroke="#3A514E" stroke-linecap="square" d="M8.84 56.627l9.795-7.374-9.794 7.374-9.795-7.374 9.795 7.374zm0 0l-.006.005.007-.005.006.005-.006-.005zm0-9.067l9.795-7.374-9.794 7.374-9.795-7.374 9.795 7.374zm0 0l-.006.005.007-.005.006.005-.006-.005zm0-9.067L-.953 31.12l9.795 7.374 9.794-7.374-9.794 7.374zm0 0l.007.005-.006-.005-.007.005.007-.005zm0-9.067l-9.794-7.374 9.795 7.374 9.794-7.374-9.794 7.374zm0 0l-.006.005.007-.005.006.005-.006-.005zm0-9.066l-9.794-7.374 9.795 7.374 9.794-7.374-9.794 7.374zm0 0l.007.005-.006-.005-.007.005.007-.005zm0-9.067l9.795-7.374-9.794 7.374-9.795-7.374 9.795 7.374zm0 0l-.006.005.007-.005.006.005-.006-.005z"/>
          </g>
        </g>
        <path fill="#426F65" d="M261.596 100.941a3.454 3.454 0 0 1 3.454 3.455v.502h-6.909v-.502a3.454 3.454 0 0 1 3.455-3.455zM153.205 108.434a3.454 3.454 0 0 1 3.455 3.455v.501h-6.91v-.501a3.454 3.454 0 0 1 3.455-3.455zM311.114 122.222a5.054 5.054 0 0 1 5.054 5.054v.734H306.06v-.734a5.054 5.054 0 0 1 5.054-5.054zM338.01 90.316a5.054 5.054 0 0 1 5.054 5.054v.734h-10.108v-.734a5.054 5.054 0 0 1 5.054-5.054zM311.114 79.027a5.054 5.054 0 0 1 5.054 5.054v.734H306.06v-.734a5.054 5.054 0 0 1 5.054-5.054zM280.04 81.921a5.054 5.054 0 0 1 5.054 5.054v.734h-10.108v-.734a5.054 5.054 0 0 1 5.054-5.054z"/>
        <path fill="#916B59" d="M182.237 70.13l28.349 1.48v20.947l-28.35-4.378z"/>
        <path fill="#AF816B" d="M201.2 73.416l1.443.085a1 1 0 0 1 .942.998v.037a.894.894 0 0 1-.977.89l-1.424-.13a1 1 0 0 1-.908-.996v-.013a.873.873 0 0 1 .923-.871zM204.386 76.682l1.444.085a1 1 0 0 1 .941.998v.037a.894.894 0 0 1-.976.89l-1.425-.13a1 1 0 0 1-.908-.996v-.013a.873.873 0 0 1 .924-.871zM183.16 72.932l1.444.085a1 1 0 0 1 .942.998v.038a.894.894 0 0 1-.977.89l-1.424-.13a1 1 0 0 1-.908-.997v-.012a.873.873 0 0 1 .923-.872z"/>
        <path fill="#6D5245" d="M198.88 79.401a3.273 3.273 0 0 1 3.05 3.265v8.414l-6.024-.87-.055-7.96a2.836 2.836 0 0 1 3.03-2.849z"/>
        <path fill="#FFF1B6" d="M186.84 79.137l3.969.2a2 2 0 0 1 1.9 1.997v1.17a2 2 0 0 1-2.182 1.992l-3.969-.363a2 2 0 0 1-1.818-1.991v-1.007a2 2 0 0 1 2.1-1.998z"/>
        <g>
          <path fill="#6D5245" d="M210.586 71.61v20.947l17.115-4.378V71.61l-8.558-16.802z"/>
          <path fill="#5C453B" d="M219.777 67.301l-.05.004a2.083 2.083 0 0 0-1.919 2.077v.134a1.68 1.68 0 0 0 1.92 1.663l.063-.01a2.164 2.164 0 0 0 1.855-2.14 1.732 1.732 0 0 0-1.869-1.728z"/>
          <path fill="#747A87" d="M220.2 73.788v4.965h-.632v-4.892l-7.462.865a.585.585 0 0 1-.652-.56v-5.65h.616v5.558l14.484-1.68v-3.096h.617v3.059a.74.74 0 0 1-.653.699l-6.318.732z"/>
        </g>
        <path fill="#9096A4" d="M180.64 70.44l29.946 1.478 8.557-16.98 8.558 16.98h1.796l-10.354-20.04h-25.565z"/>
        <g>
          <path fill="url(#o)" d="M.824 2.43c2.32.251 4.548.251 6.682 0 2.135-.25 3.458-.566 3.97-.947V13.88c-.386 1.594-1.709 2.664-3.97 3.21-2.26.547-4.488.336-6.682-.634V2.431z" transform="translate(214.3 75.09)"/>
          <g transform="translate(214.609 75.217)">
            <mask id="q" fill="#fff">
              <use xlink:href="#p"/>
            </mask>
            <use fill="#7E8492" transform="rotate(-5 5.838 1.765)" xlink:href="#p"/>
            <path fill="#88C8D1" d="M6.21 3.75c2.352 0 4.269-.436 4.269-.996s-1.917-1.032-4.27-1.032c-2.353 0-4.23.511-4.23 1.071 0 .56 1.877.957 4.23.957z" mask="url(#q)" transform="rotate(-5 6.228 2.736)"/>
          </g>
        </g>
        <g>
          <path fill="#65A695" d="M231.94 42.057a12.234 12.234 0 0 1 10.816-6.51c4.64 0 8.678 2.582 10.752 6.39a8.047 8.047 0 0 1 7.788 8.042c0 4.444-3.602 4.223-8.046 4.223-1.628 0-3.144.03-4.41-.151-1.792.19-3.87.153-6.084.153-2.642 0-5.09.051-7.09-.29-1.395.331-3.188.288-5.145.288-4.444 0-8.047.22-8.047-4.223a8.046 8.046 0 0 1 9.466-7.922z"/>
          <path fill="#5A9586" d="M255.334 54.763a2.822 2.822 0 0 1 3.448 2.752c0 1.559-1.264 1.217-2.822 1.217-.691 0-1.324.067-1.815.006-.744.07-1.678-.024-2.693-.024-2.425 0-4.392.532-4.392-1.894a4.392 4.392 0 0 1 8.274-2.057z"/>
          <path fill="#559181" d="M231.332 63.561a2.822 2.822 0 0 0-3.448 2.752c0 1.56 1.263 1.218 2.822 1.218.691 0 1.324.067 1.815.006.743.07 1.678-.024 2.692-.024 2.426 0 4.393.532 4.393-1.894a4.392 4.392 0 0 0-8.274-2.058z"/>
          <path fill="#676B4E" fill-rule="nonzero" d="M241.662 51.466L232.48 45.5l.622-.958 5.02 3.261v-1.683h1.003v2.335l2.537 1.648v-3.685h2.627v15.879l6.754-4.388v-2.314h1.003v1.662l1.592-1.034.622.958-9.971 6.478v26.652h-2.627V71.66l-9.182-5.965.622-.958 1.592 1.035v-1.663h1.003v2.314l5.965 3.875V51.466z"/>
        </g>
      </g>
      <g transform="translate(23.085 12.148)">
        <mask id="s" fill="#fff">
          <use xlink:href="#r"/>
        </mask>
        <use fill="#699A68" xlink:href="#r"/>
        <g stroke="#3A514E" stroke-linecap="square" mask="url(#s)">
          <path d="M8.09 52.825l-8.963-6.749 8.964 6.749 8.964-6.749-8.964 6.749zm0 0l.007.004-.006-.004-.006.004.006-.004zm0-8.298l-8.963-6.749 8.964 6.749 8.964-6.749-8.964 6.749zm0 0l.007.004-.006-.004-.006.004.006-.004zm0-8.298L-.872 29.48 8.09 36.23l8.964-6.749L8.09 36.23zm0 0l.007.004-.006-.004-.006.004.006-.004zm0-8.298l-8.963-6.749 8.964 6.749 8.964-6.749-8.964 6.749zm0 0l.007.005-.006-.005-.006.005.006-.005zm0-8.298l-8.963-6.749 8.964 6.749 8.964-6.749-8.964 6.749zm0 0l.007.005-.006-.005-.006.005.006-.005zm0-8.298L-.872 4.586l8.964 6.75 8.964-6.75-8.964 6.75zm0 0l.007.005-.006-.005-.006.005.006-.005z"/>
        </g>
        <path fill="#3A514E" fill-rule="nonzero" d="M7.596 1.218a.5.5 0 0 1 1 0L8.59 59.497a.5.5 0 0 1-1 0l.005-58.279z"/>
      </g>
      <g transform="translate(38.486 22.36)">
        <mask id="u" fill="#fff">
          <use xlink:href="#t"/>
        </mask>
        <use fill="#5D846B" xlink:href="#t"/>
        <g stroke="#3A514E" stroke-linecap="square" mask="url(#u)">
          <path d="M8.09 52.825l-8.963-6.749 8.964 6.749 8.964-6.749-8.964 6.749zm0 0l.007.004-.006-.004-.006.004.006-.004zm0-8.298l-8.963-6.749 8.964 6.749 8.964-6.749-8.964 6.749zm0 0l.007.004-.006-.004-.006.004.006-.004zm0-8.298L-.872 29.48 8.09 36.23l8.964-6.749L8.09 36.23zm0 0l.007.004-.006-.004-.006.004.006-.004zm0-8.298l-8.963-6.749 8.964 6.749 8.964-6.749-8.964 6.749zm0 0l.007.005-.006-.005-.006.005.006-.005zm0-8.298l-8.963-6.749 8.964 6.749 8.964-6.749-8.964 6.749zm0 0l.007.005-.006-.005-.006.005.006-.005zm0-8.298L-.872 4.586l8.964 6.75 8.964-6.75-8.964 6.75zm0 0l-.005.005.006-.005.006.005-.006-.005z"/>
        </g>
        <path fill="#3A514E" fill-rule="nonzero" d="M7.596 1.218a.5.5 0 0 1 1 0L8.59 59.497a.5.5 0 0 1-1 0l.005-58.279z"/>
      </g>
      <g transform="translate(-128.511 81.366)">
        <mask id="w" fill="#fff">
          <use xlink:href="#v"/>
        </mask>
        <g fill="#FBF4CF" fill-rule="nonzero" mask="url(#w)">
          <path d="M-1.398 17.894l-.07-.976c51.986-3.676 96.425-5.959 133.318-6.849 36.895-.89 76.096-.623 117.6.798l-.033.978c-41.486-1.421-80.668-1.687-117.543-.798-36.877.89-81.301 3.172-133.272 6.847zM-1.398 12.114l-.07-.975c51.986-3.676 96.425-5.96 133.318-6.85 36.895-.889 76.096-.623 117.6.799l-.033.977c-41.486-1.42-80.668-1.687-117.543-.797-36.877.89-81.301 3.171-133.272 6.846z"/>
          <path d="M133.42 1.698h1.002v15.677h-1.002zM152.98 1.698h1.003v15.677h-1.003zM172.541 1.292h1.003v15.677h-1.003zM192.102 1.209h1.003v15.677h-1.003zM211.663 1.209h1.002v15.677h-1.002zM231.223 2.392h1.003V18.07h-1.003z"/>
        </g>
      </g>
      <path fill="#7AC2C8" d="M270.076 63.766c-14.094 4.822-16.764 10.319-8.012 16.49 13.129 9.256 8.545 11.053 38.165 20.293 29.621 9.24 37.41 9.688 67.915 13.199 57.105 6.57 70.702 8.198 71.96 19.69.615 5.613-18.484 9.269-45.6 8.694-28.395-.601-64.808-5.419-61.356 1.748 4.5 9.34 31.935 31.478 82.307 66.41l-23.617-3.93c-48.906-34.57-74.126-55.152-75.658-61.743-2.3-9.886 7.936-12.35 33.595-11.18 25.66 1.17 78.955 2.96 74.97-3.329-2.105-3.322-31.057-5.458-60.737-9.352-26.51-3.478-53.382-8.683-65.7-12.217-26.109-7.49-50.216-29.242-49.16-35.11.704-3.912 5.225-7.26 13.564-10.045l7.364.382z"/>
      <path fill="#95E795" d="M6.874 79.466h7.028s.303-2.643-1.153-2.643-1.52.218-1.52-1.163c0-1.38-2.013-1.268-2.396-.463-.383.804-1.052.651-1.317.463-.493-.35-.247-1.369-1.313-1.369-1.281 0-.61 1.786-1.336 2.16-.725.372-1.15-.236-1.963 0-.813.234-1.157.797-1.877 1.553-.72.755-1.826.112-2.18.47-.353.36-.404.992.936.992h7.09zM95.386 128.876h7.029s.303-2.643-1.153-2.643c-1.457 0-1.521.218-1.521-1.163 0-1.38-2.013-1.268-2.396-.463-.382.804-1.052.651-1.317.463-.492-.35-.246-1.369-1.313-1.369-1.28 0-.61 1.786-1.335 2.16-.726.372-1.15-.236-1.963 0-.813.234-1.158.797-1.877 1.553-.72.755-1.827.112-2.18.47-.354.36-.404.992.935.992h7.09zM83.224 73.641h7.028S90.555 71 89.1 71s-1.52.218-1.52-1.164c0-1.38-2.013-1.267-2.396-.463-.382.805-1.052.651-1.317.463-.493-.35-.246-1.369-1.313-1.369-1.28 0-.61 1.787-1.335 2.16-.726.373-1.15-.235-1.963 0-.814.235-1.158.797-1.878 1.553-.72.756-1.826.112-2.18.471-.353.359-.404.991.936.991h7.09z"/>
      <path fill="#ABD387" d="M202.071 128.876h7.03s.302-2.643-1.154-2.643-1.52.218-1.52-1.163c0-1.38-2.014-1.268-2.396-.463-.383.804-1.052.651-1.317.463-.493-.35-.247-1.369-1.313-1.369-1.281 0-.61 1.786-1.336 2.16-.725.372-1.15-.236-1.963 0-.813.234-1.157.797-1.877 1.553-.72.755-1.826.112-2.18.47-.354.36-.404.992.936.992h7.09zM337.562 77.323h7.028s.303-2.643-1.153-2.643-1.52.218-1.52-1.163c0-1.38-2.013-1.268-2.396-.463-.382.804-1.052.651-1.317.463-.493-.35-.247-1.369-1.313-1.369-1.281 0-.61 1.786-1.336 2.16-.725.372-1.15-.235-1.963 0-.813.234-1.157.797-1.877 1.553-.72.755-1.826.112-2.18.47-.353.36-.404.992.936.992h7.09z"/>
      <path fill="#426F65" d="M69.78 74.403a3.322 3.322 0 0 1 3.323 3.323v.482h-6.645v-.482a3.322 3.322 0 0 1 3.322-3.323z"/>
      <path fill="#5F845D" d="M132.13 70.752c-.48.249-.893 1.396 1.048 1.396h7.269c.448 0 1.128-1.026.646-1.9a1.582 1.582 0 0 0-1.389-.817c-1.184 0-1.064 1.015-1.759 1.015-.694 0-.901-.106-1.231-1.015-.33-.91-.833-1.188-1.491-1.049-.66.14-.598 1.61-1.176 1.866s-1.437.256-1.917.504zM227.146 101.128c-.48.249-.892 1.396 1.049 1.396h7.268c.448 0 1.128-1.026.647-1.9a1.582 1.582 0 0 0-1.39-.817c-1.184 0-1.064 1.015-1.758 1.015-.695 0-.902-.106-1.232-1.015-.33-.91-.832-1.188-1.491-1.049-.659.14-.598 1.61-1.176 1.866-.577.256-1.437.256-1.917.504z"/>
      <path fill="#4A8675" d="M-.966 64.053c-.48.249-.893 1.396 1.048 1.396H7.35c.448 0 1.129-1.026.647-1.9a1.582 1.582 0 0 0-1.389-.817c-1.184 0-1.064 1.015-1.759 1.015-.694 0-.902-.106-1.231-1.015-.33-.91-.833-1.188-1.492-1.049-.658.14-.597 1.61-1.175 1.866-.578.256-1.438.256-1.917.504z"/>
      <path fill="#95E795" d="M72.387 138.351c-.48.249-.893 1.396 1.048 1.396h7.268c.448 0 1.129-1.026.647-1.9a1.582 1.582 0 0 0-1.389-.817c-1.184 0-1.064 1.015-1.759 1.015-.694 0-.902-.106-1.232-1.015-.33-.91-.832-1.188-1.49-1.049-.66.14-.599 1.61-1.176 1.866-.578.256-1.438.256-1.917.504zM118.354 142.151c-.48.249-.892 1.396 1.049 1.396h7.268c.448 0 1.128-1.026.647-1.9a1.582 1.582 0 0 0-1.39-.817c-1.184 0-1.064 1.015-1.758 1.015-.695 0-.902-.106-1.232-1.015-.33-.91-.832-1.188-1.491-1.049-.659.14-.598 1.61-1.176 1.866-.577.256-1.437.256-1.917.504z"/>
      <path fill="#FBF4CF" fill-rule="nonzero" d="M176.094 185.604h-.81c-.514-1.09-1.024-2.17-1.53-3.235v3.235h-1.002v-5.344c-4.87-10.212-9.36-19.232-13.473-27.06v10.95h-1.003V151.3a411.25 411.25 0 0 0-5.093-9.323 359.836 359.836 0 0 0-8.95-14.99v7.925h-1.002v-9.507a381.021 381.021 0 0 0-10.637-15.798v6.83h-1.003v-8.236a406.71 406.71 0 0 0-10.252-13.684v6.109h-1.003V93.24a434.634 434.634 0 0 0-10.251-12.512v5.303h-1.003v-6.478a463.507 463.507 0 0 0-9.219-10.438v3.454H98.86v-4.552a488.636 488.636 0 0 0-6.332-6.784v3.816h-1.003v-4.867a507.621 507.621 0 0 0-4.392-4.533v3.192H86.13V54.63a523.319 523.319 0 0 0-3.84-3.852v2.525h-1.002v-7.824h1.003v1.681a569.04 569.04 0 0 1 3.84 3.635v-1.73h1.002v2.691c1.48 1.42 2.943 2.843 4.392 4.266v-2.07h1.003v3.057a523.694 523.694 0 0 1 6.332 6.36v-2.64h1.003v3.667c3.15 3.237 6.224 6.48 9.219 9.731V72.57h1.003v2.65a451.47 451.47 0 0 1 10.251 11.584v-1.59h1.003v2.768a412.81 412.81 0 0 1 10.252 12.571V98.89h1.003v2.949a375.774 375.774 0 0 1 10.637 14.387v-2.29h1.003v3.725a335.508 335.508 0 0 1 14.042 21.93v-2.616h1.003v4.34c4.02 6.939 8.51 15.065 13.473 24.379v-4.31h1.003v6.195a1512.759 1512.759 0 0 1 9.398 18.025h-.824a1528.658 1528.658 0 0 0-8.574-16.458v11.514c.77 1.618 1.55 3.267 2.34 4.944zm-93.803-135.6a543.455 543.455 0 0 1 3.84 3.847v-2.23a553.932 553.932 0 0 0-3.84-3.637v2.02zm4.842 4.865a526.459 526.459 0 0 1 4.392 4.523v-2.54a533.503 533.503 0 0 0-4.392-4.27v2.287zm5.395 5.57a505.64 505.64 0 0 1 6.332 6.76v-2.986a508.97 508.97 0 0 0-6.332-6.372v2.599zm7.335 7.854c3.154 3.45 6.227 6.91 9.219 10.38V75.01a476.789 476.789 0 0 0-9.219-9.766v3.049zm10.222 11.548a444.258 444.258 0 0 1 10.251 12.415v-4.5a440.255 440.255 0 0 0-10.251-11.65v3.735zm11.254 13.681c3.552 4.5 6.97 9.018 10.252 13.55v-5.46a405.394 405.394 0 0 0-10.252-12.67v4.58zm11.255 14.942a378.099 378.099 0 0 1 10.637 15.623v-6.646a373.746 373.746 0 0 0-10.637-14.53v5.553zm11.64 17.188a348.075 348.075 0 0 1 9.588 15.964 402.1 402.1 0 0 1 4.454 8.124v-8.692a342.463 342.463 0 0 0-14.042-22.157v6.761zm15.045 25.975c4.107 7.767 8.598 16.744 13.473 26.932v-11.304c-4.954-9.323-9.445-17.481-13.473-24.474v8.846z"/>
      <g>
        <path fill="#4F4F4F" d="M131.03 121.841c-1.6-.465-2.291-.228-2.076.712.214.94.906.703 2.076-.712z"/>
        <path fill="#FBF4CF" d="M97.231 123.56v-.012c-.1-4.312.021-6.774.28-7.016.24-.223.446-.201.733.103a.245.245 0 0 0 .356-.336c-.462-.489-.974-.542-1.422-.124-.423.394-.542 2.68-.44 7.216-.611-.066-.706.667-.284 2.198 1.21-.971 1.468-1.647.777-2.03z"/>
        <g transform="matrix(-1 0 0 1 129.622 113.21)">
          <mask id="y" fill="#fff">
            <use xlink:href="#x"/>
          </mask>
          <use fill="#FBF4CF" xlink:href="#x"/>
          <path fill="#4F4F4F" d="M12.921.126l16.98.348v3.151c0 1.592-3.577 2.301-4.59.967-.733-.967-.733 1.761-2.002 1.854-2.67.194-2.13-1.77-3.718-1.854-1.175-.062-2.545 1.854-3.535 1.854-2.632 0-3.677-2.107-3.135-6.32zm-15.8 2.302C-2.905 1.047-2.125.369-.542.395c.832.014.324 1.308 1.774 1.362C2 1.786 2.39.582 3.423.855c1.853.491 1.093 1.857 2.092 1.733.683-.084 1.733-1.236 2.92-.66 2.113 1.023.416 2.706-.206 2.633-1.64-.192-2.343.877-4.172.406-.824-.212-4.035.229-5.312 0-.852-.152-1.439-.851-1.76-2.097l.135-.442zm11.235 8.875c-3.066 1.1-5.075 1.36-6.026.784-1.426-.864-1.072-2.334.175-2.625 1.248-.29 2.21-1.727 3.074-2.402.864-.674 2.434-.39 1.878 1.464-.37 1.236-.071 2.162.899 2.78z" mask="url(#y)"/>
        </g>
        <path fill="#FBF4CF" d="M123.618 123.081c1.307-1.03 2.038-1.07 2.191-.117.153.952-.577.991-2.191.117z"/>
        <path fill="#4F4F4F" d="M120.636 132.633l-1.99-.202-.216.691h2.575zM105.229 133.26l-1.991-.203-.216.691h2.576zM101.298 133.26l-1.991-.203-.216.691h2.576zM117.812 132.786l-2.112-.2-.095.689h2.576z"/>
        <g>
          <path fill="#B08246" d="M40.72 121.841c-1.599-.465-2.291-.228-2.076.712.214.94.907.703 2.076-.712z"/>
          <path fill="#A98454" d="M6.248 123.449a.249.249 0 0 0 .003-.011c.944-4.209 1.659-6.569 1.969-6.74.286-.159.48-.088.686.277a.245.245 0 0 0 .426-.24c-.33-.586-.813-.762-1.35-.465-.506.28-1.174 2.47-2.171 6.896-.578-.212-.847.476-.808 2.063 1.408-.649 1.823-1.243 1.245-1.78z"/>
          <g transform="matrix(-1 0 0 1 39.312 113.21)">
            <mask id="A" fill="#fff">
              <use xlink:href="#z"/>
            </mask>
            <use fill="#B08246" xlink:href="#z"/>
            <path fill="#D0A46C" d="M18.465 14.268c1.914.268 3.85.056 6.212-.472 1.292-.29 3.93-.102 3.93-1.311 0-2.254-1.073-1.34-3.604-2.423-1.308-.56-4.9-1.15-6.538-1.15-2.363 0-3.995-2.108-5.564-1.02-1.621 1.124-3.203.117-3.203 1.855 0 1.626.452 1.231 2.396 1.812 2.142.639 4.818 2.492 6.37 2.71z" mask="url(#A)"/>
            <path fill="#4F4F4F" d="M.33 16.14c.692 0 1.254-.562 1.254-1.254 0-.693-.562-.969-1.254-.969s-1.254.276-1.254.969c0 .692.562 1.253 1.254 1.253z" mask="url(#A)"/>
          </g>
          <path fill="#CEAD81" d="M33.308 123.081c1.308-1.03 2.038-1.07 2.191-.117.153.952-.577.991-2.191.117z"/>
          <path fill="#4F4F4F" d="M30.327 132.633l-1.992-.202-.215.691h2.575zM14.919 133.26l-1.991-.203-.216.691h2.576zM10.988 133.26l-1.991-.203-.216.691h2.576zM27.502 132.786l-2.112-.2-.095.689h2.576z"/>
        </g>
        <g>
          <path fill="#4F4F4F" d="M79.41 101.552c-1.477-.43-2.117-.211-1.918.658.198.869.838.65 1.919-.658z"/>
          <path fill="#FBF4CF" d="M50.328 112.897a.23.23 0 0 0 0-.01c-.163-3.983-.09-6.261.145-6.489.218-.21.41-.193.68.083a.226.226 0 1 0 .322-.316c-.434-.444-.908-.485-1.316-.092-.384.372-.457 2.486-.29 6.676-.566-.05-.641.628-.226 2.036 1.101-.917 1.33-1.546.685-1.888z"/>
          <g transform="matrix(-1 0 0 1 79.785 100.617)">
            <mask id="C" fill="#fff">
              <use xlink:href="#B"/>
            </mask>
            <use fill="#FBF4CF" xlink:href="#B"/>
            <path fill="#4F4F4F" d="M11.944 2.828l15.695.322v2.913c0 1.471-2.064 3.073-5.197 1.507-3.133-1.567-3.951 1.1-7.6 1.1-2.434 0-3.4-1.947-2.898-5.842zm5.829 12.9c-.68-1.54-.315-2.511 1.091-2.916 2.11-.607 2.82 2.45 4.316 1.225 1.494-1.225 2.56-3.002 4.459-1.81 1.9 1.192 1.1 2.28.53 2.384-1.502.274-1.91.653-3.654.731-1.05.048-3.297.318-6.742.813v-.427zM4.858.292c2.859.944 4.47 1.897 4.835 2.858.547 1.441-.547 2.31-1.621 1.812-1.075-.498-2.593 0-3.606 0s-1.995-1.1-.535-2.134c.973-.69 1.283-1.535.927-2.536z" mask="url(#C)"/>
          </g>
          <path fill="#FBF4CF" d="M72.56 102.698c1.208-.953 1.884-.989 2.025-.109.142.88-.534.917-2.025.109z"/>
          <path fill="#4F4F4F" d="M71.48 121.283l-1.84-.187-.2.639h2.38zM57.238 121.862l-1.84-.187-.2.639h2.381zM53.605 121.862l-1.84-.187-.2.639h2.381zM68.87 121.424l-1.953-.185-.088.637h2.381z"/>
        </g>
        <g>
          <path fill="#4F4F4F" d="M11.864 126.854c-1.6-.466-2.291-.229-2.076.711.214.94.906.703 2.076-.711z"/>
          <g transform="matrix(-1 0 0 1 10.456 118.222)">
            <mask id="E" fill="#fff">
              <use xlink:href="#D"/>
            </mask>
            <use fill="#FBF4CF" xlink:href="#D"/>
            <path fill="#4F4F4F" d="M12.921.126l16.98.348v3.151c0 1.592-3.577 2.301-4.59.967-.733-.967-.733 1.761-2.002 1.854-2.67.194-2.13-1.77-3.718-1.854-1.175-.062-2.545 1.854-3.535 1.854-2.632 0-3.677-2.107-3.135-6.32zm-15.8 2.302C-2.905 1.047-2.125.369-.542.395c.832.014.324 1.308 1.774 1.362C2 1.786 2.39.582 3.423.855c1.853.491 1.093 1.857 2.092 1.733.683-.084 1.733-1.236 2.92-.66 2.113 1.023.416 2.706-.206 2.633-1.64-.192-2.343.877-4.172.406-.824-.212-4.035.229-5.312 0-.852-.152-1.439-.851-1.76-2.097l.135-.442zm11.235 8.875c-3.066 1.1-5.075 1.36-6.026.784-1.426-.864-1.072-2.334.175-2.625 1.248-.29 2.21-1.727 3.074-2.402.864-.674 2.434-.39 1.878 1.464-.37 1.236-.071 2.162.899 2.78z" mask="url(#E)"/>
          </g>
          <path fill="#FBF4CF" d="M4.452 128.094c1.307-1.03 2.038-1.07 2.191-.118.153.952-.577.992-2.191.118z"/>
          <path fill="#4F4F4F" d="M1.47 137.645l-1.99-.202-.216.691h2.575z"/>
        </g>
        <g>
          <path fill="#B08246" d="M107.345 133.67c-1.888-.55-2.704-.27-2.451.84.254 1.11 1.07.83 2.451-.84z"/>
          <path fill="#A98454" d="M66.648 135.567a.293.293 0 0 0 .004-.013c1.115-4.968 1.959-7.754 2.324-7.957.338-.187.568-.103.81.327a.289.289 0 0 0 .504-.284c-.39-.69-.96-.899-1.594-.548-.597.331-1.386 2.916-2.564 8.141-.682-.25-1 .562-.953 2.436 1.662-.766 2.152-1.467 1.47-2.102z"/>
          <g transform="matrix(-1 0 0 1 105.683 123.479)">
            <mask id="G" fill="#fff">
              <use xlink:href="#F"/>
            </mask>
            <use fill="#B08246" xlink:href="#F"/>
            <path fill="#D0A46C" d="M21.8 16.844c2.26.316 4.545.067 7.333-.557 1.525-.341 4.64-.12 4.64-1.548 0-2.66-1.267-1.582-4.255-2.86-1.545-.66-5.785-1.359-7.719-1.359-2.79 0-4.716-2.487-6.568-1.204-1.914 1.328-3.782.139-3.782 2.19 0 1.92.534 1.455 2.828 2.14 2.53.755 5.689 2.942 7.522 3.198z" mask="url(#G)"/>
            <path fill="#4F4F4F" d="M.39 19.053a1.48 1.48 0 0 0 1.48-1.48c0-.817-.663-1.143-1.48-1.143-.818 0-1.48.326-1.48 1.143 0 .818.662 1.48 1.48 1.48z" mask="url(#G)"/>
          </g>
          <path fill="#CEAD81" d="M98.594 135.133c1.544-1.216 2.407-1.263 2.588-.139.18 1.125-.682 1.17-2.588.14z"/>
          <path fill="#4F4F4F" d="M95.075 146.41l-2.35-.239-.255.816h3.04zM76.885 147.149l-2.35-.239-.255.816h3.04zM72.245 147.149l-2.351-.239-.255.816h3.041zM91.74 146.59l-2.493-.236-.112.814h3.04z"/>
        </g>
        <g>
          <path fill="#4F4F4F" d="M39.72 159.049c-2.059-.6-2.95-.295-2.673.916.276 1.211 1.168.906 2.674-.916z"/>
          <g transform="matrix(-1 0 0 1 37.907 147.93)">
            <mask id="I" fill="#fff">
              <use xlink:href="#H"/>
            </mask>
            <use fill="#FBF4CF" xlink:href="#H"/>
            <path fill="#4F4F4F" d="M16.644.162L38.517.61v4.06c0 2.05-4.608 2.964-5.913 1.245-.945-1.245-.945 2.269-2.58 2.388-3.439.25-2.742-2.28-4.789-2.388-1.514-.08-3.278 2.388-4.553 2.388-3.39 0-4.737-2.714-4.038-8.141zM-3.709 3.127C-3.74 1.348-2.736.475-.696.51.375.527-.28 2.193 1.588 2.263 2.578 2.3 3.08.75 4.409 1.102c2.387.632 1.408 2.391 2.694 2.232.88-.109 2.233-1.592 3.762-.852 2.722 1.319.537 3.488-.265 3.394-2.113-.248-3.018 1.128-5.374.523-1.062-.273-5.197.293-6.843 0-1.097-.196-1.853-1.097-2.266-2.702l.174-.57zM10.763 14.56c-3.95 1.415-6.537 1.752-7.761 1.01-1.837-1.114-1.382-3.007.225-3.382s2.848-2.225 3.96-3.094c1.112-.869 3.135-.503 2.419 1.885-.478 1.592-.092 2.786 1.157 3.58z" mask="url(#I)"/>
          </g>
          <path fill="#FBF4CF" d="M30.173 160.646c1.685-1.328 2.626-1.378 2.823-.152.197 1.227-.744 1.277-2.823.152z"/>
          <path fill="#4F4F4F" d="M26.333 172.95l-2.565-.26-.277.89h3.317zM6.487 173.756l-2.565-.26-.278.89h3.318zM1.423 173.756l-2.565-.26-.277.89h3.317zM22.695 173.146l-2.72-.257-.123.887h3.318z"/>
        </g>
      </g>
    </g>
  </g>
</svg>
