<svg xmlns="http://www.w3.org/2000/svg" xmlns:xlink="http://www.w3.org/1999/xlink" viewBox="0 0 1600 488">
  <defs>
    <path id="a" d="M16.47 0c1.753 2.971 2.798 5.062 3.134 6.272.76 2.734-.046 4.842.355 6.323.644 2.38 2.892 4.55 3.402 6.514.674 2.592-.44 4.821 0 6.687.512 2.17 2.375 4.314 2.836 6.43.487 2.239-.43 4.447 0 6.625.458 2.315 2.037 4.596 2.43 6.843.421 2.4-.347 4.763 0 7.085.31 2.071 1.351 4.174 1.622 6.307.27 2.129-.23 4.288 0 6.479.229 2.176 1.288 4.383 1.478 6.621.188 2.215-.492 4.46-.341 6.735.122 1.85 1.12 3.95 1.225 6.496.083 2.001-.723 4.317-.65 6.748.046 1.562.585 3.793.65 6.692.029 1.29-.084 3.524-.34 6.701H.668c-.44-3.183-.662-5.422-.667-6.719-.012-2.893.614-5.134.63-6.722.023-2.416-.65-4.65-.588-6.7.074-2.477.893-4.687 1.022-6.632.148-2.215-.51-4.452-.306-6.712.195-2.172 1.25-4.365 1.496-6.578.237-2.125-.284-4.27 0-6.432.273-2.077 1.348-4.172 1.665-6.284.363-2.424-.407-4.825 0-7.203.401-2.35 1.978-4.678 2.422-6.983.438-2.274-.479-4.525 0-6.755.472-2.194 2.34-4.367 2.852-6.519.465-1.955-.695-4.198 0-6.728.542-1.973 2.893-4.12 3.575-6.443.426-1.451-.805-3.386 0-6.016.357-1.165 1.59-3.21 3.702-6.132z"/>
    <path id="c" d="M16.47 0c1.753 2.971 2.798 5.062 3.134 6.272.76 2.734-.046 4.842.355 6.323.644 2.38 2.892 4.55 3.402 6.514.674 2.592-.44 4.821 0 6.687.512 2.17 2.375 4.314 2.836 6.43.487 2.239-.43 4.447 0 6.625.458 2.315 2.037 4.596 2.43 6.843.421 2.4-.347 4.763 0 7.085.31 2.071 1.351 4.174 1.622 6.307.27 2.129-.23 4.288 0 6.479.229 2.176 1.288 4.383 1.478 6.621.188 2.215-.492 4.46-.341 6.735.122 1.85 1.12 3.95 1.225 6.496.083 2.001-.723 4.317-.65 6.748.046 1.562.585 3.793.65 6.692.029 1.29-.084 3.524-.34 6.701H.668c-.44-3.183-.662-5.422-.667-6.719-.012-2.893.614-5.134.63-6.722.023-2.416-.65-4.65-.588-6.7.074-2.477.893-4.687 1.022-6.632.148-2.215-.51-4.452-.306-6.712.195-2.172 1.25-4.365 1.496-6.578.237-2.125-.284-4.27 0-6.432.273-2.077 1.348-4.172 1.665-6.284.363-2.424-.407-4.825 0-7.203.401-2.35 1.978-4.678 2.422-6.983.438-2.274-.479-4.525 0-6.755.472-2.194 2.34-4.367 2.852-6.519.465-1.955-.695-4.198 0-6.728.542-1.973 2.893-4.12 3.575-6.443.426-1.451-.805-3.386 0-6.016.357-1.165 1.59-3.21 3.702-6.132z"/>
    <path id="e" d="M16.47 0c1.753 2.971 2.798 5.062 3.134 6.272.76 2.734-.046 4.842.355 6.323.644 2.38 2.892 4.55 3.402 6.514.674 2.592-.44 4.821 0 6.687.512 2.17 2.375 4.314 2.836 6.43.487 2.239-.43 4.447 0 6.625.458 2.315 2.037 4.596 2.43 6.843.421 2.4-.347 4.763 0 7.085.31 2.071 1.351 4.174 1.622 6.307.27 2.129-.23 4.288 0 6.479.229 2.176 1.288 4.383 1.478 6.621.188 2.215-.492 4.46-.341 6.735.122 1.85 1.12 3.95 1.225 6.496.083 2.001-.723 4.317-.65 6.748.046 1.562.585 3.793.65 6.692.029 1.29-.084 3.524-.34 6.701H.668c-.44-3.183-.662-5.422-.667-6.719-.012-2.893.614-5.134.63-6.722.023-2.416-.65-4.65-.588-6.7.074-2.477.893-4.687 1.022-6.632.148-2.215-.51-4.452-.306-6.712.195-2.172 1.25-4.365 1.496-6.578.237-2.125-.284-4.27 0-6.432.273-2.077 1.348-4.172 1.665-6.284.363-2.424-.407-4.825 0-7.203.401-2.35 1.978-4.678 2.422-6.983.438-2.274-.479-4.525 0-6.755.472-2.194 2.34-4.367 2.852-6.519.465-1.955-.695-4.198 0-6.728.542-1.973 2.893-4.12 3.575-6.443.426-1.451-.805-3.386 0-6.016.357-1.165 1.59-3.21 3.702-6.132z"/>
    <path id="g" d="M16.47 0c1.753 2.971 2.798 5.062 3.134 6.272.76 2.734-.046 4.842.355 6.323.644 2.38 2.892 4.55 3.402 6.514.674 2.592-.44 4.821 0 6.687.512 2.17 2.375 4.314 2.836 6.43.487 2.239-.43 4.447 0 6.625.458 2.315 2.037 4.596 2.43 6.843.421 2.4-.347 4.763 0 7.085.31 2.071 1.351 4.174 1.622 6.307.27 2.129-.23 4.288 0 6.479.229 2.176 1.288 4.383 1.478 6.621.188 2.215-.492 4.46-.341 6.735.122 1.85 1.12 3.95 1.225 6.496.083 2.001-.723 4.317-.65 6.748.046 1.562.585 3.793.65 6.692.029 1.29-.084 3.524-.34 6.701H.668c-.44-3.183-.662-5.422-.667-6.719-.012-2.893.614-5.134.63-6.722.023-2.416-.65-4.65-.588-6.7.074-2.477.893-4.687 1.022-6.632.148-2.215-.51-4.452-.306-6.712.195-2.172 1.25-4.365 1.496-6.578.237-2.125-.284-4.27 0-6.432.273-2.077 1.348-4.172 1.665-6.284.363-2.424-.407-4.825 0-7.203.401-2.35 1.978-4.678 2.422-6.983.438-2.274-.479-4.525 0-6.755.472-2.194 2.34-4.367 2.852-6.519.465-1.955-.695-4.198 0-6.728.542-1.973 2.893-4.12 3.575-6.443.426-1.451-.805-3.386 0-6.016.357-1.165 1.59-3.21 3.702-6.132z"/>
    <path id="i" d="M16.47 0c1.753 2.971 2.798 5.062 3.134 6.272.76 2.734-.046 4.842.355 6.323.644 2.38 2.892 4.55 3.402 6.514.674 2.592-.44 4.821 0 6.687.512 2.17 2.375 4.314 2.836 6.43.487 2.239-.43 4.447 0 6.625.458 2.315 2.037 4.596 2.43 6.843.421 2.4-.347 4.763 0 7.085.31 2.071 1.351 4.174 1.622 6.307.27 2.129-.23 4.288 0 6.479.229 2.176 1.288 4.383 1.478 6.621.188 2.215-.492 4.46-.341 6.735.122 1.85 1.12 3.95 1.225 6.496.083 2.001-.723 4.317-.65 6.748.046 1.562.585 3.793.65 6.692.029 1.29-.084 3.524-.34 6.701H.668c-.44-3.183-.662-5.422-.667-6.719-.012-2.893.614-5.134.63-6.722.023-2.416-.65-4.65-.588-6.7.074-2.477.893-4.687 1.022-6.632.148-2.215-.51-4.452-.306-6.712.195-2.172 1.25-4.365 1.496-6.578.237-2.125-.284-4.27 0-6.432.273-2.077 1.348-4.172 1.665-6.284.363-2.424-.407-4.825 0-7.203.401-2.35 1.978-4.678 2.422-6.983.438-2.274-.479-4.525 0-6.755.472-2.194 2.34-4.367 2.852-6.519.465-1.955-.695-4.198 0-6.728.542-1.973 2.893-4.12 3.575-6.443.426-1.451-.805-3.386 0-6.016.357-1.165 1.59-3.21 3.702-6.132z"/>
    <path id="k" d="M16.47 0c1.753 2.971 2.798 5.062 3.134 6.272.76 2.734-.046 4.842.355 6.323.644 2.38 2.892 4.55 3.402 6.514.674 2.592-.44 4.821 0 6.687.512 2.17 2.375 4.314 2.836 6.43.487 2.239-.43 4.447 0 6.625.458 2.315 2.037 4.596 2.43 6.843.421 2.4-.347 4.763 0 7.085.31 2.071 1.351 4.174 1.622 6.307.27 2.129-.23 4.288 0 6.479.229 2.176 1.288 4.383 1.478 6.621.188 2.215-.492 4.46-.341 6.735.122 1.85 1.12 3.95 1.225 6.496.083 2.001-.723 4.317-.65 6.748.046 1.562.585 3.793.65 6.692.029 1.29-.084 3.524-.34 6.701H.668c-.44-3.183-.662-5.422-.667-6.719-.012-2.893.614-5.134.63-6.722.023-2.416-.65-4.65-.588-6.7.074-2.477.893-4.687 1.022-6.632.148-2.215-.51-4.452-.306-6.712.195-2.172 1.25-4.365 1.496-6.578.237-2.125-.284-4.27 0-6.432.273-2.077 1.348-4.172 1.665-6.284.363-2.424-.407-4.825 0-7.203.401-2.35 1.978-4.678 2.422-6.983.438-2.274-.479-4.525 0-6.755.472-2.194 2.34-4.367 2.852-6.519.465-1.955-.695-4.198 0-6.728.542-1.973 2.893-4.12 3.575-6.443.426-1.451-.805-3.386 0-6.016.357-1.165 1.59-3.21 3.702-6.132z"/>
    <path id="m" d="M13.945 0c4.863 16.43 8.295 31.327 10.295 44.69 2 13.364 3.03 28.26 3.086 44.69H.566C-.01 75.682.908 60.786 3.317 44.69 5.728 28.595 9.27 13.698 13.945 0z"/>
    <path id="o" d="M13.945 0c4.863 16.43 8.295 31.327 10.295 44.69 2 13.364 3.03 28.26 3.086 44.69H.566C-.01 75.682.908 60.786 3.317 44.69 5.728 28.595 9.27 13.698 13.945 0z"/>
    <path id="q" d="M14.866 0c5.184 17.515 8.842 33.395 10.974 47.64 2.133 14.246 3.23 30.126 3.29 47.641H.602C-.01 80.68.97 64.8 3.537 47.641 6.106 30.483 9.882 14.602 14.867 0z"/>
    <path id="s" d="M14.866 0c5.184 17.515 8.842 33.395 10.974 47.64 2.133 14.246 3.23 30.126 3.29 47.641H.602C-.01 80.68.97 64.8 3.537 47.641 6.106 30.483 9.882 14.602 14.867 0z"/>
    <path id="u" d="M14.866 0c5.184 17.515 8.842 33.395 10.974 47.64 2.133 14.246 3.23 30.126 3.29 47.641H.602C-.01 80.68.97 64.8 3.537 47.641 6.106 30.483 9.882 14.602 14.867 0z"/>
    <path id="w" d="M14.866 0c5.184 17.515 8.842 33.395 10.974 47.64 2.133 14.246 3.23 30.126 3.29 47.641H.602C-.01 80.68.97 64.8 3.537 47.641 6.106 30.483 9.882 14.602 14.867 0z"/>
    <path id="y" d="M14.866 0c5.184 17.515 8.842 33.395 10.974 47.64 2.133 14.246 3.23 30.126 3.29 47.641H.602C-.01 80.68.97 64.8 3.537 47.641 6.106 30.483 9.882 14.602 14.867 0z"/>
    <path id="A" d="M0 28.753C136.698 9.789 256.161.307 358.39.307c58.274 0 316.628 34.113 553.122 33.704 233.745-.404 265.678-25.508 392.117-25.369 80.689.09 179.479 6.793 296.371 20.11v360.555H0V28.753z"/>
    <path id="C" d="M18.186 0c1.937 3.281 3.09 5.59 3.461 6.926.839 3.02-.05 5.347.392 6.982.712 2.628 3.194 5.025 3.758 7.193.744 2.862-.486 5.324 0 7.384.564 2.397 2.622 4.764 3.13 7.1.539 2.473-.475 4.91 0 7.316.506 2.556 2.25 5.075 2.685 7.556.464 2.651-.384 5.26 0 7.824.342 2.287 1.491 4.609 1.79 6.965.298 2.35-.254 4.734 0 7.153.253 2.404 1.422 4.84 1.632 7.312.208 2.446-.543 4.925-.377 7.437.135 2.043 1.237 4.361 1.353 7.173.092 2.21-.798 4.766-.718 7.45.052 1.726.646 4.19.718 7.39.032 1.426-.093 3.892-.374 7.4H.737c-.485-3.514-.731-5.987-.737-7.42-.013-3.194.678-5.668.695-7.422.027-2.668-.717-5.134-.649-7.398.082-2.735.986-5.176 1.13-7.323.163-2.447-.564-4.917-.34-7.412.217-2.399 1.381-4.82 1.653-7.264.262-2.346-.313-4.714 0-7.102.301-2.294 1.489-4.607 1.838-6.94.4-2.676-.449-5.327 0-7.953.444-2.595 2.185-5.166 2.675-7.711.484-2.51-.529-4.997 0-7.46.521-2.422 2.584-4.821 3.149-7.197.513-2.16-.767-4.636 0-7.43.598-2.179 3.195-4.55 3.948-7.115.47-1.602-.889-3.739 0-6.643.394-1.287 1.756-3.544 4.087-6.771z"/>
    <linearGradient id="E" x1="14.385%" x2="72.438%" y1="40.454%" y2="21.042%">
      <stop offset="0%" stop-color="#9298A6"/>
      <stop offset="100%" stop-color="#8C92A1"/>
    </linearGradient>
    <path id="F" d="M11.888 6.219c6.056 0 10.987-1.121 10.987-2.562C22.875 2.216 17.944 1 11.888 1S1 2.315 1 3.757c0 1.44 4.832 2.462 10.888 2.462z"/>
    <path id="H" d="M16.644 0c1.772 3.003 2.828 5.116 3.168 6.338.767 2.764-.047 4.894.358 6.39.652 2.405 2.923 4.6 3.439 6.583.681 2.62-.444 4.873 0 6.759.517 2.193 2.4 4.36 2.866 6.498.492 2.262-.436 4.494 0 6.695.462 2.34 2.058 4.645 2.456 6.915.425 2.426-.351 4.813 0 7.16.313 2.094 1.365 4.218 1.639 6.375.272 2.15-.233 4.333 0 6.546.231 2.2 1.301 4.43 1.493 6.692.19 2.239-.497 4.508-.345 6.807.124 1.87 1.132 3.99 1.239 6.564.083 2.022-.731 4.362-.658 6.82.048 1.578.592 3.833.658 6.762.029 1.305-.085 3.562-.343 6.773H.674c-.444-3.217-.669-5.48-.674-6.79-.012-2.924.62-5.189.636-6.794.024-2.441-.656-4.698-.594-6.771.075-2.503.902-4.737 1.034-6.702.15-2.239-.516-4.5-.31-6.783.197-2.195 1.263-4.411 1.512-6.648.24-2.147-.287-4.314 0-6.5.276-2.1 1.363-4.216 1.682-6.35.367-2.45-.41-4.877 0-7.28.406-2.375 2-4.728 2.449-7.057.442-2.298-.485-4.573 0-6.827.476-2.217 2.364-4.413 2.881-6.587.47-1.977-.702-4.243 0-6.8.548-1.994 2.924-4.164 3.613-6.511.43-1.467-.813-3.422 0-6.08.36-1.178 1.608-3.244 3.741-6.197z"/>
    <path id="J" d="M16.644 0c1.772 3.003 2.828 5.116 3.168 6.338.767 2.764-.047 4.894.358 6.39.652 2.405 2.923 4.6 3.439 6.583.681 2.62-.444 4.873 0 6.759.517 2.193 2.4 4.36 2.866 6.498.492 2.262-.436 4.494 0 6.695.462 2.34 2.058 4.645 2.456 6.915.425 2.426-.351 4.813 0 7.16.313 2.094 1.365 4.218 1.639 6.375.272 2.15-.233 4.333 0 6.546.231 2.2 1.301 4.43 1.493 6.692.19 2.239-.497 4.508-.345 6.807.124 1.87 1.132 3.99 1.239 6.564.083 2.022-.731 4.362-.658 6.82.048 1.578.592 3.833.658 6.762.029 1.305-.085 3.562-.343 6.773H.674c-.444-3.217-.669-5.48-.674-6.79-.012-2.924.62-5.189.636-6.794.024-2.441-.656-4.698-.594-6.771.075-2.503.902-4.737 1.034-6.702.15-2.239-.516-4.5-.31-6.783.197-2.195 1.263-4.411 1.512-6.648.24-2.147-.287-4.314 0-6.5.276-2.1 1.363-4.216 1.682-6.35.367-2.45-.41-4.877 0-7.28.406-2.375 2-4.728 2.449-7.057.442-2.298-.485-4.573 0-6.827.476-2.217 2.364-4.413 2.881-6.587.47-1.977-.702-4.243 0-6.8.548-1.994 2.924-4.164 3.613-6.511.43-1.467-.813-3.422 0-6.08.36-1.178 1.608-3.244 3.741-6.197z"/>
    <path id="L" d="M16.644 0c1.772 3.003 2.828 5.116 3.168 6.338.767 2.764-.047 4.894.358 6.39.652 2.405 2.923 4.6 3.439 6.583.681 2.62-.444 4.873 0 6.759.517 2.193 2.4 4.36 2.866 6.498.492 2.262-.436 4.494 0 6.695.462 2.34 2.058 4.645 2.456 6.915.425 2.426-.351 4.813 0 7.16.313 2.094 1.365 4.218 1.639 6.375.272 2.15-.233 4.333 0 6.546.231 2.2 1.301 4.43 1.493 6.692.19 2.239-.497 4.508-.345 6.807.124 1.87 1.132 3.99 1.239 6.564.083 2.022-.731 4.362-.658 6.82.048 1.578.592 3.833.658 6.762.029 1.305-.085 3.562-.343 6.773H.674c-.444-3.217-.669-5.48-.674-6.79-.012-2.924.62-5.189.636-6.794.024-2.441-.656-4.698-.594-6.771.075-2.503.902-4.737 1.034-6.702.15-2.239-.516-4.5-.31-6.783.197-2.195 1.263-4.411 1.512-6.648.24-2.147-.287-4.314 0-6.5.276-2.1 1.363-4.216 1.682-6.35.367-2.45-.41-4.877 0-7.28.406-2.375 2-4.728 2.449-7.057.442-2.298-.485-4.573 0-6.827.476-2.217 2.364-4.413 2.881-6.587.47-1.977-.702-4.243 0-6.8.548-1.994 2.924-4.164 3.613-6.511.43-1.467-.813-3.422 0-6.08.36-1.178 1.608-3.244 3.741-6.197z"/>
    <path id="N" d="M0 0h523v55.614H0z"/>
    <path id="P" d="M15.794 20.41c-1.507.036-2.467.232-2.88.59-3.815 3.302-4.9 6.758-5.434 7.878-.94 1.974-6.349 3.54-6.4-1.201-.051-4.741-1.583-10.444 1.664-12.395 2.641-1.587 6.957-8.885 9.898-12.001.76-1.466 2.107-2.537 5.172-2.892 3.961-.46 12.037 1.628 16.84 1.919 10.941.66 21.07-1.92 26.74.632 3.545 1.594 4.503 8.299 2.875 20.112l.028-.01v5.588c0 2.098-.856 6.476-2.568 13.134h-4.363c2.909-3.824 4.363-7.057 4.363-9.698 0-2.228-1.035-4.138-3.105-5.73-.81.126-1.597.245-2.358.358v1.936c0 2.098-.857 6.476-2.569 13.134h-4.363c2.909-3.824 4.363-7.057 4.363-9.698 0-1.783-.663-3.362-1.988-4.738-4.242.548-7.445.821-9.609.821-4.342 0-7.987-1.7-11.314-3.023v2.167c0 2.098-.856 6.515-2.568 13.25h-4.364c2.311-3.806 3.466-7.03 3.466-9.672 0-2.245.668-5.025-1.103-7.166-.52-.1-1.021-.178-1.5-.238v3.943c0 2.097-.856 6.475-2.569 13.133h-4.363c2.909-3.824 4.363-7.057 4.363-9.698 0-2.485-1.684-4.687-4.259-6.891a1.127 1.127 0 0 1-.237-.343 66.866 66.866 0 0 1-1.858-3.2z"/>
    <path id="R" d="M15.794 20.41c-1.507.036-2.467.232-2.88.59-3.815 3.302-4.9 6.758-5.434 7.878-.94 1.974-6.349 3.54-6.4-1.201-.051-4.741-1.583-10.444 1.664-12.395 2.641-1.587 6.957-8.885 9.898-12.001.76-1.466 2.107-2.537 5.172-2.892 3.961-.46 12.037 1.628 16.84 1.919 10.941.66 21.07-1.92 26.74.632 3.545 1.594 4.503 8.299 2.875 20.112l.028-.01v5.588c0 2.098-.856 6.476-2.568 13.134h-4.363c2.909-3.824 4.363-7.057 4.363-9.698 0-2.228-1.035-4.138-3.105-5.73-.81.126-1.597.245-2.358.358v1.936c0 2.098-.857 6.476-2.569 13.134h-4.363c2.909-3.824 4.363-7.057 4.363-9.698 0-1.783-.663-3.362-1.988-4.738-4.242.548-7.445.821-9.609.821-4.342 0-7.987-1.7-11.314-3.023v2.167c0 2.098-.856 6.515-2.568 13.25h-4.364c2.311-3.806 3.466-7.03 3.466-9.672 0-2.245.668-5.025-1.103-7.166-.52-.1-1.021-.178-1.5-.238v3.943c0 2.097-.856 6.475-2.569 13.133h-4.363c2.909-3.824 4.363-7.057 4.363-9.698 0-2.485-1.684-4.687-4.259-6.891a1.127 1.127 0 0 1-.237-.343 66.866 66.866 0 0 1-1.858-3.2z"/>
    <path id="T" d="M10.58 13.61l-.025.013c-2.544-.744-4.378-.744-5.502 0-1.685 1.117-6.715-.217-4.498-3.998C2.77 5.845 4.272.597 7.774.597c3.501 0 4.64 4.646 7.127 5.247.24.058.493.118.76.18.253-.046.521-.086.805-.119 3.661-.425 11.126 1.506 15.565 1.774 10.114.611 19.476-1.774 24.717.584 3.276 1.474 4.162 7.67 2.657 18.59l.026-.009v5.165c0 1.94-.791 5.986-2.374 12.14h-4.033c2.689-3.535 4.033-6.523 4.033-8.964 0-2.06-.957-3.825-2.87-5.296-.75.116-1.476.227-2.18.33v1.79c0 1.94-.791 5.986-2.374 12.14H45.6c2.689-3.535 4.033-6.523 4.033-8.964 0-1.648-.612-3.108-1.838-4.38-3.92.507-6.88.76-8.881.76-4.013 0-7.383-1.572-10.458-2.795v2.004c0 1.938-.791 6.02-2.374 12.247H22.05c2.136-3.519 3.204-6.499 3.204-8.94 0-2.076.616-4.645-1.02-6.624a21.497 21.497 0 0 0-1.387-.22v3.644c0 1.939-.791 5.985-2.374 12.14h-4.033c2.689-3.535 4.033-6.523 4.033-8.964 0-2.298-1.557-4.333-3.937-6.37a1.042 1.042 0 0 1-.219-.317c-.881-1.417-5.367-8.841-5.736-13.76z"/>
    <path id="V" d="M15.794 20.41c-1.507.036-2.467.232-2.88.59-3.815 3.302-4.9 6.758-5.434 7.878-.94 1.974-6.349 3.54-6.4-1.201-.051-4.741-1.583-10.444 1.664-12.395 2.641-1.587 6.957-8.885 9.898-12.001.76-1.466 2.107-2.537 5.172-2.892 3.961-.46 12.037 1.628 16.84 1.919 10.941.66 21.07-1.92 26.74.632 3.545 1.594 4.503 8.299 2.875 20.112l.028-.01v5.588c0 2.098-.856 6.476-2.568 13.134h-4.363c2.909-3.824 4.363-7.057 4.363-9.698 0-2.228-1.035-4.138-3.105-5.73-.81.126-1.597.245-2.358.358v1.936c0 2.098-.857 6.476-2.569 13.134h-4.363c2.909-3.824 4.363-7.057 4.363-9.698 0-1.783-.663-3.362-1.988-4.738-4.242.548-7.445.821-9.609.821-4.342 0-7.987-1.7-11.314-3.023v2.167c0 2.098-.856 6.515-2.568 13.25h-4.364c2.311-3.806 3.466-7.03 3.466-9.672 0-2.245.668-5.025-1.103-7.166-.52-.1-1.021-.178-1.5-.238v3.943c0 2.097-.856 6.475-2.569 13.133h-4.363c2.909-3.824 4.363-7.057 4.363-9.698 0-2.485-1.684-4.687-4.259-6.891a1.127 1.127 0 0 1-.237-.343 66.866 66.866 0 0 1-1.858-3.2z"/>
    <path id="X" d="M18.646 24.096c-1.779.041-2.912.273-3.4.696-4.504 3.898-5.786 7.978-6.415 9.3-1.11 2.331-7.495 4.18-7.556-1.418-.06-5.597-1.87-12.329 1.965-14.632 3.118-1.874 8.213-10.49 11.684-14.169.898-1.73 2.488-2.994 6.107-3.414 4.676-.543 14.21 1.923 19.88 2.265 12.918.78 24.876-2.265 31.57.747 4.184 1.882 5.315 9.797 3.393 23.744l.034-.012V33.8c0 2.476-1.011 7.645-3.033 15.506h-5.15c3.433-4.515 5.15-8.332 5.15-11.45 0-2.63-1.221-4.885-3.665-6.764-.958.149-1.886.29-2.784.422V33.8c0 2.476-1.011 7.645-3.033 15.506h-5.15c3.433-4.515 5.15-8.332 5.15-11.45 0-2.105-.782-3.97-2.347-5.593-5.008.646-8.789.97-11.344.97-5.126 0-9.429-2.008-13.357-3.57v2.559c0 2.476-1.01 7.69-3.032 15.642h-5.151c2.728-4.494 4.092-8.3 4.092-11.418 0-2.651.787-5.932-1.303-8.46a27.457 27.457 0 0 0-1.771-.282v4.655c0 2.476-1.01 7.645-3.032 15.505h-5.152c3.435-4.514 5.152-8.331 5.152-11.45 0-2.933-1.989-5.533-5.029-8.135-.089-.076-.182-.21-.28-.404a78.94 78.94 0 0 1-2.193-3.779z"/>
    <path id="Z" d="M20.344 26.29c-1.94.046-3.177.3-3.71.76-4.913 4.254-6.312 8.705-6.999 10.147-1.212 2.544-8.178 4.56-8.244-1.547-.066-6.107-2.04-13.452 2.144-15.965C6.937 17.64 12.495 8.24 16.284 4.226c.979-1.888 2.714-3.267 6.663-3.725 5.102-.592 15.504 2.098 21.691 2.471 14.094.852 27.141-2.471 34.445.815 4.565 2.054 5.8 10.69 3.702 25.907l.037-.013v7.198c0 2.702-1.103 8.341-3.309 16.918h-5.62c3.747-4.926 5.62-9.09 5.62-12.493 0-2.87-1.333-5.33-4-7.38a444.87 444.87 0 0 1-3.037.46v2.495c0 2.702-1.103 8.341-3.308 16.918h-5.62c3.746-4.926 5.62-9.09 5.62-12.493 0-2.297-.854-4.33-2.562-6.102-5.463.705-9.59 1.057-12.377 1.057-5.592 0-10.288-2.19-14.573-3.894v2.792c0 2.702-1.103 8.39-3.309 17.067h-5.62c2.976-4.903 4.464-9.056 4.464-12.459 0-2.892.86-6.472-1.421-9.23-.67-.13-1.315-.23-1.932-.307v5.078c0 2.702-1.103 8.341-3.309 16.918h-5.62c3.747-4.926 5.62-9.09 5.62-12.492 0-3.201-2.169-6.038-5.486-8.877-.097-.083-.199-.23-.305-.441a86.13 86.13 0 0 1-2.394-4.123z"/>
    <path id="ab" d="M15.794 20.41c-1.507.036-2.467.232-2.88.59-3.815 3.302-4.9 6.758-5.434 7.878-.94 1.974-6.349 3.54-6.4-1.201-.051-4.741-1.583-10.444 1.664-12.395 2.641-1.587 6.957-8.885 9.898-12.001.76-1.466 2.107-2.537 5.172-2.892 3.961-.46 12.037 1.628 16.84 1.919 10.941.66 21.07-1.92 26.74.632 3.545 1.594 4.503 8.299 2.875 20.112l.028-.01v5.588c0 2.098-.856 6.476-2.568 13.134h-4.363c2.909-3.824 4.363-7.057 4.363-9.698 0-2.228-1.035-4.138-3.105-5.73-.81.126-1.597.245-2.358.358v1.936c0 2.098-.857 6.476-2.569 13.134h-4.363c2.909-3.824 4.363-7.057 4.363-9.698 0-1.783-.663-3.362-1.988-4.738-4.242.548-7.445.821-9.609.821-4.342 0-7.987-1.7-11.314-3.023v2.167c0 2.098-.856 6.515-2.568 13.25h-4.364c2.311-3.806 3.466-7.03 3.466-9.672 0-2.245.668-5.025-1.103-7.166-.52-.1-1.021-.178-1.5-.238v3.943c0 2.097-.856 6.475-2.569 13.133h-4.363c2.909-3.824 4.363-7.057 4.363-9.698 0-2.485-1.684-4.687-4.259-6.891a1.127 1.127 0 0 1-.237-.343 66.866 66.866 0 0 1-1.858-3.2z"/>
  </defs>
  <g fill="none" fill-rule="evenodd">
    <g transform="translate(703.434 23.414)">
      <mask id="b" fill="#fff">
        <use xlink:href="#a"/>
      </mask>
      <use fill="#699A68" xlink:href="#a"/>
      <g stroke="#3A514E" mask="url(#b)">
        <path stroke-linecap="round" stroke-width="2" d="M16.372.883v107.325"/>
        <path stroke-linecap="square" d="M16.372 104.866L-1.767 91.21l18.139 13.656L34.51 91.21l-18.138 13.656zm0 0l.012.01-.012-.01-.013.01.013-.01zm0-16.79L-1.767 74.418l18.139 13.656L34.51 74.42 16.372 88.075zm0 0l-.013.008.013-.009.012.01-.012-.01zm0-16.791L-1.767 57.629l18.139 13.656L34.51 57.629 16.372 71.285zm0 0l.012.009-.012-.01-.013.01.013-.01zm0-16.791L-1.767 40.838l18.139 13.656L34.51 40.838 16.372 54.494zm0 0l-.013.01.013-.01.012.01-.012-.01zm0-16.79L-1.767 24.047l18.139 13.655L34.51 24.048 16.372 37.703zm0 0l-.013.009.013-.01.012.01-.012-.01zm0-16.791L-1.767 7.257l18.139 13.656L34.51 7.257 16.372 20.913zm0 0l-.013.01.013-.01.012.01-.012-.01z"/>
      </g>
    </g>
    <g transform="translate(169.504 9.414)">
      <mask id="d" fill="#fff">
        <use xlink:href="#c"/>
      </mask>
      <use fill="#699A68" xlink:href="#c"/>
      <g stroke="#3A514E" mask="url(#d)">
        <path stroke-linecap="round" stroke-width="2" d="M16.372.883v107.325"/>
        <path stroke-linecap="square" d="M16.372 104.866L-1.767 91.21l18.139 13.656L34.51 91.21l-18.138 13.656zm0 0l.012.01-.012-.01-.013.01.013-.01zm0-16.79L-1.767 74.418l18.139 13.656L34.51 74.42 16.372 88.075zm0 0l-.013.008.013-.009.012.01-.012-.01zm0-16.791L-1.767 57.629l18.139 13.656L34.51 57.629 16.372 71.285zm0 0l.012.009-.012-.01-.013.01.013-.01zm0-16.791L-1.767 40.838l18.139 13.656L34.51 40.838 16.372 54.494zm0 0l-.013.01.013-.01.012.01-.012-.01zm0-16.79L-1.767 24.047l18.139 13.655L34.51 24.048 16.372 37.703zm0 0l-.013.009.013-.01.012.01-.012-.01zm0-16.791L-1.767 7.257l18.139 13.656L34.51 7.257 16.372 20.913zm0 0l-.013.01.013-.01.012.01-.012-.01z"/>
      </g>
    </g>
    <g transform="translate(169.504 9.414)">
      <mask id="f" fill="#fff">
        <use xlink:href="#e"/>
      </mask>
      <use fill="#699A68" xlink:href="#e"/>
      <g stroke="#3A514E" mask="url(#f)">
        <path stroke-linecap="round" stroke-width="2" d="M16.372.883v107.325"/>
        <path stroke-linecap="square" d="M16.372 104.866L-1.767 91.21l18.139 13.656L34.51 91.21l-18.138 13.656zm0 0l.012.01-.012-.01-.013.01.013-.01zm0-16.79L-1.767 74.418l18.139 13.656L34.51 74.42 16.372 88.075zm0 0l-.013.008.013-.009.012.01-.012-.01zm0-16.791L-1.767 57.629l18.139 13.656L34.51 57.629 16.372 71.285zm0 0l.012.009-.012-.01-.013.01.013-.01zm0-16.791L-1.767 40.838l18.139 13.656L34.51 40.838 16.372 54.494zm0 0l-.013.01.013-.01.012.01-.012-.01zm0-16.79L-1.767 24.047l18.139 13.655L34.51 24.048 16.372 37.703zm0 0l-.013.009.013-.01.012.01-.012-.01zm0-16.791L-1.767 7.257l18.139 13.656L34.51 7.257 16.372 20.913zm0 0l-.013.01.013-.01.012.01-.012-.01z"/>
      </g>
    </g>
    <g transform="translate(49.424 21.414)">
      <mask id="h" fill="#fff">
        <use xlink:href="#g"/>
      </mask>
      <use fill="#699A68" xlink:href="#g"/>
      <g stroke="#3A514E" mask="url(#h)">
        <path stroke-linecap="round" stroke-width="2" d="M16.372.883v107.325"/>
        <path stroke-linecap="square" d="M16.372 104.866L-1.767 91.21l18.139 13.656L34.51 91.21l-18.138 13.656zm0 0l.012.01-.012-.01-.013.01.013-.01zm0-16.79L-1.767 74.418l18.139 13.656L34.51 74.42 16.372 88.075zm0 0l-.013.008.013-.009.012.01-.012-.01zm0-16.791L-1.767 57.629l18.139 13.656L34.51 57.629 16.372 71.285zm0 0l.012.009-.012-.01-.013.01.013-.01zm0-16.791L-1.767 40.838l18.139 13.656L34.51 40.838 16.372 54.494zm0 0l-.013.01.013-.01.012.01-.012-.01zm0-16.79L-1.767 24.047l18.139 13.655L34.51 24.048 16.372 37.703zm0 0l-.013.009.013-.01.012.01-.012-.01zm0-16.791L-1.767 7.257l18.139 13.656L34.51 7.257 16.372 20.913zm0 0l-.013.01.013-.01.012.01-.012-.01z"/>
      </g>
    </g>
    <g transform="translate(1368.016 26.664)">
      <mask id="j" fill="#fff">
        <use xlink:href="#i"/>
      </mask>
      <use fill="#699A68" xlink:href="#i"/>
      <g stroke="#3A514E" mask="url(#j)">
        <path stroke-linecap="round" stroke-width="2" d="M16.372.883v107.325"/>
        <path stroke-linecap="square" d="M16.372 104.866L-1.767 91.21l18.139 13.656L34.51 91.21l-18.138 13.656zm0 0l.012.01-.012-.01-.013.01.013-.01zm0-16.79L-1.767 74.418l18.139 13.656L34.51 74.42 16.372 88.075zm0 0l-.013.008.013-.009.012.01-.012-.01zm0-16.791L-1.767 57.629l18.139 13.656L34.51 57.629 16.372 71.285zm0 0l.012.009-.012-.01-.013.01.013-.01zm0-16.791L-1.767 40.838l18.139 13.656L34.51 40.838 16.372 54.494zm0 0l-.013.01.013-.01.012.01-.012-.01zm0-16.79L-1.767 24.047l18.139 13.655L34.51 24.048 16.372 37.703zm0 0l-.013.009.013-.01.012.01-.012-.01zm0-16.791L-1.767 7.257l18.139 13.656L34.51 7.257 16.372 20.913zm0 0l-.013.01.013-.01.012.01-.012-.01z"/>
      </g>
    </g>
    <g transform="translate(226.922 .414)">
      <mask id="l" fill="#fff">
        <use xlink:href="#k"/>
      </mask>
      <use fill="#699A68" xlink:href="#k"/>
      <g stroke="#3A514E" mask="url(#l)">
        <path stroke-linecap="round" stroke-width="2" d="M16.372.883v107.325"/>
        <path stroke-linecap="square" d="M16.372 104.866L-1.767 91.21l18.139 13.656L34.51 91.21l-18.138 13.656zm0 0l.012.01-.012-.01-.013.01.013-.01zm0-16.79L-1.767 74.418l18.139 13.656L34.51 74.42 16.372 88.075zm0 0l-.013.008.013-.009.012.01-.012-.01zm0-16.791L-1.767 57.629l18.139 13.656L34.51 57.629 16.372 71.285zm0 0l.012.009-.012-.01-.013.01.013-.01zm0-16.791L-1.767 40.838l18.139 13.656L34.51 40.838 16.372 54.494zm0 0l-.013.01.013-.01.012.01-.012-.01zm0-16.79L-1.767 24.047l18.139 13.655L34.51 24.048 16.372 37.703zm0 0l-.013.009.013-.01.012.01-.012-.01zm0-16.791L-1.767 7.257l18.139 13.656L34.51 7.257 16.372 20.913zm0 0l-.013.01.013-.01.012.01-.012-.01z"/>
      </g>
    </g>
    <path fill="#40645D" d="M701.196 48.856c4.332 14.639 7.39 27.91 9.172 39.817 1.783 11.906 2.699 25.178 2.75 39.817h-23.843c-.512-12.205.306-25.477 2.453-39.817 2.146-14.34 5.303-27.612 9.468-39.817z"/>
    <path fill="#4F775D" d="M674.296 29.414c5.39 18.212 9.193 34.725 11.411 49.538 2.217 14.813 3.358 31.326 3.42 49.538h-29.663c-.636-15.184.38-31.697 3.052-49.538 2.67-17.841 6.597-34.354 11.78-49.538z"/>
    <path fill="#1E3B39" d="M686.21 39.372c4.848 16.382 8.27 31.235 10.264 44.56 1.995 13.323 3.02 28.176 3.077 44.558h-26.682c-.572-13.658.342-28.51 2.745-44.559 2.402-16.048 5.934-30.9 10.596-44.559zM655.434 56.49c4.848 13.235 8.27 25.235 10.264 36 1.995 10.765 3.02 22.765 3.077 36h-26.682c-.573-11.035.342-23.035 2.745-36 2.402-12.966 5.934-24.966 10.596-36z"/>
    <path fill="#4F8577" d="M666.498 77.352c4.001 9.4 6.825 17.923 8.471 25.569 1.646 7.645 2.493 16.168 2.54 25.569h-22.021c-.473-7.837.282-16.36 2.265-25.57 1.983-9.208 4.898-17.731 8.745-25.568zM634.998 77.352c4.001 9.4 6.825 17.923 8.471 25.569 1.646 7.645 2.493 16.168 2.54 25.569h-22.021c-.473-7.837.282-16.36 2.265-25.57 1.983-9.208 4.898-17.731 8.745-25.568z"/>
    <path fill="#40645D" d="M805.625 54.106c4.333 14.639 7.39 27.91 9.172 39.817 1.783 11.906 2.699 25.178 2.75 39.817h-23.843c-.511-12.205.306-25.477 2.453-39.817s5.303-27.612 9.468-39.817z"/>
    <path fill="#40645D" d="M778.725 34.664c5.39 18.212 9.194 34.725 11.411 49.538 2.218 14.813 3.358 31.326 3.42 49.538h-29.663c-.636-15.184.38-31.697 3.052-49.538 2.67-17.841 6.597-34.354 11.78-49.538z"/>
    <path fill="#5F845D" d="M790.639 44.622c4.848 16.382 8.27 31.235 10.264 44.56 1.995 13.323 3.02 28.176 3.077 44.558h-26.682c-.572-13.658.343-28.51 2.745-44.559 2.402-16.048 5.934-30.9 10.596-44.559z"/>
    <path fill="#1E3B39" d="M759.863 61.74c4.848 13.235 8.27 25.235 10.264 36 1.995 10.765 3.02 22.765 3.077 36h-26.682c-.573-11.035.342-23.035 2.745-36 2.402-12.966 5.934-24.966 10.596-36z"/>
    <path fill="#4F8577" d="M770.927 82.602c4.001 9.4 6.825 17.923 8.471 25.569 1.647 7.645 2.493 16.168 2.54 25.569h-22.021c-.473-7.837.282-16.36 2.265-25.57 1.983-9.208 4.898-17.731 8.745-25.568zM739.427 82.602c4.001 9.4 6.825 17.923 8.471 25.569 1.647 7.645 2.493 16.168 2.54 25.569h-22.021c-.473-7.837.282-16.36 2.265-25.57 1.983-9.208 4.898-17.731 8.745-25.568z"/>
    <path fill="#40645D" d="M1436.779 43.231c4.332 14.639 7.39 27.91 9.172 39.817 1.782 11.906 2.698 25.178 2.749 39.817h-23.843c-.511-12.205.306-25.477 2.453-39.817s5.303-27.612 9.469-39.817z"/>
    <path fill="#4F775D" d="M1409.878 23.79c5.39 18.211 9.194 34.724 11.411 49.537 2.218 14.813 3.358 31.326 3.42 49.538h-29.663c-.636-15.184.381-31.697 3.052-49.538 2.67-17.841 6.598-34.354 11.78-49.538z"/>
    <path fill="#1E3B39" d="M1421.792 33.747c4.849 16.382 8.27 31.235 10.265 44.56 1.994 13.323 3.02 28.176 3.076 44.558h-26.682c-.572-13.658.343-28.51 2.745-44.559 2.403-16.048 5.935-30.9 10.596-44.559zM1391.016 50.865c4.848 13.235 8.27 25.235 10.265 36 1.994 10.765 3.02 22.765 3.076 36h-26.682c-.572-11.035.343-23.035 2.745-36 2.403-12.966 5.935-24.966 10.596-36z"/>
    <path fill="#4F8577" d="M1402.08 71.727c4.002 9.4 6.826 17.923 8.472 25.569 1.646 7.645 2.492 16.168 2.539 25.569h-22.021c-.473-7.837.283-16.36 2.265-25.57 1.983-9.208 4.898-17.731 8.745-25.568zM1370.58 71.727c4.002 9.4 6.826 17.923 8.472 25.569 1.646 7.645 2.492 16.168 2.539 25.569h-22.021c-.473-7.837.283-16.36 2.265-25.57 1.983-9.208 4.898-17.731 8.745-25.568z"/>
    <path fill="#40645D" d="M1541.208 48.481c4.332 14.639 7.39 27.91 9.172 39.817 1.782 11.906 2.698 25.178 2.749 39.817h-23.842c-.512-12.205.306-25.477 2.452-39.817 2.147-14.34 5.303-27.612 9.469-39.817z"/>
    <path fill="#40645D" d="M1514.307 29.04c5.39 18.211 9.194 34.724 11.412 49.537 2.217 14.813 3.357 31.326 3.42 49.538h-29.663c-.637-15.184.38-31.697 3.051-49.538 2.671-17.841 6.598-34.354 11.78-49.538z"/>
    <path fill="#1E3B39" d="M1526.221 38.997c4.849 16.382 8.27 31.235 10.265 44.56 1.994 13.323 3.02 28.176 3.076 44.558h-26.681c-.573-13.658.342-28.51 2.744-44.559 2.403-16.048 5.935-30.9 10.596-44.559zM1495.445 56.115c4.849 13.235 8.27 25.235 10.265 36 1.994 10.765 3.02 22.765 3.076 36h-26.682c-.572-11.035.343-23.035 2.745-36 2.403-12.966 5.935-24.966 10.596-36z"/>
    <path fill="#4F8577" d="M1506.51 76.977c4 9.4 6.825 17.923 8.47 25.569 1.647 7.645 2.493 16.168 2.54 25.569h-22.02c-.473-7.837.282-16.36 2.264-25.57 1.983-9.208 4.898-17.731 8.746-25.568zM1475.01 76.977c4 9.4 6.825 17.923 8.47 25.569 1.647 7.645 2.493 16.168 2.54 25.569H1464c-.473-7.837.282-16.36 2.264-25.57 1.983-9.208 4.898-17.731 8.746-25.568z"/>
    <path fill="#40645D" d="M973.779 65.106c4.332 14.639 7.39 27.91 9.172 39.817 1.782 11.906 2.698 25.178 2.749 39.817h-23.843c-.511-12.205.306-25.477 2.453-39.817s5.303-27.612 9.469-39.817z"/>
    <path fill="#4F775D" d="M946.878 45.664c5.39 18.212 9.194 34.725 11.411 49.538 2.218 14.813 3.358 31.326 3.42 49.538h-29.663c-.636-15.184.381-31.697 3.052-49.538 2.67-17.841 6.598-34.354 11.78-49.538z"/>
    <path fill="#5F845D" d="M958.792 55.622c4.849 16.382 8.27 31.235 10.265 44.56 1.994 13.323 3.02 28.176 3.076 44.558h-26.682c-.572-13.658.343-28.51 2.745-44.559 2.403-16.048 5.935-30.9 10.596-44.559z"/>
    <path fill="#1E3B39" d="M928.016 45.664c4.848 18.212 8.27 34.725 10.265 49.538 1.994 14.813 3.02 31.326 3.076 49.538h-26.682c-.572-15.184.343-31.697 2.745-49.538 2.403-17.841 5.935-34.354 10.596-49.538z"/>
    <path fill="#4F8577" d="M939.08 93.602c4.002 9.4 6.826 17.923 8.472 25.569 1.646 7.645 2.492 16.168 2.539 25.569H928.07c-.473-7.837.283-16.36 2.265-25.57 1.983-9.208 4.898-17.731 8.745-25.568zM907.58 93.602c4.002 9.4 6.826 17.923 8.472 25.569 1.646 7.645 2.492 16.168 2.539 25.569H896.57c-.473-7.837.283-16.36 2.265-25.57 1.983-9.208 4.898-17.731 8.745-25.568z"/>
    <path fill="#40645D" d="M304.267 40.856c4.332 14.639 7.39 27.91 9.172 39.817 1.782 11.906 2.699 25.178 2.75 39.817h-23.843c-.512-12.205.306-25.477 2.453-39.817 2.146-14.34 5.302-27.612 9.468-39.817z"/>
    <path fill="#4F775D" d="M277.367 21.414c5.39 18.212 9.193 34.725 11.41 49.538 2.218 14.813 3.358 31.326 3.421 49.538h-29.663c-.637-15.184.38-31.697 3.051-49.538 2.671-17.841 6.598-34.354 11.78-49.538z"/>
    <path fill="#5F845D" d="M289.28 31.372c4.85 16.382 8.27 31.235 10.265 44.56 1.995 13.323 3.02 28.176 3.077 44.558H275.94c-.573-13.658.342-28.51 2.745-44.559 2.402-16.048 5.934-30.9 10.596-44.559z"/>
    <path fill="#1E3B39" d="M258.505 21.414c4.848 18.212 8.27 34.725 10.264 49.538 1.995 14.813 3.02 31.326 3.077 49.538h-26.682c-.573-15.184.342-31.697 2.745-49.538 2.402-17.841 5.934-34.354 10.596-49.538z"/>
    <path fill="#4F8577" d="M269.569 69.352c4.001 9.4 6.825 17.923 8.471 25.569 1.646 7.645 2.493 16.168 2.54 25.569h-22.022c-.472-7.837.283-16.36 2.266-25.57 1.983-9.208 4.898-17.731 8.745-25.568zM238.069 69.352c4.001 9.4 6.825 17.923 8.471 25.569 1.646 7.645 2.493 16.168 2.54 25.569h-22.022c-.472-7.837.283-16.36 2.266-25.57 1.983-9.208 4.898-17.731 8.745-25.568z"/>
    <g>
      <path fill="#1E3B39" d="M1200.779 45.856c4.332 14.639 7.39 27.91 9.172 39.817 1.782 11.906 2.698 25.178 2.749 39.817h-23.843c-.511-12.205.306-25.477 2.453-39.817s5.303-27.612 9.469-39.817z"/>
      <path fill="#4F775D" d="M1173.878 26.414c5.39 18.212 9.194 34.725 11.411 49.538 2.218 14.813 3.358 31.326 3.42 49.538h-29.663c-.636-15.184.381-31.697 3.052-49.538 2.67-17.841 6.598-34.354 11.78-49.538z"/>
      <path fill="#5F845D" d="M1185.792 36.372c4.849 16.382 8.27 31.235 10.265 44.56 1.994 13.323 3.02 28.176 3.076 44.558h-26.682c-.572-13.658.343-28.51 2.745-44.559 2.403-16.048 5.935-30.9 10.596-44.559z"/>
      <path fill="#40645D" d="M1121.171 41.114c4.849 16.382 8.27 31.235 10.265 44.559 1.994 13.324 3.02 28.177 3.076 44.559h-26.682c-.572-13.658.343-28.511 2.745-44.559 2.403-16.048 5.935-30.9 10.596-44.559zM1214.21 41.114c4.85 16.382 8.27 31.235 10.265 44.559 1.995 13.324 3.02 28.177 3.077 44.559h-26.682c-.573-13.658.342-28.511 2.745-44.559 2.402-16.048 5.934-30.9 10.596-44.559z"/>
      <path fill="#4F775D" d="M1227.634 55.362c4.849 16.382 8.27 31.234 10.265 44.559 1.994 13.324 3.02 28.177 3.076 44.558h-26.681c-.573-13.657.342-28.51 2.744-44.558 2.403-16.048 5.935-30.901 10.596-44.559zM1094.324 63.664c4.849 16.382 8.27 31.235 10.265 44.559 1.994 13.324 3.02 28.177 3.076 44.558h-26.682c-.572-13.657.343-28.51 2.745-44.558 2.403-16.048 5.935-30.901 10.596-44.559z"/>
      <path fill="#1E3B39" d="M1067.477 74.352c4.849 16.381 8.27 31.234 10.265 44.558 1.994 13.324 3.02 28.177 3.076 44.559h-26.682c-.572-13.658.343-28.51 2.745-44.559 2.403-16.048 5.935-30.9 10.596-44.558zM1155.016 53.49c4.848 13.235 8.27 25.235 10.265 36 1.994 10.765 3.02 22.765 3.076 36h-26.682c-.572-11.035.343-23.035 2.745-36 2.403-12.966 5.935-24.966 10.596-36z"/>
      <path fill="#4F8577" d="M1166.08 74.352c4.002 9.4 6.826 17.923 8.472 25.569 1.646 7.645 2.492 16.168 2.539 25.569h-22.021c-.473-7.837.283-16.36 2.265-25.57 1.983-9.208 4.898-17.731 8.745-25.568zM1134.58 74.352c4.002 9.4 6.826 17.923 8.472 25.569 1.646 7.645 2.492 16.168 2.539 25.569h-22.021c-.473-7.837.283-16.36 2.265-25.57 1.983-9.208 4.898-17.731 8.745-25.568z"/>
    </g>
    <g>
      <path fill="#40645D" d="M394.267 28.856c4.332 14.639 7.39 27.91 9.172 39.817 1.782 11.906 2.699 25.178 2.75 39.817h-23.843c-.512-12.205.306-25.477 2.453-39.817 2.146-14.34 5.302-27.612 9.468-39.817z"/>
      <path fill="#4F775D" d="M367.367 9.414c5.39 18.212 9.193 34.725 11.41 49.538 2.218 14.813 3.358 31.326 3.421 49.538h-29.663c-.637-15.184.38-31.697 3.051-49.538 2.671-17.841 6.598-34.354 11.78-49.538z"/>
      <path fill="#1E3B39" d="M379.28 19.372c4.85 16.382 8.27 31.235 10.265 44.56 1.995 13.323 3.02 28.176 3.077 44.558H365.94c-.573-13.658.342-28.51 2.745-44.559 2.402-16.048 5.934-30.9 10.596-44.559zM348.505 36.49c4.848 13.235 8.27 25.235 10.264 36 1.995 10.765 3.02 22.765 3.077 36h-26.682c-.573-11.035.342-23.035 2.745-36 2.402-12.966 5.934-24.966 10.596-36z"/>
      <path fill="#4F8577" d="M359.569 57.352c4.001 9.4 6.825 17.923 8.471 25.569 1.646 7.645 2.493 16.168 2.54 25.569h-22.022c-.472-7.837.283-16.36 2.266-25.57 1.983-9.208 4.898-17.731 8.745-25.568zM328.069 57.352c4.001 9.4 6.825 17.923 8.471 25.569 1.646 7.645 2.493 16.168 2.54 25.569h-22.022c-.472-7.837.283-16.36 2.266-25.57 1.983-9.208 4.898-17.731 8.745-25.568z"/>
    </g>
    <g transform="translate(1234.434 31.414)">
      <mask id="n" fill="#fff">
        <use xlink:href="#m"/>
      </mask>
      <use fill="#4F8577" xlink:href="#m"/>
      <g stroke="#3A514E" mask="url(#n)">
        <path stroke-linecap="round" stroke-width="2" d="M13.863.748v90.876"/>
        <path stroke-linecap="square" d="M13.863 88.794L-1.496 77.23l15.359 11.563L29.22 77.23 13.863 88.794zm0 0l.01.008-.01-.008-.01.008.01-.008zm0-14.217L-1.496 63.014l15.359 11.563L29.22 63.014 13.863 74.577zm0 0l.01.008-.01-.008-.01.008.01-.008zm0-14.218L29.22 48.797 13.863 60.359-1.496 48.797l15.359 11.562zm0 0l-.01.008.01-.008.01.008-.01-.008zm0-14.217L-1.496 34.58l15.359 11.563L29.22 34.58 13.863 46.142zm0 0l.01.008-.01-.008-.01.008.01-.008zm0-14.217L-1.496 20.362l15.359 11.563L29.22 20.362 13.863 31.925zm0 0l.01.008-.01-.008-.01.008.01-.008zm0-14.217L-1.496 6.145l15.359 11.563L29.22 6.145 13.863 17.708zm0 0l.01.008-.01-.008-.01.008.01-.008z"/>
      </g>
    </g>
    <g transform="translate(1033.434 55.664)">
      <mask id="p" fill="#fff">
        <use xlink:href="#o"/>
      </mask>
      <use fill="#4F8577" xlink:href="#o"/>
      <g stroke="#3A514E" mask="url(#p)">
        <path stroke-linecap="round" stroke-width="2" d="M13.863.748v90.876"/>
        <path stroke-linecap="square" d="M13.863 88.794L-1.496 77.23l15.359 11.563L29.22 77.23 13.863 88.794zm0 0l.01.008-.01-.008-.01.008.01-.008zm0-14.217L-1.496 63.014l15.359 11.563L29.22 63.014 13.863 74.577zm0 0l.01.008-.01-.008-.01.008.01-.008zm0-14.218L29.22 48.797 13.863 60.359-1.496 48.797l15.359 11.562zm0 0l-.01.008.01-.008.01.008-.01-.008zm0-14.217L-1.496 34.58l15.359 11.563L29.22 34.58 13.863 46.142zm0 0l.01.008-.01-.008-.01.008.01-.008zm0-14.217L-1.496 20.362l15.359 11.563L29.22 20.362 13.863 31.925zm0 0l.01.008-.01-.008-.01.008.01-.008zm0-14.217L-1.496 6.145l15.359 11.563L29.22 6.145 13.863 17.708zm0 0l.01.008-.01-.008-.01.008.01-.008z"/>
      </g>
    </g>
    <g transform="translate(842.698 36.664)">
      <mask id="r" fill="#fff">
        <use xlink:href="#q"/>
      </mask>
      <use fill="#4F8577" xlink:href="#q"/>
      <g stroke="#3A514E" mask="url(#r)">
        <path stroke-linecap="round" stroke-width="2" d="M14.778.797v96.876"/>
        <path stroke-linecap="square" d="M14.778 94.656L31.15 82.33 14.778 94.656-1.595 82.33l16.373 12.326zm0 0l-.011.008.01-.008.012.008-.011-.008zm0-15.156L-1.595 67.174 14.778 79.5 31.15 67.174 14.778 79.5zm0 0l.01.009-.01-.009-.011.009.01-.009zm0-15.156L31.15 52.018 14.778 64.344-1.595 52.018l16.373 12.326zm0 0l-.011.009.01-.009.012.009-.011-.009zm0-15.156L31.15 36.862 14.778 49.188-1.595 36.862l16.373 12.326zm0 0l.01.009-.01-.009-.011.009.01-.009zm0-15.155L-1.595 21.706l16.373 12.327L31.15 21.706 14.778 34.033zm0 0l.01.008-.01-.008-.011.008.01-.008zm0-15.156L-1.595 6.55l16.373 12.326L31.15 6.55 14.778 18.877zm0 0l.01.008-.01-.008-.011.008.01-.008z"/>
      </g>
    </g>
    <g transform="translate(626.434 35.646)">
      <mask id="t" fill="#fff">
        <use xlink:href="#s"/>
      </mask>
      <use fill="#4F8577" xlink:href="#s"/>
      <g stroke="#3A514E" mask="url(#t)">
        <path stroke-linecap="round" stroke-width="2" d="M14.778.797v96.876"/>
        <path stroke-linecap="square" d="M14.778 94.656L31.15 82.33 14.778 94.656-1.595 82.33l16.373 12.326zm0 0l-.011.008.01-.008.012.008-.011-.008zm0-15.156L-1.595 67.174 14.778 79.5 31.15 67.174 14.778 79.5zm0 0l.01.009-.01-.009-.011.009.01-.009zm0-15.156L31.15 52.018 14.778 64.344-1.595 52.018l16.373 12.326zm0 0l-.011.009.01-.009.012.009-.011-.009zm0-15.156L31.15 36.862 14.778 49.188-1.595 36.862l16.373 12.326zm0 0l.01.009-.01-.009-.011.009.01-.009zm0-15.155L-1.595 21.706l16.373 12.327L31.15 21.706 14.778 34.033zm0 0l.01.008-.01-.008-.011.008.01-.008zm0-15.156L-1.595 6.55l16.373 12.326L31.15 6.55 14.778 18.877zm0 0l.01.008-.01-.008-.011.008.01-.008z"/>
      </g>
    </g>
    <g transform="translate(384.434 25.414)">
      <mask id="v" fill="#fff">
        <use xlink:href="#u"/>
      </mask>
      <use fill="#4F8577" xlink:href="#u"/>
      <g stroke="#3A514E" mask="url(#v)">
        <path stroke-linecap="round" stroke-width="2" d="M14.778.797v96.876"/>
        <path stroke-linecap="square" d="M14.778 94.656L31.15 82.33 14.778 94.656-1.595 82.33l16.373 12.326zm0 0l-.011.008.01-.008.012.008-.011-.008zm0-15.156L-1.595 67.174 14.778 79.5 31.15 67.174 14.778 79.5zm0 0l.01.009-.01-.009-.011.009.01-.009zm0-15.156L31.15 52.018 14.778 64.344-1.595 52.018l16.373 12.326zm0 0l-.011.009.01-.009.012.009-.011-.009zm0-15.156L31.15 36.862 14.778 49.188-1.595 36.862l16.373 12.326zm0 0l.01.009-.01-.009-.011.009.01-.009zm0-15.155L-1.595 21.706l16.373 12.327L31.15 21.706 14.778 34.033zm0 0l.01.008-.01-.008-.011.008.01-.008zm0-15.156L-1.595 6.55l16.373 12.326L31.15 6.55 14.778 18.877zm0 0l.01.008-.01-.008-.011.008.01-.008z"/>
      </g>
    </g>
    <g transform="translate(1395.434 38.664)">
      <mask id="x" fill="#fff">
        <use xlink:href="#w"/>
      </mask>
      <use fill="#4F8577" xlink:href="#w"/>
      <g stroke="#3A514E" mask="url(#x)">
        <path stroke-linecap="round" stroke-width="2" d="M14.778.797v96.876"/>
        <path stroke-linecap="square" d="M14.778 94.656L31.15 82.33 14.778 94.656-1.595 82.33l16.373 12.326zm0 0l-.011.008.01-.008.012.008-.011-.008zm0-15.156L-1.595 67.174 14.778 79.5 31.15 67.174 14.778 79.5zm0 0l.01.009-.01-.009-.011.009.01-.009zm0-15.156L31.15 52.018 14.778 64.344-1.595 52.018l16.373 12.326zm0 0l-.011.009.01-.009.012.009-.011-.009zm0-15.156L31.15 36.862 14.778 49.188-1.595 36.862l16.373 12.326zm0 0l.01.009-.01-.009-.011.009.01-.009zm0-15.155L-1.595 21.706l16.373 12.327L31.15 21.706 14.778 34.033zm0 0l.01.008-.01-.008-.011.008.01-.008zm0-15.156L-1.595 6.55l16.373 12.326L31.15 6.55 14.778 18.877zm0 0l.01.008-.01-.008-.011.008.01-.008z"/>
      </g>
    </g>
    <g transform="translate(1425.434 33.414)">
      <mask id="z" fill="#fff">
        <use xlink:href="#y"/>
      </mask>
      <use fill="#4F8577" xlink:href="#y"/>
      <g stroke="#3A514E" mask="url(#z)">
        <path stroke-linecap="round" stroke-width="2" d="M14.778.797v96.876"/>
        <path stroke-linecap="square" d="M14.778 94.656L31.15 82.33 14.778 94.656-1.595 82.33l16.373 12.326zm0 0l-.011.008.01-.008.012.008-.011-.008zm0-15.156L-1.595 67.174 14.778 79.5 31.15 67.174 14.778 79.5zm0 0l.01.009-.01-.009-.011.009.01-.009zm0-15.156L31.15 52.018 14.778 64.344-1.595 52.018l16.373 12.326zm0 0l-.011.009.01-.009.012.009-.011-.009zm0-15.156L31.15 36.862 14.778 49.188-1.595 36.862l16.373 12.326zm0 0l.01.009-.01-.009-.011.009.01-.009zm0-15.155L-1.595 21.706l16.373 12.327L31.15 21.706 14.778 34.033zm0 0l.01.008-.01-.008-.011.008.01-.008zm0-15.156L-1.595 6.55l16.373 12.326L31.15 6.55 14.778 18.877zm0 0l.01.008-.01-.008-.011.008.01-.008z"/>
      </g>
    </g>
    <g>
      <path fill="#7BA97B" d="M573.434 54.152c0-6.004 3.785-11.006 12.956-11.006s12.957 4.5 12.957 11.006c0 6.507-4.726 6.507-4.726 12.009 0 5.502 5.547 5.502 4.726 12.009-.821 6.506-3.03 6.004-3.03 12.008s3.03 6.279 3.03 12.009-3.47 9.381-12.957 9.381-12.956-3.31-12.956-9.381c0-6.072 3.785-6.005 3.785-12.009 0-6.004-3.785-6.004-3.785-12.008 0-6.005 3.785-7.761 3.785-12.009s-3.785-6.004-3.785-12.009z"/>
      <path fill="#2B3B3F" fill-rule="nonzero" d="M587.338 103.033v20.239h-1.896V96.359c-1.156-.142-1.958-.384-2.427-.748-.61-.473-1.048-1.448-1.37-2.935l-.1-.463.926-.201.1.463c.28 1.287.64 2.087 1.026 2.387.297.231.918.418 1.845.54V79.444c-1.179-.141-1.994-.384-2.468-.753-.61-.473-1.048-1.447-1.37-2.935l-.101-.463.926-.2.1.462c.28 1.288.64 2.087 1.026 2.388.301.234.937.423 1.887.546V62.523c-1.179-.142-1.994-.385-2.468-.753-.61-.474-1.048-1.448-1.37-2.935l-.101-.464.926-.2.1.463c.28 1.287.64 2.087 1.026 2.387.301.234.937.423 1.887.546v-6.783h1.896v17.77c1.41-.11 2.324-.334 2.705-.63.386-.3.746-1.1 1.025-2.387l.1-.463.927.2-.1.464c-.323 1.487-.761 2.461-1.37 2.935-.578.448-1.66.71-3.287.83v13.815c1.41-.11 2.324-.334 2.705-.63.386-.3.746-1.1 1.025-2.387l.1-.463.927.2-.1.464c-.323 1.487-.761 2.462-1.37 2.935-.578.449-1.66.711-3.287.831v13.814c1.41-.11 2.324-.333 2.705-.629.386-.3.746-1.1 1.025-2.387l.1-.464.927.201-.1.463c-.323 1.488-.761 2.462-1.37 2.936-.578.448-1.66.71-3.287.83z"/>
    </g>
    <g>
      <path fill="#7BA97B" d="M300.769 33.035c0-6.34 3.997-11.62 13.68-11.62s13.68 4.75 13.68 11.62c0 6.87-4.99 6.87-4.99 12.68 0 5.809 5.857 5.809 4.99 12.678-.867 6.87-3.2 6.34-3.2 12.68 0 6.339 3.2 6.628 3.2 12.678 0 6.05-3.663 9.906-13.68 9.906s-13.68-3.495-13.68-9.906c0-6.41 3.997-6.34 3.997-12.679 0-6.34-3.997-6.34-3.997-12.679 0-6.34 3.997-8.194 3.997-12.679 0-4.485-3.997-6.34-3.997-12.68z"/>
      <path fill="#2B3B3F" fill-rule="nonzero" d="M315.45 84.645v21.369h-2.002V77.598c-1.221-.15-2.068-.405-2.563-.79-.643-.5-1.106-1.528-1.447-3.099l-.106-.489.979-.212.106.49c.294 1.359.674 2.203 1.082 2.52.314.244.97.44 1.949.57v-16.85c-1.245-.15-2.106-.406-2.607-.795-.643-.5-1.106-1.529-1.447-3.099l-.106-.49.979-.211.106.489c.294 1.36.674 2.204 1.082 2.52.319.248.99.447 1.993.577V41.873c-1.245-.15-2.106-.406-2.607-.795-.643-.5-1.106-1.529-1.447-3.1l-.106-.489.979-.212.106.49c.294 1.359.674 2.203 1.082 2.52.319.247.99.447 1.993.576v-7.16h2.002v18.76c1.488-.116 2.453-.352 2.855-.664.408-.317.788-1.161 1.083-2.52l.106-.49.978.212-.106.49c-.34 1.57-.803 2.599-1.447 3.098-.609.474-1.752.75-3.47.878v14.585c1.49-.116 2.454-.352 2.856-.664.408-.317.788-1.162 1.083-2.52l.106-.49.978.212-.106.49c-.34 1.57-.803 2.598-1.447 3.098-.609.474-1.752.75-3.47.878V83.64c1.49-.116 2.454-.352 2.856-.664.408-.317.788-1.162 1.083-2.521l.106-.49.978.213-.106.489c-.34 1.57-.803 2.6-1.447 3.1-.609.473-1.752.75-3.47.877z"/>
    </g>
    <g>
      <path fill="#4F8577" d="M422.104 31.857c3.294-6.212 9.827-10.443 17.349-10.443 7.443 0 13.918 4.144 17.244 10.25 6.937.218 12.492 5.91 12.492 12.899 0 7.128-5.778 6.774-12.906 6.774-2.611 0-5.042.048-7.074-.243-2.874.304-6.205.246-9.756.246-4.24 0-8.165.082-11.373-.466-2.237.532-5.114.463-8.252.463-7.128 0-12.906.354-12.906-6.774s5.778-12.906 12.906-12.906c.776 0 1.537.069 2.276.2z"/>
      <path fill="#5A9586" d="M459.626 52.236a4.526 4.526 0 0 1 5.53 4.415c0 2.5-2.027 1.951-4.527 1.951-1.108 0-2.123.108-2.91.01-1.193.111-2.691-.038-4.319-.038-3.89 0-7.045.853-7.045-3.038a7.045 7.045 0 0 1 13.27-3.3z"/>
      <path fill="#559181" d="M421.128 66.348a4.526 4.526 0 0 0-5.53 4.415c0 2.5 2.027 1.952 4.527 1.952 1.108 0 2.123.107 2.91.01 1.193.11 2.691-.039 4.319-.039 3.89 0 7.045.854 7.045-3.037a7.045 7.045 0 0 0-13.27-3.3z"/>
      <path fill="#B1B596" fill-rule="nonzero" d="M437.697 46.948L422.97 37.38l.998-1.536 8.052 5.231v-2.7h1v3.35l4.677 3.038v-5.91h4.213v25.469l11.442-7.434v-3.316h1v2.667l2.554-1.66.998 1.537-15.994 10.39v42.749h-4.213V79.338L422.97 69.77l.998-1.536 2.554 1.66v-2.667h1v3.316l10.175 6.61V46.948z"/>
    </g>
    <g>
      <path fill="#4F8577" d="M1319.873 51.054c-2.726-5.14-8.13-8.64-14.353-8.64-6.158 0-11.515 3.428-14.268 8.48-5.738.18-10.335 4.89-10.335 10.672 0 5.897 4.781 5.605 10.678 5.605 2.161 0 4.172.039 5.853-.202 2.377.252 5.133.204 8.072.204 3.507 0 6.754.068 9.409-.386 1.85.44 4.23.384 6.827.384 5.897 0 10.678.292 10.678-5.605s-4.78-10.678-10.678-10.678c-.642 0-1.272.057-1.883.166z"/>
      <path fill="#5A9586" d="M1288.83 67.914a3.745 3.745 0 0 0-4.575 3.653c0 2.068 1.676 1.614 3.744 1.614.917 0 1.757.09 2.408.008.987.092 2.227-.031 3.573-.031 3.22 0 5.829.706 5.829-2.513a5.829 5.829 0 0 0-10.98-2.731z"/>
      <path fill="#559181" d="M1320.68 79.59a3.745 3.745 0 0 1 4.575 3.653c0 2.068-1.676 1.614-3.744 1.614-.917 0-1.757.09-2.408.008-.987.092-2.227-.031-3.573-.031-3.22 0-5.829.706-5.829-2.514a5.829 5.829 0 0 1 10.98-2.73z"/>
      <path fill="#B1B596" fill-rule="nonzero" d="M1306.973 63.539l12.184-7.916-.826-1.27-6.662 4.328v-2.234h-1v2.883l-3.696 2.402v-4.89h-3.486v21.071l-9.294-6.038V69.02h-1v2.206l-2.113-1.373-.825 1.27 13.232 8.598v35.367h3.486V90.337l12.184-7.916-.826-1.271-2.113 1.373v-2.206h-1v2.855l-8.245 5.357V63.54z"/>
    </g>
    <g>
      <path fill="#4F8577" d="M556.362 54.304c-2.726-5.14-8.131-8.64-14.354-8.64-6.158 0-11.515 3.428-14.267 8.48-5.739.18-10.335 4.89-10.335 10.672 0 5.897 4.78 5.605 10.677 5.605 2.161 0 4.172.039 5.853-.202 2.378.252 5.134.204 8.072.204 3.507 0 6.755.068 9.41-.386 1.85.44 4.23.384 6.827.384 5.897 0 10.677.292 10.677-5.605s-4.78-10.678-10.677-10.678c-.643 0-1.272.057-1.883.166z"/>
      <path fill="#5A9586" d="M525.318 71.164a3.745 3.745 0 0 0-4.575 3.653c0 2.068 1.677 1.614 3.745 1.614.917 0 1.757.09 2.408.008.987.092 2.226-.031 3.573-.031 3.219 0 5.828.706 5.828-2.513a5.829 5.829 0 0 0-10.979-2.731z"/>
      <path fill="#559181" d="M557.169 82.84a3.745 3.745 0 0 1 4.575 3.653c0 2.068-1.677 1.614-3.745 1.614-.917 0-1.757.09-2.408.008-.987.092-2.227-.031-3.573-.031-3.219 0-5.829.706-5.829-2.514a5.829 5.829 0 0 1 10.98-2.73z"/>
      <path fill="#B1B596" fill-rule="nonzero" d="M543.461 66.789l12.184-7.916-.826-1.27-6.662 4.328v-2.234h-1v2.883l-3.696 2.402v-4.89h-3.486v21.071l-9.293-6.038V72.27h-1v2.206l-2.113-1.373-.826 1.27 13.232 8.598v35.367h3.486V93.587l12.184-7.916-.826-1.271-2.113 1.373v-2.206h-1v2.855l-8.245 5.357V66.79z"/>
    </g>
    <g>
      <path fill="#40645D" d="M872.378 73.081c4.332 14.638 7.39 27.91 9.172 39.817 1.782 11.906 2.699 25.178 2.749 39.817h-23.842c-.512-12.205.306-25.477 2.452-39.817 2.147-14.34 5.303-27.613 9.469-39.817z"/>
      <path fill="#4F775D" d="M845.477 57.943c5.39 18.212 9.194 34.725 11.412 49.538 2.217 14.813 3.357 31.326 3.42 49.538h-29.663c-.637-15.184.38-31.697 3.051-49.538 2.671-17.841 6.598-34.354 11.78-49.538z"/>
      <path fill="#4F8577" d="M900.743 62.47c5.39 18.212 9.194 34.724 11.411 49.537 2.218 14.814 3.358 31.326 3.42 49.538h-29.663c-.636-15.184.38-31.696 3.052-49.538 2.67-17.84 6.597-34.353 11.78-49.537z"/>
      <path fill="#5F845D" d="M823.31 67.449c4.849 16.381 8.27 31.234 10.265 44.558 1.995 13.325 3.02 28.178 3.077 44.56H809.97c-.573-13.659.342-28.511 2.745-44.56 2.402-16.048 5.934-30.9 10.596-44.558z"/>
      <path fill="#1E3B39" d="M850.158 84.566c4.848 13.235 8.27 25.235 10.264 36 1.995 10.765 3.02 22.765 3.077 36h-26.682c-.573-11.034.342-23.034 2.745-36 2.402-12.965 5.934-24.965 10.596-36zM885.81 85.019c4.848 13.235 8.27 25.235 10.264 36 1.995 10.765 3.02 22.765 3.077 36h-26.682c-.572-11.035.343-23.035 2.745-36 2.402-12.966 5.934-24.966 10.596-36z"/>
      <path fill="#4F8577" d="M863.567 105.428c4.001 9.4 6.825 17.923 8.471 25.57 1.646 7.645 2.493 16.168 2.54 25.568h-22.022c-.472-7.837.283-16.36 2.266-25.569s4.898-17.732 8.745-25.569zM834.375 101.577c4.001 9.4 6.825 17.923 8.471 25.569 1.646 7.645 2.493 16.168 2.54 25.569h-22.021c-.473-7.838.282-16.36 2.265-25.57 1.983-9.208 4.898-17.731 8.745-25.568z"/>
    </g>
    <g>
      <path fill="#40645D" d="M192.378 43.081c4.332 14.638 7.39 27.91 9.172 39.817 1.782 11.906 2.699 25.178 2.749 39.817h-23.842c-.512-12.205.306-25.477 2.452-39.817 2.147-14.34 5.303-27.613 9.469-39.817z"/>
      <path fill="#4F775D" d="M165.477 27.943c5.39 18.212 9.194 34.725 11.412 49.538 2.217 14.813 3.357 31.326 3.42 49.538h-29.663c-.637-15.184.38-31.697 3.051-49.538 2.671-17.841 6.598-34.354 11.78-49.538z"/>
      <path fill="#4F8577" d="M220.743 32.47c5.39 18.212 9.194 34.724 11.411 49.537 2.218 14.814 3.358 31.326 3.42 49.538h-29.663c-.636-15.184.38-31.696 3.052-49.538 2.67-17.84 6.597-34.353 11.78-49.537z"/>
      <path fill="#5F845D" d="M143.31 37.449c4.849 16.381 8.27 31.234 10.265 44.558 1.995 13.325 3.02 28.178 3.077 44.56H129.97c-.573-13.659.342-28.511 2.745-44.56 2.402-16.048 5.934-30.9 10.596-44.558z"/>
      <path fill="#1E3B39" d="M170.158 54.566c4.848 13.235 8.27 25.235 10.264 36 1.995 10.765 3.02 22.765 3.077 36h-26.682c-.573-11.034.342-23.034 2.745-36 2.402-12.965 5.934-24.965 10.596-36zM205.81 55.019c4.848 13.235 8.27 25.235 10.264 36 1.995 10.765 3.02 22.765 3.077 36h-26.682c-.572-11.035.343-23.035 2.745-36 2.402-12.966 5.934-24.966 10.596-36z"/>
      <path fill="#4F8577" d="M183.567 75.428c4.001 9.4 6.825 17.923 8.471 25.57 1.646 7.645 2.493 16.168 2.54 25.568h-22.022c-.472-7.837.283-16.36 2.266-25.569s4.898-17.732 8.745-25.569zM154.375 71.577c4.001 9.4 6.825 17.923 8.471 25.569 1.646 7.645 2.493 16.168 2.54 25.569h-22.021c-.473-7.838.282-16.36 2.265-25.57 1.983-9.208 4.898-17.731 8.745-25.568z"/>
    </g>
    <g transform="translate(.434 97.852)">
      <mask id="B" fill="#fff">
        <use xlink:href="#A"/>
      </mask>
      <use fill="#4CA36B" xlink:href="#A"/>
      <path fill="#3DAF67" d="M0-6.335L422.962-.932c24.722 24.295 50.588 52.867 77.596 85.714 27.008 32.848 79.771 134.636 158.289 305.366L0 389.307V-6.335z" mask="url(#B)"/>
      <path fill="#6ABE66" d="M0 118.02c69.679-7.094 150.226-11.746 241.643-13.954 91.416-2.208 181.904-2.485 271.462-.83 5.824 8.209 22.231 34.32 49.221 78.335 13.86 22.603 30.776 54.319 48.877 90.378 11.431 22.772 30.17 62.172 56.215 118.2L0 389.306V118.02z" mask="url(#B)"/>
    </g>
    <path fill="#95E795" d="M576.64 176.15c-2.467-.304-4.115-.66-4.945-1.066-3.527-1.726-4.056-4.182-1.876-5.801 2.049-1.522 4.252-1.208 5.649 1.592.41.821.8 2.58 1.173 5.274zm0 0c.373-2.696.764-4.454 1.173-5.275 1.397-2.8 3.6-3.114 5.65-1.592 2.18 1.619 1.65 4.075-1.877 5.801-.83.406-2.478.762-4.945 1.065zM687.053 199.587c-2.468-.304-4.116-.659-4.946-1.065-3.527-1.726-4.056-4.182-1.876-5.801 2.049-1.522 4.253-1.209 5.65 1.592.409.821.8 2.58 1.172 5.274zm0 0c.372-2.695.763-4.453 1.172-5.274 1.397-2.8 3.6-3.114 5.65-1.592 2.18 1.619 1.65 4.075-1.876 5.801-.83.406-2.479.761-4.946 1.065zM406.922 137.724c-2.467-.304-4.116-.66-4.946-1.066-3.527-1.726-4.056-4.182-1.876-5.801 2.049-1.522 4.253-1.208 5.65 1.593.409.82.8 2.579 1.172 5.274zm0 0c.372-2.695.763-4.453 1.173-5.274 1.396-2.801 3.6-3.115 5.649-1.593 2.18 1.62 1.651 4.075-1.876 5.801-.83.407-2.479.762-4.946 1.066zM153.053 158.36c-2.468-.303-4.116-.658-4.946-1.065-3.527-1.726-4.056-4.182-1.876-5.801 2.049-1.522 4.253-1.208 5.65 1.593.409.82.8 2.579 1.172 5.274zm0 0c.372-2.694.763-4.452 1.172-5.273 1.397-2.801 3.6-3.115 5.65-1.593 2.18 1.62 1.65 4.075-1.876 5.801-.83.407-2.479.762-4.946 1.066z"/>
    <g>
      <path fill="#97C26F" d="M1145.967 108.049c0-5.563 3.507-10.197 12.004-10.197s12.005 4.169 12.005 10.197-4.38 6.028-4.38 11.126 5.14 5.098 4.38 11.126c-.76 6.028-2.808 5.563-2.808 11.126s2.808 5.817 2.808 11.126c0 5.31-3.215 8.692-12.005 8.692-8.79 0-12.004-3.066-12.004-8.692 0-5.625 3.507-5.563 3.507-11.126s-3.507-5.563-3.507-11.126 3.507-7.19 3.507-11.126c0-3.936-3.507-5.563-3.507-11.126z"/>
      <path fill="#2B3B3F" fill-rule="nonzero" d="M1158.85 153.337v18.751h-1.757v-24.934c-1.072-.132-1.815-.356-2.249-.693-.565-.439-.97-1.342-1.27-2.72l-.093-.43.859-.185.093.43c.258 1.192.592 1.933.95 2.211.275.214.85.387 1.71.5v-14.786c-1.092-.131-1.848-.356-2.287-.697-.565-.44-.971-1.342-1.27-2.72l-.093-.43.858-.185.094.429c.258 1.193.592 1.934.95 2.212.279.217.867.392 1.748.506v-14.792c-1.092-.131-1.848-.356-2.287-.697-.565-.44-.971-1.342-1.27-2.72l-.093-.43.858-.185.094.429c.258 1.193.592 1.934.95 2.212.279.217.867.392 1.748.506v-6.284h1.757v16.462c1.306-.101 2.153-.308 2.505-.582.358-.279.692-1.02.95-2.212l.093-.43.859.187-.093.429c-.299 1.378-.705 2.28-1.27 2.72-.534.415-1.537.658-3.044.77v12.798c1.306-.102 2.153-.309 2.505-.583.358-.278.692-1.02.95-2.212l.093-.43.859.187-.093.43c-.299 1.377-.705 2.28-1.27 2.719-.534.415-1.537.658-3.044.77v12.798c1.306-.102 2.153-.309 2.505-.583.358-.278.692-1.019.95-2.212l.093-.429.859.186-.093.43c-.299 1.378-.705 2.28-1.27 2.719-.534.415-1.537.658-3.044.77z"/>
    </g>
    <g>
      <path fill="#97C26F" d="M1145.967 108.049c0-5.563 3.507-10.197 12.004-10.197s12.005 4.169 12.005 10.197-4.38 6.028-4.38 11.126 5.14 5.098 4.38 11.126c-.76 6.028-2.808 5.563-2.808 11.126s2.808 5.817 2.808 11.126c0 5.31-3.215 8.692-12.005 8.692-8.79 0-12.004-3.066-12.004-8.692 0-5.625 3.507-5.563 3.507-11.126s-3.507-5.563-3.507-11.126 3.507-7.19 3.507-11.126c0-3.936-3.507-5.563-3.507-11.126z"/>
      <path fill="#2B3B3F" fill-rule="nonzero" d="M1158.85 153.337v18.751h-1.757v-24.934c-1.072-.132-1.815-.356-2.249-.693-.565-.439-.97-1.342-1.27-2.72l-.093-.43.859-.185.093.43c.258 1.192.592 1.933.95 2.211.275.214.85.387 1.71.5v-14.786c-1.092-.131-1.848-.356-2.287-.697-.565-.44-.971-1.342-1.27-2.72l-.093-.43.858-.185.094.429c.258 1.193.592 1.934.95 2.212.279.217.867.392 1.748.506v-14.792c-1.092-.131-1.848-.356-2.287-.697-.565-.44-.971-1.342-1.27-2.72l-.093-.43.858-.185.094.429c.258 1.193.592 1.934.95 2.212.279.217.867.392 1.748.506v-6.284h1.757v16.462c1.306-.101 2.153-.308 2.505-.582.358-.279.692-1.02.95-2.212l.093-.43.859.187-.093.429c-.299 1.378-.705 2.28-1.27 2.72-.534.415-1.537.658-3.044.77v12.798c1.306-.102 2.153-.309 2.505-.583.358-.278.692-1.02.95-2.212l.093-.43.859.187-.093.43c-.299 1.377-.705 2.28-1.27 2.719-.534.415-1.537.658-3.044.77v12.798c1.306-.102 2.153-.309 2.505-.583.358-.278.692-1.019.95-2.212l.093-.429.859.186-.093.43c-.299 1.378-.705 2.28-1.27 2.719-.534.415-1.537.658-3.044.77z"/>
    </g>
    <g>
      <path fill="#97C26F" d="M1411.498 122.09c0-7.105 4.48-13.024 15.332-13.024s15.332 5.325 15.332 13.024c0 7.7-5.593 7.7-5.593 14.21 0 6.511 6.564 6.511 5.593 14.21-.972 7.7-3.586 7.105-3.586 14.21s3.586 7.43 3.586 14.21c0 6.78-4.105 11.102-15.332 11.102s-15.332-3.917-15.332-11.102c0-7.184 4.48-7.105 4.48-14.21s-4.48-7.105-4.48-14.21 4.48-9.183 4.48-14.21c0-5.026-4.48-7.105-4.48-14.21z"/>
      <path fill="#2B3B3F" fill-rule="nonzero" d="M1427.952 179.931v23.95h-2.244v-31.847c-1.368-.168-2.317-.454-2.872-.885-.721-.56-1.24-1.713-1.622-3.473l-.118-.548 1.096-.238.119.548c.33 1.523.756 2.47 1.213 2.825.352.273 1.086.494 2.184.64v-18.885c-1.395-.168-2.36-.455-2.921-.891-.721-.56-1.24-1.714-1.622-3.474l-.118-.548 1.096-.238.119.549c.33 1.523.756 2.47 1.213 2.825.357.277 1.108.5 2.233.646v-18.892c-1.395-.168-2.36-.455-2.921-.891-.721-.56-1.24-1.713-1.622-3.473l-.118-.549 1.096-.237.119.548c.33 1.523.756 2.47 1.213 2.825.357.277 1.108.5 2.233.646v-8.026h2.244v21.026c1.668-.13 2.75-.394 3.2-.744.457-.355.883-1.302 1.213-2.825l.12-.548 1.096.237-.12.548c-.38 1.76-.9 2.914-1.62 3.474-.684.53-1.964.84-3.89.983v16.346c1.67-.13 2.75-.394 3.201-.744.457-.355.883-1.302 1.213-2.825l.12-.548 1.096.237-.12.549c-.38 1.76-.9 2.913-1.62 3.473-.684.53-1.964.84-3.89.983v16.346c1.67-.13 2.75-.394 3.201-.744.457-.355.883-1.302 1.213-2.825l.12-.548 1.096.237-.12.549c-.38 1.76-.9 2.913-1.62 3.473-.684.53-1.964.841-3.89.983z"/>
    </g>
    <g>
      <path fill="#4F8577" d="M1538.27 66.618c3.222-6.075 9.612-10.213 16.968-10.213 7.28 0 13.612 4.052 16.865 10.024 6.784.214 12.218 5.78 12.218 12.616 0 6.97-5.651 6.625-12.622 6.625-2.555 0-4.932.047-6.92-.238-2.81.297-6.068.24-9.541.24-4.146 0-7.985.081-11.123-.455-2.188.52-5.001.453-8.07.453-6.972 0-12.623.346-12.623-6.625s5.651-12.622 12.622-12.622c.76 0 1.504.067 2.226.195z"/>
      <path fill="#5A9586" d="M1574.967 86.549a4.427 4.427 0 0 1 5.409 4.318c0 2.445-1.982 1.908-4.427 1.908-1.084 0-2.077.106-2.846.01-1.167.109-2.633-.037-4.224-.037-3.806 0-6.89.834-6.89-2.971a6.89 6.89 0 0 1 12.978-3.228z"/>
      <path fill="#559181" d="M1537.316 100.351a4.427 4.427 0 0 0-5.409 4.318c0 2.445 1.983 1.909 4.427 1.909 1.084 0 2.077.105 2.847.01 1.167.108 2.632-.038 4.224-.038 3.805 0 6.89.835 6.89-2.97a6.89 6.89 0 0 0-12.979-3.229z"/>
      <path fill="#B1B596" fill-rule="nonzero" d="M1553.52 81.377l-14.403-9.357.976-1.503 7.876 5.117v-2.64h1v3.29l4.551 2.957v-5.78h4.121v24.908l11.168-7.256v-3.257h1v2.608l2.498-1.623.976 1.502-15.642 10.163v41.809h-4.12v-29.26l-14.404-9.357.976-1.502 2.498 1.622v-2.608h1v3.258l9.93 6.45v-29.54z"/>
    </g>
    <g>
      <path fill="#65A695" d="M97.36 57.353c4.2-7.92 12.53-13.314 22.12-13.314 9.489 0 17.744 5.282 21.986 13.067 8.843.279 15.926 7.535 15.926 16.446 0 9.088-7.367 8.637-16.454 8.637-3.33 0-6.43.06-9.02-.31-3.664.387-7.91.314-12.439.314-5.404 0-10.409.105-14.499-.595-2.852.678-6.52.591-10.521.591-9.088 0-16.455.45-16.455-8.637s7.367-16.454 16.455-16.454c.99 0 1.96.087 2.902.255z"/>
      <path fill="#5A9586" d="M145.199 83.335a5.771 5.771 0 0 1 7.05 5.629c0 3.186-2.583 2.487-5.77 2.487-1.413 0-2.708.138-3.711.013-1.52.142-3.431-.049-5.506-.049-4.96 0-8.982 1.088-8.982-3.872a8.982 8.982 0 0 1 16.919-4.208z"/>
      <path fill="#559181" d="M96.117 101.327a5.771 5.771 0 0 0-7.05 5.629c0 3.187 2.583 2.488 5.77 2.488 1.413 0 2.708.138 3.71.013 1.522.141 3.432-.049 5.507-.049 4.96 0 8.982 1.088 8.982-3.873a8.982 8.982 0 0 0-16.92-4.208z"/>
      <path fill="#676B4E" fill-rule="nonzero" d="M117.24 76.593L98.465 64.394l1.272-1.958 10.266 6.67v-3.442h1.168v4.2l6.07 3.943v-7.534h5.371v32.47l14.695-9.546v-4.158h1.168v3.399l3.256-2.115 1.272 1.958-20.39 13.248v54.502h-5.373v-38.142L98.465 105.69l1.272-1.958 3.256 2.115v-3.4h1.168v4.159l13.08 8.497v-38.51z"/>
    </g>
    <g>
      <g transform="translate(869.534 53.12)">
        <mask id="D" fill="#fff">
          <use xlink:href="#C"/>
        </mask>
        <use fill="#699A68" xlink:href="#C"/>
        <g stroke="#3A514E" mask="url(#D)">
          <path stroke-linecap="round" stroke-width="2" d="M18.078.975v129.73"/>
          <path stroke-linecap="square" d="M18.078 115.797l20.03-15.08-20.03 15.08-20.029-15.08 20.03 15.08zm0 0l-.013.01.013-.01.014.01-.014-.01zm0-18.541L-1.95 82.176l20.03 15.08 20.028-15.08-20.029 15.08zm0 0l.014.01-.014-.01-.013.01.013-.01zm0-18.54L-1.95 63.635l20.03 15.08 20.028-15.08-20.029 15.08zm0 0l-.013.01.013-.01.014.01-.014-.01zm0-18.542L-1.95 45.095l20.03 15.08 20.028-15.08-20.029 15.08zm0 0l.014.01-.014-.01-.013.01.013-.01zm0-18.54L-1.95 26.554l20.03 15.08 20.028-15.08-20.029 15.08zm0 0l-.013.01.013-.01.014.01-.014-.01zm0-18.541L-1.95 8.013l20.03 15.08 20.028-15.08-20.029 15.08zm0 0l-.013.01.013-.01.014.01-.014-.01z"/>
        </g>
        <path stroke="#3A514E" stroke-linecap="round" stroke-width="2" d="M18.089.488l-.01 130.217"/>
      </g>
      <path fill="#426F65" d="M1053.509 212.219a7.064 7.064 0 0 1 7.064 7.064v1.026h-14.128v-1.026a7.064 7.064 0 0 1 7.064-7.064zM831.859 227.54a7.064 7.064 0 0 1 7.064 7.065v1.026h-14.128v-1.026a7.064 7.064 0 0 1 7.064-7.064zM1063.843 184.574c5.708 0 10.335 4.627 10.335 10.334v1.502h-20.67v-1.502c0-5.707 4.628-10.334 10.335-10.334zM1209.768 190.492c5.708 0 10.335 4.627 10.335 10.334v1.502h-20.67v-1.502c0-5.707 4.628-10.334 10.335-10.334zM1154.768 167.406c5.708 0 10.335 4.627 10.335 10.335v1.501h-20.67v-1.501c0-5.708 4.628-10.335 10.335-10.335zM1290.816 190.492a5.167 5.167 0 0 1 5.168 5.167v.75h-10.335v-.75a5.167 5.167 0 0 1 5.167-5.167zM886.734 173.324c5.708 0 10.335 4.627 10.335 10.335v1.501h-20.67v-1.501c0-5.708 4.627-10.335 10.335-10.335z"/>
      <path fill="#916B59" d="M891.226 149.214l57.971 3.025v42.834l-57.97-8.951z"/>
      <path fill="#AF816B" d="M929.173 155.883l4.766.28a1 1 0 0 1 .942.998v1.97a1 1 0 0 1-1.092.997l-4.767-.44a1 1 0 0 1-.908-.995v-1.811a1 1 0 0 1 1.059-.999zM935.689 162.562l4.766.28a1 1 0 0 1 .942.998v1.97a1 1 0 0 1-1.092.996l-4.767-.439a1 1 0 0 1-.908-.995v-1.812a1 1 0 0 1 1.059-.998zM892.285 154.895l4.766.279a1 1 0 0 1 .942.998v1.971a1 1 0 0 1-1.092.996l-4.767-.439a1 1 0 0 1-.908-.996v-1.811a1 1 0 0 1 1.059-.998z"/>
      <path fill="#6D5245" d="M923.325 168.039l4.445.303a4 4 0 0 1 3.727 3.99v19.722l-12.318-1.779-.126-18.218a4 4 0 0 1 4.272-4.018z"/>
      <path fill="#FFF1B6" d="M898.446 167.522l12.295.616a2 2 0 0 1 1.9 1.998v6.67a2 2 0 0 1-2.182 1.991l-12.295-1.123a2 2 0 0 1-1.819-1.991v-6.164a2 2 0 0 1 2.1-1.997z"/>
      <g>
        <path fill="#6D5245" d="M949.197 152.239v42.834l35-8.951v-33.883l-17.5-34.358z"/>
        <path fill="#5C453B" d="M967.994 143.428l-.103.009a4.26 4.26 0 0 0-3.924 4.246v.275a3.434 3.434 0 0 0 3.924 3.4l.13-.02a4.425 4.425 0 0 0 3.794-4.379 3.542 3.542 0 0 0-3.821-3.53z"/>
        <path fill="#747A87" d="M968.857 156.693v10.153h-1.291v-10.003l-15.26 1.769a1.197 1.197 0 0 1-1.335-1.19l1.262-.145v1.15l-1.262-.962v-11.553h1.262v11.365l29.618-3.434v-6.332h1.262v6.255l-.002.002a1.508 1.508 0 0 1-1.333 1.427l-12.92 1.498z"/>
      </g>
      <path fill="#9096A4" d="M887.963 149.845l61.234 3.025 17.5-34.722 17.5 34.722h3.673l-21.173-40.98h-52.28z"/>
      <g>
        <path fill="url(#E)" d="M1.685 4.97c4.746.513 9.3.513 13.665 0 4.364-.512 7.07-1.158 8.118-1.937v25.35c-.79 3.257-3.495 5.445-8.118 6.563-4.623 1.118-9.178.686-13.665-1.296V4.97z" transform="translate(956.793 159.354)"/>
        <g transform="translate(957.424 159.615)">
          <mask id="G" fill="#fff">
            <use xlink:href="#F"/>
          </mask>
          <use fill="#7E8492" transform="rotate(-5 11.938 3.61)" xlink:href="#F"/>
          <path fill="#88C8D1" d="M12.697 7.668c4.812 0 8.73-.89 8.73-2.035S17.51 3.52 12.698 3.52s-8.651 1.046-8.651 2.19c0 1.146 3.84 1.957 8.651 1.957z" mask="url(#G)" transform="rotate(-5 12.737 5.595)"/>
        </g>
      </g>
      <g>
        <path fill="#65A695" d="M992.865 91.806c4.2-7.92 12.53-13.314 22.119-13.314 9.489 0 17.745 5.282 21.986 13.067 8.843.279 15.926 7.535 15.926 16.446 0 9.088-7.366 8.637-16.454 8.637-3.33 0-6.43.06-9.02-.31-3.663.387-7.91.314-12.438.314-5.405 0-10.41.104-14.5-.595-2.852.678-6.52.591-10.521.591-9.087 0-16.454.45-16.454-8.637s7.367-16.454 16.454-16.454c.99 0 1.96.087 2.902.255z"/>
        <path fill="#5A9586" d="M1040.703 117.788a5.771 5.771 0 0 1 7.05 5.629c0 3.186-2.583 2.487-5.77 2.487-1.413 0-2.708.138-3.71.013-1.521.142-3.432-.049-5.507-.049-4.96 0-8.982 1.088-8.982-3.872a8.982 8.982 0 0 1 16.92-4.208z"/>
        <path fill="#559181" d="M991.621 135.78a5.771 5.771 0 0 0-7.05 5.629c0 3.187 2.583 2.488 5.77 2.488 1.413 0 2.708.138 3.711.013 1.52.141 3.431-.049 5.506-.049 4.96 0 8.982 1.088 8.982-3.873a8.982 8.982 0 0 0-16.919-4.208z"/>
        <path fill="#676B4E" fill-rule="nonzero" d="M1012.745 111.046l-18.776-12.199 1.272-1.958 10.267 6.67v-3.443h1.167v4.201l6.07 3.943v-7.534h5.372v32.47l14.695-9.546v-4.159h1.167v3.4l3.256-2.115 1.273 1.958-20.391 13.248v54.502h-5.372V152.34l-18.776-12.198 1.272-1.958 3.256 2.115v-3.4h1.168v4.159l13.08 8.497v-38.51z"/>
      </g>
    </g>
    <g transform="translate(311.434 26.887)">
      <mask id="I" fill="#fff">
        <use xlink:href="#H"/>
      </mask>
      <use fill="#699A68" xlink:href="#H"/>
      <g stroke="#3A514E" mask="url(#I)">
        <path stroke-linecap="round" stroke-width="2" d="M16.545.893V119.62"/>
        <path stroke-linecap="square" d="M16.545 105.977l-18.33-13.8 18.33 13.8 18.33-13.8-18.33 13.8zm0 0l-.012.01.012-.01.013.01-.013-.01zm0-16.969l-18.33-13.8 18.33 13.8 18.33-13.8-18.33 13.8zm0 0l.013.01-.013-.01-.012.01.012-.01zm0-16.968l-18.33-13.8 18.33 13.8 18.33-13.8-18.33 13.8zm0 0l.013.01-.013-.01-.012.01.012-.01zm0-16.969l18.33-13.8-18.33 13.8-18.33-13.8 18.33 13.8zm0 0l-.012.01.012-.01.013.01-.013-.01zm0-16.968l-18.33-13.8 18.33 13.8 18.33-13.8-18.33 13.8zm0 0l.013.01-.013-.01-.012.01.012-.01zm0-16.969l-18.33-13.8 18.33 13.8 18.33-13.8-18.33 13.8zm0 0l.013.01-.013-.01-.012.01.012-.01z"/>
      </g>
      <path stroke="#3A514E" stroke-linecap="round" stroke-width="2" d="M16.555.446l-.01 119.175"/>
    </g>
    <g transform="translate(342.928 47.767)">
      <mask id="K" fill="#fff">
        <use xlink:href="#J"/>
      </mask>
      <use fill="#5D846B" xlink:href="#J"/>
      <g stroke="#3A514E" mask="url(#K)">
        <path stroke-linecap="round" stroke-width="2" d="M16.545.893V119.62"/>
        <path stroke-linecap="square" d="M16.545 105.977l-18.33-13.8 18.33 13.8 18.33-13.8-18.33 13.8zm0 0l.013.01-.013-.01-.012.01.012-.01zm0-16.969l-18.33-13.8 18.33 13.8 18.33-13.8-18.33 13.8zm0 0l.013.01-.013-.01-.012.01.012-.01zm0-16.968l-18.33-13.8 18.33 13.8 18.33-13.8-18.33 13.8zm0 0l.013.01-.013-.01-.012.01.012-.01zm0-16.969l-18.33-13.8 18.33 13.8 18.33-13.8-18.33 13.8zm0 0l.013.01-.013-.01-.012.01.012-.01zm0-16.968l-18.33-13.8 18.33 13.8 18.33-13.8-18.33 13.8zm0 0l.013.01-.013-.01-.012.01.012-.01zm0-16.969l-18.33-13.8 18.33 13.8 18.33-13.8-18.33 13.8zm0 0l-.012.01.012-.01.013.01-.013-.01z"/>
      </g>
      <path stroke="#3A514E" stroke-linecap="round" stroke-width="2" d="M16.555.446l-.01 119.175"/>
    </g>
    <g transform="translate(1347.843 56.405)">
      <mask id="M" fill="#fff">
        <use xlink:href="#L"/>
      </mask>
      <use fill="#5F845D" xlink:href="#L"/>
      <g stroke="#3A514E" mask="url(#M)">
        <path stroke-linecap="round" stroke-width="2" d="M16.545.893V119.62"/>
        <path stroke-linecap="square" d="M16.545 105.977l-18.33-13.8 18.33 13.8 18.33-13.8-18.33 13.8zm0 0l.013.01-.013-.01-.012.01.012-.01zm0-16.969l-18.33-13.8 18.33 13.8 18.33-13.8-18.33 13.8zm0 0l.013.01-.013-.01-.012.01.012-.01zm0-16.968l-18.33-13.8 18.33 13.8 18.33-13.8-18.33 13.8zm0 0l.013.01-.013-.01-.012.01.012-.01zm0-16.969l-18.33-13.8 18.33 13.8 18.33-13.8-18.33 13.8zm0 0l.013.01-.013-.01-.012.01.012-.01zm0-16.968l-18.33-13.8 18.33 13.8 18.33-13.8-18.33 13.8zm0 0l.013.01-.013-.01-.012.01.012-.01zm0-16.969l-18.33-13.8 18.33 13.8 18.33-13.8-18.33 13.8zm0 0l-.012.01.012-.01.013.01-.013-.01z"/>
      </g>
      <path stroke="#3A514E" stroke-linecap="round" stroke-width="2" d="M16.555.446l-.01 119.175"/>
    </g>
    <g transform="translate(1.434 166.386)">
      <mask id="O" fill="#fff">
        <use xlink:href="#N"/>
      </mask>
      <g fill="#FBF4CF" fill-rule="nonzero" mask="url(#O)">
        <path d="M-2.859 36.592L-3 34.597C103.304 27.079 194.178 22.41 269.622 20.59c75.448-1.82 155.608-1.276 240.483 1.631l-.069 2c-84.836-2.907-164.958-3.45-240.366-1.631-75.41 1.818-166.253 6.485-272.529 14zM-2.859 24.773L-3 22.778c106.304-7.517 197.178-12.186 272.622-14.006 75.448-1.82 155.608-1.275 240.483 1.632l-.069 1.999C425.2 9.497 345.078 8.953 269.67 10.772 194.26 12.59 103.417 17.258-2.859 24.773z"/>
        <path d="M32.831 16.671h2v32.06h-2zM72.831 13.132h2v32.06h-2zM112.831 10.713h2v32.059h-2zM152.831 8.43h2v32.06h-2zM192.831 6.343h2v32.06h-2zM232.831 5.513h2v32.059h-2zM272.831 3.472h2v32.06h-2zM312.831 3.472h2v32.06h-2zM352.831 2.642h2v32.059h-2zM392.831 2.472h2v32.06h-2zM432.831 2.472h2v32.06h-2zM472.831 4.892h2V36.95h-2z"/>
      </g>
    </g>
    <path fill="#95E795" d="M278.283 162.5h14.373s.62-5.403-2.358-5.403c-2.977 0-3.11.446-3.11-2.379 0-2.824-4.116-2.592-4.898-.947s-2.152 1.332-2.693.947c-1.008-.715-.505-2.8-2.685-2.8-2.62 0-1.248 3.654-2.731 4.416-1.484.763-2.352-.48-4.015 0-1.662.48-2.366 1.631-3.838 3.177-1.472 1.545-3.735.23-4.458.963-.723.734-.826 2.027 1.914 2.027h14.5zM459.283 263.54h14.373s.62-5.404-2.358-5.404c-2.977 0-3.11.446-3.11-2.379 0-2.824-4.116-2.592-4.898-.947s-2.152 1.332-2.693.947c-1.008-.715-.505-2.8-2.685-2.8-2.62 0-1.248 3.654-2.731 4.416-1.484.763-2.352-.48-4.015 0-1.662.48-2.366 1.631-3.838 3.177-1.472 1.545-3.735.23-4.458.963-.723.734-.826 2.027 1.914 2.027h14.5zM434.412 150.59h14.373s.62-5.404-2.357-5.404c-2.978 0-3.11.446-3.11-2.379 0-2.824-4.117-2.592-4.899-.947s-2.152 1.332-2.693.947c-1.008-.715-.504-2.8-2.685-2.8-2.62 0-1.248 3.654-2.731 4.416-1.484.763-2.352-.48-4.014 0-1.663.48-2.367 1.631-3.839 3.177-1.471 1.545-3.734.229-4.458.963-.723.734-.826 2.027 1.914 2.027h14.5z"/>
    <path fill="#ABD387" d="M677.445 263.54h14.373s.62-5.404-2.357-5.404c-2.978 0-3.11.446-3.11-2.379 0-2.824-4.117-2.592-4.899-.947s-2.152 1.332-2.693.947c-1.008-.715-.504-2.8-2.685-2.8-2.62 0-1.248 3.654-2.731 4.416-1.484.763-2.352-.48-4.014 0-1.663.48-2.367 1.631-3.839 3.177-1.471 1.545-3.734.23-4.458.963-.723.734-.826 2.027 1.914 2.027h14.5zM1041.283 336.669h14.373s.62-5.404-2.358-5.404c-2.977 0-3.11.446-3.11-2.379 0-2.824-4.116-2.592-4.898-.947s-2.152 1.332-2.693.947c-1.008-.715-.505-2.8-2.685-2.8-2.62 0-1.248 3.654-2.731 4.416-1.484.763-2.352-.48-4.015 0-1.662.48-2.366 1.631-3.838 3.177-1.472 1.545-3.735.23-4.458.963-.723.734-.826 2.027 1.914 2.027h14.5z"/>
    <path fill="#95E795" d="M202.194 144.42h14.374s.62-5.404-2.358-5.404-3.11.446-3.11-2.378c0-2.825-4.116-2.593-4.899-.948-.782 1.645-2.152 1.332-2.693.948-1.008-.715-.504-2.8-2.685-2.8-2.62 0-1.248 3.653-2.731 4.416-1.483.762-2.352-.48-4.014 0-1.663.48-2.367 1.63-3.839 3.176-1.471 1.545-3.734.23-4.458.963-.723.734-.826 2.027 1.914 2.027h14.5z"/>
    <path fill="#426F65" d="M406.922 152.148a6.794 6.794 0 0 1 6.794 6.794v.987h-13.588v-.987a6.794 6.794 0 0 1 6.794-6.794zM54.472 136.64a6.794 6.794 0 0 1 6.794 6.793v.987H47.678v-.987a6.794 6.794 0 0 1 6.794-6.794zM195.924 159.93a4.49 4.49 0 0 1 4.491 4.49v.653h-8.981v-.653a4.49 4.49 0 0 1 4.49-4.49z"/>
    <path fill="#4A8675" d="M52.341 167.417c-.98.508-1.825 2.855 2.144 2.855h14.863c.916 0 2.308-2.099 1.323-3.886-.39-.705-1.323-1.67-2.84-1.67-2.422 0-2.177 2.075-3.597 2.075s-1.845-.216-2.52-2.076c-.673-1.86-1.701-2.43-3.049-2.145-1.347.285-1.222 3.293-2.403 3.816-1.182.524-2.94.524-3.92 1.031z"/>
    <path fill="#5F845D" d="M656.251 150.215c-.98.508-1.825 2.855 2.144 2.855h14.863c.916 0 2.308-2.099 1.322-3.886-.388-.705-1.322-1.671-2.84-1.671-2.421 0-2.176 2.075-3.597 2.075-1.42 0-1.844-.215-2.518-2.075-.674-1.86-1.702-2.43-3.05-2.145-1.347.285-1.222 3.293-2.403 3.816-1.182.524-2.94.524-3.92 1.031zM585.578 145.451c-.981.508-1.826 2.855 2.143 2.855h14.863c.917 0 2.308-2.099 1.323-3.886-.39-.705-1.323-1.671-2.84-1.671-2.422 0-2.177 2.075-3.597 2.075s-1.845-.215-2.519-2.075c-.674-1.86-1.702-2.43-3.05-2.145-1.347.285-1.222 3.293-2.403 3.816-1.182.524-2.94.524-3.92 1.031z"/>
    <path fill="#4A8675" d="M109.08 154.1c-.981.508-1.825 2.855 2.143 2.855h14.864c.916 0 2.307-2.098 1.322-3.885-.389-.706-1.322-1.672-2.84-1.672-2.422 0-2.177 2.076-3.597 2.076s-1.844-.216-2.519-2.076c-.674-1.86-1.702-2.43-3.05-2.144-1.346.285-1.221 3.292-2.403 3.816-1.182.523-2.94.523-3.92 1.03zM262.251 130.984c-.98.507-1.825 2.854 2.144 2.854h14.863c.916 0 2.308-2.098 1.322-3.885-.388-.705-1.322-1.672-2.84-1.672-2.421 0-2.176 2.076-3.597 2.076-1.42 0-1.844-.216-2.518-2.076-.674-1.86-1.702-2.43-3.05-2.144-1.347.285-1.222 3.292-2.403 3.816-1.182.523-2.94.523-3.92 1.03z"/>
    <path fill="#ABD387" d="M1087.476 241.246h14.373s.62-5.404-2.358-5.404-3.11.446-3.11-2.378c0-2.825-4.116-2.593-4.898-.948-.783 1.645-2.152 1.332-2.694.948-1.007-.715-.504-2.8-2.684-2.8-2.62 0-1.248 3.653-2.732 4.416-1.483.762-2.351-.48-4.014 0-1.663.48-2.367 1.63-3.838 3.176-1.472 1.545-3.735.23-4.458.963-.724.734-.827 2.027 1.913 2.027h14.5z"/>
    <path fill="#95E795" d="M412.251 282.916c-.98.508-1.825 2.855 2.144 2.855h14.863c.916 0 2.308-2.099 1.322-3.886-.388-.705-1.322-1.67-2.84-1.67-2.421 0-2.176 2.075-3.597 2.075-1.42 0-1.844-.216-2.518-2.076-.674-1.86-1.702-2.43-3.05-2.145-1.347.286-1.222 3.293-2.403 3.816-1.182.524-2.94.524-3.92 1.031zM506.251 290.687c-.98.508-1.825 2.855 2.144 2.855h14.863c.916 0 2.308-2.099 1.322-3.886-.388-.705-1.322-1.671-2.84-1.671-2.421 0-2.176 2.075-3.597 2.075-1.42 0-1.844-.215-2.518-2.075-.674-1.86-1.702-2.43-3.05-2.145-1.347.285-1.222 3.293-2.403 3.816-1.182.524-2.94.524-3.92 1.031z"/>
    <path fill="#ABD387" d="M986.386 216.478c-.98.507-1.825 2.854 2.144 2.854h14.863c.916 0 2.307-2.098 1.322-3.885-.388-.706-1.322-1.672-2.84-1.672-2.422 0-2.177 2.076-3.597 2.076s-1.844-.216-2.518-2.076c-.675-1.86-1.703-2.43-3.05-2.144-1.347.285-1.222 3.292-2.404 3.816-1.181.523-2.939.523-3.92 1.03z"/>
    <path fill="#7AC2C8" d="M787.538 168.397c41.842-.342 52.9 4.022 65.976 9.373 13.076 5.352-12.14 6.24-10.158 13.085 1.981 6.844 19.34 3.003 28.828 8.555 9.49 5.552-77.412 19.314-122.593 7.501-45.18-11.812-3.895-38.172 37.947-38.514z"/>
    <path fill="#FBF4CF" fill-rule="nonzero" d="M624.324 379.545h-1.658a2474.67 2474.67 0 0 0-3.177-6.724v6.724h-2v-10.929c-9.977-20.925-19.178-39.403-27.601-55.432v22.49h-2v-26.278a840.97 840.97 0 0 0-10.415-19.066 735.876 735.876 0 0 0-18.351-30.733v16.285h-2v-19.44a779.21 779.21 0 0 0-21.802-32.376v14.039h-2v-16.843a831.747 831.747 0 0 0-21.015-28.048v12.557h-2v-15.103a888.851 888.851 0 0 0-21.015-25.646v10.905h-2v-13.248a947.903 947.903 0 0 0-18.902-21.4v7.12h-2v-9.31a999.279 999.279 0 0 0-13-13.926v7.857h-2v-9.953c-3.112-3.252-6.26-6.5-9.448-9.745v7.002h-1.584v-8.611a1070.9 1070.9 0 0 0-8.318-8.34V109h-1.584V93h1.584v3.001c2.798 2.622 5.57 5.246 8.318 7.871v-3.54h1.584v5.057c3.184 3.054 6.333 6.11 9.448 9.17v-4.23h2v6.2c4.402 4.345 8.736 8.696 13 13.053v-5.397h2v7.447a1002.91 1002.91 0 0 1 18.902 19.952v-3.186h2v5.363a923.301 923.301 0 0 1 21.015 23.744v-3.252h2v5.601a844.246 844.246 0 0 1 21.015 25.767v-3.4h2v5.965a768.498 768.498 0 0 1 21.802 29.487v-4.686h2v7.547c10.35 14.882 19.94 29.852 28.766 44.919v-5.35h2v8.785c8.232 14.21 17.432 30.857 27.601 49.94v-8.812h2v12.574a3091.761 3091.761 0 0 1 19.27 36.955h-1.685a3124.269 3124.269 0 0 0-17.585-33.752v23.534c1.592 3.344 3.204 6.75 4.835 10.218zM432.038 101.79c2.8 2.773 5.572 5.55 8.318 8.33v-4.56c-2.745-2.626-5.518-5.25-8.318-7.874v4.104zm9.902 9.937c3.185 3.237 6.334 6.478 9.448 9.724v-5.193a1091.845 1091.845 0 0 0-9.448-9.18v4.649zm11.448 11.814c4.405 4.617 8.739 9.242 13 13.876v-6.106a1040.87 1040.87 0 0 0-13-13.081v5.31zm15 16.057a976.584 976.584 0 0 1 18.902 21.283v-7.492a975.078 975.078 0 0 0-18.902-20.024v6.233zm20.902 23.61a908.544 908.544 0 0 1 21.015 25.448v-9.201a900.362 900.362 0 0 0-21.015-23.879v7.633zm23.015 27.972a839.99 839.99 0 0 1 21.015 27.774V207.79a829.067 829.067 0 0 0-21.015-25.97v9.361zm23.015 30.548a773.243 773.243 0 0 1 21.802 32.02v-13.592a764.34 764.34 0 0 0-21.802-29.778v11.35zm23.802 35.14a711.846 711.846 0 0 1 19.657 32.725 822.262 822.262 0 0 1 9.109 16.612V288.43l-.382-.656c-8.747-15.028-18.2-29.93-28.384-44.727v13.821zm30.766 53.1c8.412 15.905 17.613 34.295 27.601 55.168v-23.114c-10.151-19.105-19.352-35.816-27.601-50.135v18.08z"/>
    <path fill="#7AC2C8" d="M1097.201 124.707c-28.82 9.86-34.28 21.1-16.383 33.72 26.847 18.927 17.473 22.602 78.045 41.498 60.572 18.895 76.5 19.81 138.88 26.99 116.773 13.437 144.579 16.764 147.151 40.263 1.257 11.479-37.797 18.955-93.248 17.78-58.066-1.23-132.527-11.08-125.468 3.575 9.2 19.1 65.304 64.368 168.31 135.803l-48.295-8.037c-100.008-70.695-151.58-112.78-154.714-126.259-4.701-20.216 16.23-25.255 68.7-22.862 52.47 2.393 161.455 6.053 153.307-6.808-4.304-6.793-63.51-11.16-124.203-19.124-54.21-7.112-109.16-17.756-134.35-24.982-53.39-15.316-102.687-59.798-100.528-71.798 1.44-8 10.736-14.586 27.89-19.76h14.906z"/>
    <g>
      <path fill="#4F4F4F" d="M422.617 248.02c-3.27-.953-4.685-.467-4.245 1.455.439 1.923 1.854 1.438 4.245-1.455z"/>
      <path fill="#FBF4CF" d="M353.502 251.534v-.023c-.207-8.818.043-13.854.573-14.348.489-.456.912-.411 1.499.21a.5.5 0 1 0 .726-.687c-.944-.999-1.99-1.109-2.907-.254-.866.807-1.108 5.481-.899 14.757-1.25-.134-1.444 1.364-.58 4.494 2.472-1.985 3.001-3.368 1.588-4.15z"/>
      <g transform="matrix(-1 0 0 1 419.737 230.368)">
        <mask id="Q" fill="#fff">
          <use xlink:href="#P"/>
        </mask>
        <use fill="#FBF4CF" xlink:href="#P"/>
        <path fill="#4F4F4F" d="M26.423.257l34.723.712v6.445c0 3.254-7.315 4.705-9.386 1.976-1.5-1.976-1.5 3.602-4.096 3.79-5.459.398-4.353-3.618-7.602-3.79-2.404-.127-5.205 3.79-7.228 3.79-5.384 0-7.52-4.307-6.41-12.923zM-5.889 4.965C-5.938 2.14-4.343.755-1.106.808c1.702.028.663 2.674 3.627 2.785 1.57.058 2.368-2.403 4.478-1.844 3.79 1.004 2.235 3.797 4.278 3.544 1.396-.173 3.545-2.528 5.972-1.352 4.322 2.093.851 5.536-.42 5.387-3.355-.393-4.793 1.791-8.532.83-1.686-.434-8.251.467-10.864 0-1.742-.311-2.941-1.741-3.598-4.29l.276-.903zm22.976 18.15c-6.27 2.246-10.377 2.78-12.322 1.602-2.916-1.768-2.193-4.773.358-5.368 2.552-.595 4.52-3.532 6.287-4.911 1.765-1.38 4.976-.8 3.84 2.992-.759 2.528-.146 4.423 1.837 5.684z" mask="url(#Q)"/>
      </g>
      <path fill="#FBF4CF" d="M407.46 250.556c2.674-2.108 4.168-2.188 4.481-.241.313 1.947-1.18 2.027-4.481.24z"/>
      <path fill="#4F4F4F" d="M401.364 270.088l-4.072-.413-.44 1.413h5.266zM369.856 271.368l-4.071-.413-.441 1.413h5.267zM361.818 271.368l-4.072-.413-.44 1.413h5.267zM395.588 270.4l-4.319-.408-.194 1.409h5.267z"/>
      <g>
        <path fill="#B08246" d="M237.941 248.02c-3.27-.953-4.684-.467-4.245 1.455.439 1.923 1.854 1.438 4.245-1.455z"/>
        <path fill="#A98454" d="M167.449 251.307a.509.509 0 0 0 .006-.023c1.932-8.605 3.393-13.431 4.026-13.782.585-.324.984-.179 1.404.566a.5.5 0 1 0 .871-.491c-.675-1.198-1.663-1.557-2.76-.95-1.035.574-2.4 5.05-4.441 14.101-1.182-.433-1.732.974-1.651 4.22 2.879-1.328 3.727-2.542 2.545-3.641z"/>
        <g transform="matrix(-1 0 0 1 235.062 230.368)">
          <mask id="S" fill="#fff">
            <use xlink:href="#R"/>
          </mask>
          <use fill="#B08246" xlink:href="#R"/>
          <path fill="#D0A46C" d="M37.76 29.177c3.914.547 7.873.115 12.702-.965 2.642-.592 8.038-.209 8.038-2.681 0-4.609-2.195-2.741-7.37-4.955-2.676-1.144-10.022-2.353-13.37-2.353-4.834 0-8.17-4.31-11.378-2.086-3.315 2.3-6.55.24-6.55 3.794 0 3.325.924 2.519 4.899 3.705 4.38 1.308 9.852 5.097 13.028 5.54z" mask="url(#S)"/>
          <path fill="#4F4F4F" d="M.675 33.003a2.564 2.564 0 0 0 2.563-2.563c0-1.416-1.148-1.981-2.563-1.981-1.416 0-2.564.565-2.564 1.98a2.564 2.564 0 0 0 2.564 2.564z" mask="url(#S)"/>
        </g>
        <path fill="#CEAD81" d="M222.784 250.556c2.674-2.108 4.168-2.188 4.481-.241.313 1.947-1.18 2.027-4.481.24z"/>
        <path fill="#4F4F4F" d="M216.688 270.088l-4.072-.413-.44 1.413h5.266zM185.18 271.368l-4.071-.413-.44 1.413h5.266zM177.142 271.368l-4.071-.413-.441 1.413h5.267zM210.912 270.4l-4.318-.408-.195 1.409h5.267z"/>
      </g>
      <g>
        <path fill="#4F4F4F" d="M317.06 206.53c-3.021-.88-4.33-.432-3.923 1.345.405 1.777 1.713 1.328 3.924-1.346z"/>
        <path fill="#FBF4CF" d="M257.589 229.73a.47.47 0 0 0 0-.021c-.334-8.146-.184-12.804.297-13.269.445-.43.836-.395 1.389.17a.462.462 0 0 0 .66-.647c-.889-.908-1.857-.992-2.69-.188-.788.76-.936 5.084-.593 13.653-1.158-.104-1.313 1.283-.464 4.162 2.252-1.874 2.72-3.16 1.4-3.86z"/>
        <g transform="matrix(-1 0 0 1 317.826 204.618)">
          <mask id="U" fill="#fff">
            <use xlink:href="#T"/>
          </mask>
          <use fill="#FBF4CF" xlink:href="#T"/>
          <path fill="#4F4F4F" d="M24.423 5.783l32.096.658v5.957c0 3.008-4.22 6.285-10.628 3.081-6.407-3.204-8.078 2.25-15.542 2.25-4.976 0-6.951-3.982-5.926-11.946zm11.92 26.379c-1.388-3.147-.644-5.134 2.232-5.962 4.315-1.242 5.769 5.009 8.825 2.504 3.056-2.504 5.234-6.138 9.119-3.7 3.884 2.438 2.248 4.663 1.084 4.875-3.072.56-3.906 1.334-7.472 1.495-2.146.096-6.742.65-13.788 1.661v-.873zM9.935.597c5.846 1.931 9.141 3.88 9.887 5.844 1.118 2.948-1.119 4.725-3.316 3.707-2.197-1.019-5.302 0-7.374 0-2.07 0-4.08-2.25-1.093-4.365 1.99-1.41 2.622-3.138 1.896-5.186z" mask="url(#U)"/>
        </g>
        <path fill="#FBF4CF" d="M303.05 208.873c2.473-1.948 3.853-2.022 4.143-.222.29 1.8-1.092 1.874-4.142.222z"/>
        <path fill="#4F4F4F" d="M300.843 246.878l-3.764-.382-.407 1.306h4.868zM271.72 248.061l-3.763-.382-.408 1.306h4.869zM264.29 248.061l-3.763-.382-.408 1.306h4.869zM295.504 247.167l-3.992-.378-.179 1.302h4.868z"/>
      </g>
      <g>
        <path fill="#4F4F4F" d="M178.933 258.27c-3.27-.953-4.685-.467-4.245 1.455.439 1.923 1.854 1.438 4.245-1.455z"/>
        <path fill="#FBF4CF" d="M109.818 261.784v-.023c-.207-8.818.043-13.854.573-14.348.489-.456.912-.411 1.499.21a.5.5 0 1 0 .726-.687c-.944-.999-1.99-1.109-2.907-.254-.866.807-1.108 5.481-.899 14.757-1.25-.134-1.444 1.364-.58 4.494 2.472-1.985 3.001-3.368 1.588-4.15z"/>
        <g transform="matrix(-1 0 0 1 176.053 240.618)">
          <mask id="W" fill="#fff">
            <use xlink:href="#V"/>
          </mask>
          <use fill="#FBF4CF" xlink:href="#V"/>
          <path fill="#4F4F4F" d="M26.423.257l34.723.712v6.445c0 3.254-7.315 4.705-9.386 1.976-1.5-1.976-1.5 3.602-4.096 3.79-5.459.398-4.353-3.618-7.602-3.79-2.404-.127-5.205 3.79-7.228 3.79-5.384 0-7.52-4.307-6.41-12.923zM-5.889 4.965C-5.938 2.14-4.343.755-1.106.808c1.702.028.663 2.674 3.627 2.785 1.57.058 2.368-2.403 4.478-1.844 3.79 1.004 2.235 3.797 4.278 3.544 1.396-.173 3.545-2.528 5.972-1.352 4.322 2.093.851 5.536-.42 5.387-3.355-.393-4.793 1.791-8.532.83-1.686-.434-8.251.467-10.864 0-1.742-.311-2.941-1.741-3.598-4.29l.276-.903zm22.976 18.15c-6.27 2.246-10.377 2.78-12.322 1.602-2.916-1.768-2.193-4.773.358-5.368 2.552-.595 4.52-3.532 6.287-4.911 1.765-1.38 4.976-.8 3.84 2.992-.759 2.528-.146 4.423 1.837 5.684z" mask="url(#W)"/>
        </g>
        <path fill="#FBF4CF" d="M163.776 260.806c2.674-2.108 4.168-2.188 4.481-.241.313 1.947-1.18 2.027-4.481.24z"/>
        <path fill="#4F4F4F" d="M157.68 280.338l-4.072-.413-.44 1.413h5.266zM126.172 281.618l-4.071-.413-.441 1.413h5.267zM118.134 281.618l-4.072-.413-.44 1.413h5.267zM151.904 280.65l-4.319-.408-.194 1.409h5.267z"/>
      </g>
      <g>
        <path fill="#B08246" d="M374.184 272.207c-3.86-1.124-5.53-.551-5.012 1.718.518 2.27 2.189 1.697 5.012-1.718z"/>
        <path fill="#A98454" d="M290.963 276.088a.6.6 0 0 0 .006-.027c2.281-10.16 4.006-15.857 4.754-16.271.69-.383 1.162-.211 1.657.668a.59.59 0 1 0 1.029-.58c-.797-1.413-1.964-1.838-3.258-1.12-1.222.677-2.835 5.962-5.244 16.646-1.395-.51-2.044 1.15-1.949 4.983 3.399-1.568 4.4-3.001 3.005-4.3z"/>
        <g transform="matrix(-1 0 0 1 370.784 251.368)">
          <mask id="Y" fill="#fff">
            <use xlink:href="#X"/>
          </mask>
          <use fill="#B08246" xlink:href="#X"/>
          <path fill="#D0A46C" d="M44.577 34.445c4.622.647 9.296.136 14.997-1.14 3.12-.697 9.49-.245 9.49-3.164 0-5.44-2.592-3.236-8.702-5.85-3.159-1.35-11.83-2.778-15.785-2.778-5.705 0-9.645-5.087-13.43-2.462-3.915 2.714-7.735.284-7.735 4.479 0 3.926 1.092 2.974 5.784 4.374 5.171 1.544 11.632 6.017 15.381 6.541z" mask="url(#Y)"/>
          <path fill="#4F4F4F" d="M.796 38.963a3.027 3.027 0 0 0 3.027-3.027c0-1.671-1.355-2.338-3.027-2.338-1.671 0-3.026.667-3.026 2.338a3.027 3.027 0 0 0 3.026 3.027z" mask="url(#Y)"/>
        </g>
        <path fill="#CEAD81" d="M356.29 275.201c3.157-2.488 4.92-2.583 5.29-.284.37 2.298-1.394 2.393-5.29.284z"/>
        <path fill="#4F4F4F" d="M349.093 298.26l-4.807-.488-.52 1.669h6.217zM311.896 299.772l-4.807-.488-.52 1.668h6.218zM302.407 299.772l-4.807-.488-.52 1.668h6.217zM342.274 298.63l-5.098-.483-.23 1.663h6.218z"/>
      </g>
      <g>
        <path fill="#4F4F4F" d="M235.898 324.105c-4.211-1.226-6.034-.601-5.468 1.875.565 2.476 2.388 1.851 5.468-1.875z"/>
        <path fill="#FBF4CF" d="M146.871 328.632v-.03c-.267-11.358.056-17.845.738-18.481.63-.587 1.174-.53 1.93.27a.644.644 0 0 0 .937-.885c-1.217-1.287-2.565-1.428-3.746-.327-1.114 1.04-1.427 7.06-1.157 19.008-1.611-.173-1.86 1.757-.748 5.789 3.184-2.557 3.866-4.339 2.046-5.344z"/>
        <g transform="matrix(-1 0 0 1 232.19 301.368)">
          <mask id="aa" fill="#fff">
            <use xlink:href="#Z"/>
          </mask>
          <use fill="#FBF4CF" xlink:href="#Z"/>
          <path fill="#4F4F4F" d="M34.036.33l44.727.918v8.301c0 4.192-9.423 6.061-12.09 2.546-1.933-2.546-1.933 4.64-5.277 4.883-7.032.511-5.607-4.66-9.792-4.883-3.096-.164-6.704 4.883-9.31 4.883-6.935 0-9.687-5.549-8.258-16.647zM-7.585 6.396c-.063-3.638 1.99-5.423 6.16-5.354 2.192.036.854 3.444 4.672 3.587 2.023.075 3.05-3.095 5.769-2.375 4.88 1.293 2.879 4.89 5.51 4.565 1.799-.223 4.566-3.256 7.692-1.742 5.567 2.697 1.097 7.131-.541 6.94-4.322-.507-6.173 2.307-10.99 1.068-2.171-.558-10.628.602-13.994 0-2.243-.4-3.788-2.242-4.634-5.525l.356-1.164zm29.594 23.379c-8.076 2.894-13.366 3.582-15.87 2.064-3.758-2.277-2.827-6.148.46-6.914 3.287-.767 5.823-4.55 8.098-6.327 2.274-1.777 6.41-1.03 4.945 3.854-.976 3.257-.187 5.697 2.367 7.323z" mask="url(#aa)"/>
        </g>
        <path fill="#FBF4CF" d="M216.374 327.372c3.445-2.715 5.37-2.818 5.773-.31.403 2.508-1.521 2.611-5.773.31z"/>
        <path fill="#4F4F4F" d="M208.522 352.531l-5.245-.532-.568 1.82h6.784zM167.937 354.18l-5.245-.532-.567 1.82h6.784zM157.583 354.18l-5.245-.532-.568 1.82h6.785zM201.082 352.934l-5.563-.526-.25 1.814h6.784z"/>
      </g>
      <g>
        <path fill="#4F4F4F" d="M74.021 244.77c-3.269-.953-4.684-.467-4.245 1.455.44 1.923 1.854 1.438 4.245-1.455z"/>
        <path fill="#FBF4CF" d="M4.907 248.284v-.023c-.207-8.818.043-13.854.573-14.348.489-.456.911-.411 1.498.21a.5.5 0 1 0 .727-.687c-.944-.999-1.99-1.109-2.907-.254-.866.807-1.108 5.481-.899 14.757-1.25-.134-1.444 1.364-.58 4.494 2.471-1.985 3.001-3.368 1.588-4.15z"/>
        <g transform="matrix(-1 0 0 1 71.142 227.118)">
          <mask id="ac" fill="#fff">
            <use xlink:href="#ab"/>
          </mask>
          <use fill="#FBF4CF" xlink:href="#ab"/>
          <path fill="#4F4F4F" d="M26.423.257l34.723.712v6.445c0 3.254-7.315 4.705-9.386 1.976-1.5-1.976-1.5 3.602-4.096 3.79-5.459.398-4.353-3.618-7.602-3.79-2.404-.127-5.205 3.79-7.228 3.79-5.384 0-7.52-4.307-6.41-12.923zM-5.889 4.965C-5.938 2.14-4.343.755-1.106.808c1.702.028.663 2.674 3.627 2.785 1.57.058 2.368-2.403 4.478-1.844 3.79 1.004 2.235 3.797 4.278 3.544 1.396-.173 3.545-2.528 5.972-1.352 4.322 2.093.851 5.536-.42 5.387-3.355-.393-4.793 1.791-8.532.83-1.686-.434-8.251.467-10.864 0-1.742-.311-2.941-1.741-3.598-4.29l.276-.903zm22.976 18.15c-6.27 2.246-10.377 2.78-12.322 1.602-2.916-1.768-2.193-4.773.358-5.368 2.552-.595 4.52-3.532 6.287-4.911 1.765-1.38 4.976-.8 3.84 2.992-.759 2.528-.146 4.423 1.837 5.684z" mask="url(#ac)"/>
        </g>
        <path fill="#FBF4CF" d="M58.864 247.306c2.675-2.108 4.169-2.188 4.482-.241.313 1.947-1.181 2.027-4.482.24z"/>
        <path fill="#4F4F4F" d="M52.768 266.838l-4.072-.413-.44 1.413h5.267zM21.261 268.118l-4.072-.413-.44 1.413h5.266zM13.223 268.118l-4.072-.413-.44 1.413h5.266zM46.992 267.15l-4.318-.408-.194 1.409h5.267z"/>
      </g>
    </g>
    <g>
      <path fill="#97C26F" d="M1108.293 106.326c0-4.623 2.915-8.474 9.976-8.474 7.06 0 9.976 3.464 9.976 8.474 0 5.009-3.64 5.009-3.64 9.245 0 4.237 4.272 4.237 3.64 9.246-.633 5.01-2.334 4.623-2.334 9.246s2.334 4.834 2.334 9.246c0 4.411-2.672 7.223-9.976 7.223-7.305 0-9.976-2.548-9.976-7.223s2.915-4.623 2.915-9.246-2.915-4.623-2.915-9.246 2.915-5.975 2.915-9.246c0-3.27-2.915-4.622-2.915-9.245z"/>
      <path fill="#2B3B3F" fill-rule="nonzero" d="M1118.999 143.96v15.583h-1.46v-20.721c-.89-.11-1.508-.296-1.869-.576-.47-.365-.807-1.115-1.055-2.26l-.077-.357.713-.154.077.356c.215.991.492 1.607.79 1.838.229.178.707.322 1.42.417v-12.288c-.907-.11-1.535-.296-1.9-.58-.469-.364-.807-1.115-1.055-2.26l-.077-.356.713-.155.078.357c.214.99.492 1.607.789 1.838.232.18.721.325 1.453.42V112.77c-.908-.109-1.536-.296-1.9-.58-.47-.364-.808-1.114-1.056-2.26l-.077-.356.713-.155.078.357c.214.991.492 1.607.789 1.838.232.18.721.326 1.453.42v-5.222h1.46v13.68c1.085-.084 1.789-.256 2.082-.483.298-.232.575-.847.79-1.838l.077-.357.713.154-.077.357c-.248 1.145-.586 1.896-1.055 2.26-.444.345-1.278.547-2.53.64v10.635c1.085-.084 1.789-.256 2.082-.484.298-.23.575-.847.79-1.838l.077-.357.713.155-.077.357c-.248 1.145-.586 1.895-1.055 2.26-.444.345-1.278.547-2.53.64v10.635c1.085-.084 1.789-.256 2.082-.484.298-.231.575-.847.79-1.838l.077-.357.713.155-.077.356c-.248 1.145-.586 1.896-1.055 2.26-.444.345-1.278.547-2.53.64z"/>
    </g>
  </g>
</svg>
